<svg xmlns="http://www.w3.org/2000/svg" xmlns:xlink="http://www.w3.org/1999/xlink" width="1024" zoomAndPan="magnify" viewBox="0 0 768 767.999994" height="1024" preserveAspectRatio="xMidYMid meet" version="1.0"><defs><clipPath id="f6e030bfb5"><path d="M 40.242188 40.242188 L 727.757812 40.242188 L 727.757812 727.757812 L 40.242188 727.757812 Z M 40.242188 40.242188 " clip-rule="nonzero"/></clipPath><clipPath id="092ae81952"><path d="M 384 40.242188 C 194.148438 40.242188 40.242188 194.148438 40.242188 384 C 40.242188 573.851562 194.148438 727.757812 384 727.757812 C 573.851562 727.757812 727.757812 573.851562 727.757812 384 C 727.757812 194.148438 573.851562 40.242188 384 40.242188 Z M 384 40.242188 " clip-rule="nonzero"/></clipPath><clipPath id="8d267efd36"><path d="M 232.644531 195 L 535.644531 195 L 535.644531 573 L 232.644531 573 Z M 232.644531 195 " clip-rule="nonzero"/></clipPath></defs><rect x="-76.8" width="921.6" fill="#ffffff" y="-76.799999" height="921.599993" fill-opacity="1"/><rect x="-76.8" width="921.6" fill="#ffffff" y="-76.799999" height="921.599993" fill-opacity="1"/><g clip-path="url(#f6e030bfb5)"><g clip-path="url(#092ae81952)"><path fill="#0f4ea2" d="M 40.242188 40.242188 L 727.757812 40.242188 L 727.757812 727.757812 L 40.242188 727.757812 Z M 40.242188 40.242188 " fill-opacity="1" fill-rule="nonzero"/></g></g><g clip-path="url(#8d267efd36)"><path fill="#ffffff" d="M 441.976562 195.152344 L 283.40625 195.152344 C 255.382812 195.152344 232.582031 217.953125 232.582031 245.976562 L 232.582031 522.019531 C 232.582031 550.046875 255.382812 572.847656 283.40625 572.847656 L 484.597656 572.847656 C 512.617188 572.847656 535.417969 550.050781 535.417969 522.019531 L 535.417969 299.589844 Z M 449.382812 243.605469 L 492.070312 291.316406 L 449.382812 291.316406 Z M 484.59375 546.058594 L 283.40625 546.058594 C 270.152344 546.058594 259.371094 535.277344 259.371094 522.019531 L 259.371094 245.976562 C 259.371094 232.722656 270.152344 221.9375 283.40625 221.9375 L 422.59375 221.9375 L 422.59375 318.101562 L 508.628906 318.101562 L 508.628906 522.019531 C 508.625 535.277344 497.84375 546.058594 484.59375 546.058594 Z M 484.59375 546.058594 " fill-opacity="1" fill-rule="nonzero"/></g><path fill="#ffffff" d="M 288.121094 465.929688 L 479.867188 465.929688 L 479.867188 492.71875 L 288.121094 492.71875 Z M 288.121094 465.929688 " fill-opacity="1" fill-rule="nonzero"/><path fill="#ffffff" d="M 288.121094 407.71875 L 479.867188 407.71875 L 479.867188 434.507812 L 288.121094 434.507812 Z M 288.121094 407.71875 " fill-opacity="1" fill-rule="nonzero"/><path fill="#ffffff" d="M 288.121094 349.519531 L 479.867188 349.519531 L 479.867188 376.304688 L 288.121094 376.304688 Z M 288.121094 349.519531 " fill-opacity="1" fill-rule="nonzero"/></svg>