<svg xmlns="http://www.w3.org/2000/svg" xmlns:xlink="http://www.w3.org/1999/xlink" width="1024" zoomAndPan="magnify" viewBox="0 0 768 767.999994" height="1024" preserveAspectRatio="xMidYMid meet" version="1.0"><rect x="-76.8" width="921.6" fill="#ffffff" y="-76.799999" height="921.599993" fill-opacity="1"/><rect x="-76.8" width="921.6" fill="#ffffff" y="-76.799999" height="921.599993" fill-opacity="1"/><path fill="#50a9fb" d="M 211.335938 316.691406 C 207.832031 316.691406 204.492188 314.832031 202.6875 311.546875 C 200.113281 306.78125 201.863281 300.816406 206.628906 298.242188 L 583.378906 93.71875 C 585.679688 92.457031 587.976562 91.308594 590.277344 90.105469 L 593.398438 88.460938 C 638.398438 66.34375 688.160156 56.929688 737.648438 61.089844 C 747.339844 61.910156 756.097656 66.890625 761.683594 74.773438 C 766.9375 82.109375 768.636719 91.363281 766.390625 100.011719 C 760.039062 124.757812 734.75 164.609375 650.277344 214.046875 L 576.753906 254.007812 C 571.992188 256.582031 566.027344 254.832031 563.453125 250.066406 C 560.878906 245.304688 562.632812 239.335938 567.394531 236.765625 L 640.640625 196.964844 C 723.140625 148.679688 742.960938 112.441406 747.394531 95.085938 C 748.488281 90.925781 746.792969 87.640625 745.640625 86.109375 C 743.507812 83.042969 739.894531 81.015625 736.007812 80.6875 C 690.078125 76.746094 643.871094 85.503906 602.265625 105.980469 L 599.253906 107.511719 C 597.066406 108.664062 594.875 109.8125 592.6875 110.960938 L 215.988281 315.488281 C 214.511719 316.308594 212.921875 316.691406 211.335938 316.691406 " fill-opacity="1" fill-rule="nonzero"/><path fill="#50a9fb" d="M 191.902344 321.671875 C 183.304688 321.671875 174.765625 319.429688 167.046875 314.996094 L 51.316406 256.964844 C 46.445312 254.554688 44.472656 248.644531 46.9375 243.828125 C 49.347656 238.953125 55.257812 236.984375 60.078125 239.445312 L 176.355469 297.695312 C 186.097656 303.332031 197.210938 303.386719 206.628906 298.242188 C 211.335938 295.667969 217.304688 297.367188 219.929688 302.128906 C 222.558594 306.890625 220.804688 312.859375 216.042969 315.488281 C 208.433594 319.59375 200.167969 321.671875 191.902344 321.671875 " fill-opacity="1" fill-rule="nonzero"/><path fill="#50a9fb" d="M 107.921875 460.777344 C 94.621094 460.777344 82.140625 454.703125 73.761719 444.027344 C 64.347656 431.875 61.882812 416.050781 67.25 401.65625 L 69.765625 394.921875 C 73.871094 383.863281 73.597656 372.039062 69 361.472656 L 2.8125 278.863281 C 0.953125 276.5625 0.242188 273.609375 0.84375 270.761719 C 1.390625 267.914062 3.195312 265.503906 5.769531 264.082031 L 51.042969 239.554688 C 55.804688 236.984375 61.773438 238.734375 64.292969 243.496094 C 66.917969 248.261719 65.113281 254.226562 60.351562 256.800781 L 25.421875 275.742188 L 85.09375 350.140625 C 85.585938 350.742188 86.027344 351.453125 86.355469 352.164062 C 93.636719 367.769531 94.238281 385.394531 88.160156 401.765625 L 85.640625 408.496094 C 82.6875 416.492188 84 425.25 89.253906 431.929688 C 94.457031 438.609375 102.175781 441.945312 110.605469 441.015625 C 163.105469 435.050781 247.523438 415.722656 351.207031 357.804688 C 355.917969 355.121094 361.882812 356.820312 364.566406 361.582031 C 367.195312 366.289062 365.496094 372.257812 360.789062 374.941406 C 254.199219 434.445312 167.101562 454.320312 112.796875 460.503906 C 111.152344 460.667969 109.511719 460.777344 107.921875 460.777344 " fill-opacity="1" fill-rule="nonzero"/><path fill="#50a9fb" d="M 399.984375 533.207031 C 398.234375 533.207031 396.535156 532.714844 394.949219 531.835938 C 391.992188 530.03125 390.1875 526.855469 390.1875 523.351562 L 390.460938 337.714844 L 390.1875 317.019531 C 390.132812 311.601562 394.457031 307.109375 399.875 307.054688 C 399.929688 307.054688 399.929688 307.054688 399.984375 307.054688 C 405.351562 307.054688 409.730469 311.382812 409.785156 316.746094 L 410.058594 337.605469 L 409.839844 506.875 L 487.359375 464.664062 L 518.34375 263.371094 L 522.121094 243.496094 C 523.160156 238.1875 528.304688 234.792969 533.617188 235.722656 C 538.925781 236.765625 542.429688 241.910156 541.390625 247.21875 L 537.667969 266.710938 L 506.027344 472.496094 C 505.585938 475.503906 503.726562 478.132812 501.042969 479.609375 L 404.695312 532 C 403.214844 532.824219 401.628906 533.207031 399.984375 533.207031 " fill-opacity="1" fill-rule="nonzero"/><path fill="#50a9fb" d="M 280.421875 236.875 C 280.09375 236.875 279.710938 236.875 279.328125 236.820312 L 194.859375 227.183594 C 190.585938 226.691406 187.140625 223.515625 186.316406 219.355469 C 185.496094 215.140625 187.523438 210.871094 191.300781 208.84375 L 264.710938 168.9375 C 265.917969 168.332031 267.230469 167.894531 268.597656 167.785156 L 386.246094 158.207031 C 391.554688 157.878906 396.371094 161.765625 396.808594 167.183594 C 397.25 172.550781 393.25 177.3125 387.832031 177.75 L 272.265625 187.164062 L 227.976562 211.253906 L 281.519531 217.332031 C 286.9375 217.933594 290.769531 222.804688 290.167969 228.167969 C 289.621094 233.207031 285.351562 236.875 280.421875 236.875 " fill-opacity="1" fill-rule="nonzero"/><path fill="#50a9fb" d="M 616.28125 154.867188 C 612.832031 154.867188 609.492188 153.058594 607.6875 149.832031 C 605.058594 145.066406 606.753906 139.101562 611.464844 136.472656 L 622.796875 130.230469 C 627.503906 127.605469 633.472656 129.300781 636.097656 134.007812 C 638.726562 138.773438 637.027344 144.738281 632.320312 147.367188 L 621.042969 153.664062 C 619.511719 154.484375 617.867188 154.867188 616.28125 154.867188 Z M 548.617188 192.585938 C 545.167969 192.585938 541.828125 190.722656 540.023438 187.550781 C 537.394531 182.785156 539.089844 176.820312 543.800781 174.191406 L 555.078125 167.894531 C 559.839844 165.269531 565.804688 166.964844 568.433594 171.671875 C 571.0625 176.4375 569.363281 182.402344 564.65625 185.03125 L 553.378906 191.328125 C 551.847656 192.148438 550.203125 192.585938 548.617188 192.585938 Z M 480.953125 230.25 C 477.503906 230.25 474.164062 228.441406 472.359375 225.214844 C 469.730469 220.449219 471.425781 214.484375 476.136719 211.855469 L 487.414062 205.558594 C 492.175781 202.933594 498.140625 204.628906 500.769531 209.390625 C 503.398438 214.101562 501.699219 220.066406 496.992188 222.75 L 485.714844 228.992188 C 484.183594 229.867188 482.539062 230.25 480.953125 230.25 Z M 413.289062 267.914062 C 409.839844 267.914062 406.5 266.109375 404.695312 262.878906 C 402.066406 258.167969 403.761719 252.203125 408.472656 249.574219 L 419.75 243.277344 C 424.511719 240.652344 430.476562 242.347656 433.105469 247.054688 C 435.734375 251.820312 434.035156 257.785156 429.328125 260.414062 L 418.050781 266.710938 C 416.519531 267.53125 414.875 267.914062 413.289062 267.914062 Z M 345.570312 305.632812 C 342.175781 305.632812 338.835938 303.773438 337.027344 300.597656 C 334.402344 295.832031 336.097656 289.867188 340.804688 287.238281 L 352.082031 280.941406 C 356.792969 278.316406 362.8125 280.011719 365.441406 284.773438 C 368.070312 289.484375 366.371094 295.449219 361.664062 298.078125 L 350.332031 304.375 C 348.855469 305.195312 347.210938 305.632812 345.570312 305.632812 Z M 277.90625 343.296875 C 274.457031 343.296875 271.171875 341.492188 269.363281 338.261719 C 266.738281 333.550781 268.433594 327.53125 273.140625 324.902344 L 284.417969 318.664062 C 289.183594 315.980469 295.09375 317.730469 297.777344 322.441406 C 300.40625 327.148438 298.707031 333.167969 294 335.796875 L 282.722656 342.039062 C 281.191406 342.914062 279.546875 343.296875 277.90625 343.296875 Z M 210.242188 380.960938 C 206.792969 380.960938 203.453125 379.15625 201.699219 375.980469 C 199.019531 371.21875 200.714844 365.25 205.476562 362.621094 L 216.753906 356.328125 C 221.519531 353.699219 227.484375 355.394531 230.113281 360.105469 C 232.742188 364.867188 231.042969 370.832031 226.28125 373.460938 L 215.003906 379.757812 C 213.527344 380.578125 211.882812 380.960938 210.242188 380.960938 " fill-opacity="1" fill-rule="nonzero"/><path fill="#50a9fb" d="M 747.558594 710.632812 L 20.441406 710.632812 C 15.023438 710.632812 10.640625 706.253906 10.640625 700.832031 C 10.640625 695.414062 15.023438 691.035156 20.441406 691.035156 L 747.558594 691.035156 C 752.976562 691.035156 757.359375 695.414062 757.359375 700.832031 C 757.359375 706.253906 752.976562 710.632812 747.558594 710.632812 " fill-opacity="1" fill-rule="nonzero"/></svg>