<svg xmlns="http://www.w3.org/2000/svg" xmlns:xlink="http://www.w3.org/1999/xlink" width="1000" zoomAndPan="magnify" viewBox="0 0 750 749.999995" height="1000" preserveAspectRatio="xMidYMid meet" version="1.0"><path fill="#50a9fb" d="M 744.113281 356.898438 C 739.390625 352.175781 731.523438 352.175781 726.800781 356.898438 L 712.632812 371.851562 L 712.632812 369.492188 C 709.484375 182.964844 555.226562 34.21875 368.703125 36.578125 C 219.957031 38.941406 91.671875 137.320312 49.171875 279.769531 C 49.171875 281.34375 48.386719 282.132812 48.386719 283.707031 C 48.386719 289.214844 52.320312 293.9375 57.042969 295.511719 C 63.339844 297.085938 70.421875 293.9375 71.996094 286.851562 C 110.558594 153.847656 230.1875 63.339844 367.917969 60.976562 C 541.0625 58.617188 683.511719 196.34375 686.660156 369.492188 L 686.660156 371.851562 L 671.707031 356.898438 C 666.984375 352.175781 659.117188 352.175781 654.394531 356.898438 C 652.03125 359.257812 651.246094 362.40625 651.246094 365.554688 C 651.246094 368.703125 652.820312 371.851562 655.179688 374.214844 L 691.382812 409.628906 C 696.105469 414.351562 703.976562 414.351562 708.699219 409.628906 L 744.113281 373.425781 C 749.625 369.492188 748.835938 361.621094 744.113281 356.898438 Z M 744.113281 356.898438 " fill-opacity="1" fill-rule="nonzero"/><path fill="#50a9fb" d="M 690.597656 454.488281 C 684.300781 452.914062 677.21875 456.0625 675.644531 463.148438 C 637.078125 596.152344 517.453125 686.660156 379.722656 689.023438 C 206.578125 691.382812 64.125 553.65625 60.976562 380.507812 L 60.976562 378.148438 L 75.929688 393.101562 C 80.652344 397.824219 88.523438 397.824219 93.246094 393.101562 C 97.96875 388.378906 97.96875 380.507812 93.246094 375.785156 L 57.042969 340.371094 C 53.894531 337.222656 50.746094 335.648438 47.597656 335.648438 C 44.449219 335.648438 41.300781 337.222656 38.941406 339.582031 L 3.523438 375.785156 C 1.164062 378.148438 0.375 381.296875 0.375 384.445312 C 0.375 387.59375 1.949219 390.742188 4.3125 393.101562 C 9.035156 397.824219 16.902344 397.824219 21.625 393.101562 L 35.792969 378.148438 L 35.792969 380.507812 C 38.941406 567.035156 193.199219 715.78125 379.722656 713.421875 C 528.46875 711.058594 656.753906 613.46875 699.253906 470.230469 C 700.828125 463.148438 696.894531 456.851562 690.597656 454.488281 Z M 690.597656 454.488281 " fill-opacity="1" fill-rule="nonzero"/><path fill="#50a9fb" d="M 374.214844 620.550781 C 510.367188 620.550781 620.550781 510.367188 620.550781 375 C 620.550781 238.84375 510.367188 128.660156 374.214844 128.660156 C 238.84375 128.660156 128.660156 238.84375 128.660156 375 C 128.660156 511.15625 238.058594 620.550781 374.214844 620.550781 Z M 374.214844 217.59375 C 411.988281 217.59375 441.898438 248.289062 441.898438 285.28125 C 441.898438 323.054688 411.203125 352.964844 374.214844 352.964844 C 337.222656 352.964844 306.527344 322.269531 306.527344 285.28125 C 305.742188 247.503906 336.4375 217.59375 374.214844 217.59375 Z M 264.816406 423.796875 C 275.046875 395.460938 296.296875 374.214844 323.054688 363.980469 C 338.011719 373.425781 355.324219 379.722656 374.214844 379.722656 C 393.101562 379.722656 411.203125 374.214844 425.371094 363.980469 C 452.128906 374.214844 473.378906 396.25 483.609375 423.796875 C 490.691406 444.257812 495.414062 465.507812 496.988281 486.757812 C 497.777344 496.988281 489.90625 504.859375 479.675781 504.859375 L 267.179688 504.859375 C 257.734375 504.859375 249.078125 496.988281 249.863281 486.757812 C 253.011719 465.507812 256.945312 444.257812 264.816406 423.796875 Z M 264.816406 423.796875 " fill-opacity="1" fill-rule="nonzero"/></svg>