<svg xmlns="http://www.w3.org/2000/svg" xmlns:xlink="http://www.w3.org/1999/xlink" width="2000" zoomAndPan="magnify" viewBox="0 0 1500 749.999995" height="1000" preserveAspectRatio="xMidYMid meet" version="1.0"><defs><g/></defs><g fill="#ffffff" fill-opacity="1"><g transform="translate(41.520409, 98.502996)"><g><path d="M 48 -49.890625 L 21.21875 -49.890625 L 21.21875 -38.046875 C 22.351562 -39.304688 23.953125 -40.335938 26.015625 -41.140625 C 28.078125 -41.941406 30.3125 -42.34375 32.71875 -42.34375 C 37.007812 -42.34375 40.570312 -41.367188 43.40625 -39.421875 C 46.238281 -37.472656 48.3125 -34.953125 49.625 -31.859375 C 50.945312 -28.765625 51.609375 -25.414062 51.609375 -21.8125 C 51.609375 -15.113281 49.71875 -9.800781 45.9375 -5.875 C 42.164062 -1.957031 36.84375 0 29.96875 0 C 25.382812 0 21.40625 -0.785156 18.03125 -2.359375 C 14.65625 -3.929688 12.050781 -6.117188 10.21875 -8.921875 C 8.382812 -11.734375 7.382812 -14.972656 7.21875 -18.640625 L 21.546875 -18.640625 C 21.890625 -16.859375 22.71875 -15.378906 24.03125 -14.203125 C 25.351562 -13.035156 27.160156 -12.453125 29.453125 -12.453125 C 32.140625 -12.453125 34.140625 -13.3125 35.453125 -15.03125 C 36.773438 -16.75 37.4375 -19.035156 37.4375 -21.890625 C 37.4375 -24.703125 36.75 -26.851562 35.375 -28.34375 C 34 -29.832031 32 -30.578125 29.375 -30.578125 C 27.425781 -30.578125 25.820312 -30.101562 24.5625 -29.15625 C 23.300781 -28.207031 22.46875 -26.960938 22.0625 -25.421875 L 7.90625 -25.421875 L 7.90625 -62.78125 L 48 -62.78125 Z M 48 -49.890625 "/></g></g></g><g fill="#ffffff" fill-opacity="1"><g transform="translate(97.340591, 98.502996)"><g><path d="M 19.671875 -18.375 C 20.523438 -13.851562 23.15625 -11.59375 27.5625 -11.59375 C 30.601562 -11.59375 32.75 -12.9375 34 -15.625 C 35.257812 -18.320312 35.890625 -22.703125 35.890625 -28.765625 C 34.628906 -26.992188 32.910156 -25.617188 30.734375 -24.640625 C 28.566406 -23.671875 26.132812 -23.1875 23.4375 -23.1875 C 19.78125 -23.1875 16.519531 -23.941406 13.65625 -25.453125 C 10.789062 -26.972656 8.539062 -29.234375 6.90625 -32.234375 C 5.28125 -35.242188 4.46875 -38.894531 4.46875 -43.1875 C 4.46875 -47.425781 5.335938 -51.117188 7.078125 -54.265625 C 8.828125 -57.421875 11.316406 -59.859375 14.546875 -61.578125 C 17.785156 -63.296875 21.609375 -64.15625 26.015625 -64.15625 C 34.492188 -64.15625 40.421875 -61.519531 43.796875 -56.25 C 47.171875 -50.976562 48.859375 -43.21875 48.859375 -32.96875 C 48.859375 -25.53125 48.1875 -19.390625 46.84375 -14.546875 C 45.5 -9.710938 43.238281 -6.035156 40.0625 -3.515625 C 36.882812 -1.003906 32.546875 0.25 27.046875 0.25 C 22.703125 0.25 18.992188 -0.601562 15.921875 -2.3125 C 12.859375 -4.03125 10.507812 -6.289062 8.875 -9.09375 C 7.25 -11.90625 6.320312 -15 6.09375 -18.375 Z M 26.796875 -34.78125 C 29.203125 -34.78125 31.117188 -35.507812 32.546875 -36.96875 C 33.972656 -38.425781 34.6875 -40.414062 34.6875 -42.9375 C 34.6875 -45.6875 33.941406 -47.804688 32.453125 -49.296875 C 30.972656 -50.785156 28.972656 -51.53125 26.453125 -51.53125 C 23.929688 -51.53125 21.941406 -50.769531 20.484375 -49.25 C 19.023438 -47.726562 18.296875 -45.648438 18.296875 -43.015625 C 18.296875 -40.554688 19.023438 -38.566406 20.484375 -37.046875 C 21.941406 -35.535156 24.046875 -34.78125 26.796875 -34.78125 Z M 26.796875 -34.78125 "/></g></g></g><g fill="#ffffff" fill-opacity="1"><g transform="translate(158.555345, 86.092566)"><g><path d="M 46.988281 -32.847656 C 46.265625 -33.847656 43.035156 -34.460938 8.460938 -33.683594 C 9.574219 -38.191406 10.578125 -42.253906 11.46875 -45.539062 C 11.636719 -46.152344 11.300781 -46.710938 10.746094 -46.875 C 10.1875 -47.042969 9.574219 -46.710938 9.410156 -46.152344 C 8.460938 -42.644531 7.40625 -38.414062 6.234375 -33.625 C 3.171875 -33.570312 -0.167969 -33.515625 -3.785156 -33.402344 C -8.742188 -33.292969 -12.636719 -33.179688 -14.140625 -33.179688 C -14.753906 -33.179688 -15.253906 -32.679688 -15.253906 -32.125 C -15.253906 -31.511719 -14.753906 -31.007812 -14.140625 -31.007812 C -12.582031 -31.066406 -8.683594 -31.121094 -3.730469 -31.289062 C -1.113281 -31.34375 2.117188 -31.398438 5.734375 -31.511719 C 3.339844 -21.378906 0.613281 -9.242188 -1.835938 2.617188 C -3.617188 11.300781 -5.066406 18.816406 -6.011719 24.328125 C -6.515625 27.222656 -6.847656 29.507812 -7.015625 31.066406 C -7.238281 33.179688 -7.347656 34.40625 -6.292969 34.796875 C -6.125 34.796875 -6.011719 34.851562 -5.84375 34.851562 C -4.898438 34.851562 -4.398438 33.515625 -3.953125 32.289062 C -3.730469 31.734375 -4.007812 31.121094 -4.566406 30.898438 C -4.675781 30.898438 -4.730469 30.84375 -4.84375 30.84375 C -4.285156 26.5 -2.617188 16.757812 0.613281 1.390625 C 3.007812 -10.242188 5.621094 -21.878906 7.960938 -31.566406 C 23.269531 -31.902344 43.144531 -32.179688 45.429688 -31.398438 C 45.820312 -31.066406 46.320312 -31.066406 46.765625 -31.34375 C 47.210938 -31.679688 47.320312 -32.347656 46.988281 -32.847656 Z M 46.988281 -32.847656 "/></g></g></g><g fill="#ffffff" fill-opacity="1"><g transform="translate(165.959529, 86.092566)"><g><path d="M 26.332031 -12.695312 C 25.832031 -13.027344 25.164062 -12.859375 24.886719 -12.359375 C 16.980469 0.390625 14.195312 0.113281 13.917969 0.0546875 C 13.363281 -0.113281 12.75 -1.226562 12.582031 -3.953125 C 12.527344 -5.175781 12.246094 -8.851562 9.796875 -9.1875 C 6.960938 -9.574219 3.5625 -4.621094 0.5 1.78125 C 2.394531 -6.679688 5.121094 -18.316406 7.125 -26.554688 C 14.585938 -39.972656 18.371094 -50.050781 16.8125 -52.222656 C 16.480469 -52.722656 15.921875 -52.890625 15.367188 -52.777344 C 12.972656 -52.332031 9.242188 -44.203125 6.738281 -33.90625 C 6.625 -33.515625 -3.339844 7.183594 -3.675781 12.191406 C -3.675781 12.75 -3.339844 13.195312 -2.785156 13.304688 C -2.726562 13.304688 -2.671875 13.304688 -2.617188 13.304688 C -2.171875 13.304688 -1.726562 13.027344 -1.558594 12.636719 C 3.285156 -1.28125 8.015625 -7.070312 9.410156 -7.070312 C 9.464844 -7.070312 9.464844 -7.070312 9.464844 -7.070312 C 9.6875 -7.070312 10.300781 -6.402344 10.464844 -3.839844 C 10.523438 -2.503906 10.800781 1.449219 13.363281 2.117188 C 14.476562 2.394531 17.757812 3.230469 26.667969 -11.246094 C 27 -11.746094 26.835938 -12.414062 26.332031 -12.695312 Z M 14.976562 -49.714844 C 14.53125 -47.488281 12.972656 -42.699219 9.242188 -35.183594 C 11.355469 -43.203125 13.640625 -47.824219 14.976562 -49.714844 Z M 14.976562 -49.714844 "/></g></g></g><path stroke-linecap="butt" transform="matrix(0.75, 0.000000000000000007, -0.000000000000000007, 0.75, 234.219428, 66.522226)" fill="none" stroke-linejoin="miter" d="M -0.000904381 6.001616 L 1584.801256 6.001616 " stroke="#ffffff" stroke-width="12" stroke-opacity="1" stroke-miterlimit="4"/><path stroke-linecap="butt" transform="matrix(0, 0.75, -0.75, 0, 1427.317544, 66.765377)" fill="none" stroke-linejoin="miter" d="M 0.000331005 6.001517 L 338.083681 6.001517 " stroke="#ffffff" stroke-width="12" stroke-opacity="1" stroke-miterlimit="4"/><g fill="#ffffff" fill-opacity="1"><g transform="translate(1392.737286, 419.377792)"><g><path d="M 4.109375 -14.4375 C 6.492188 -16.332031 7.582031 -17.207031 7.375 -17.0625 C 14.257812 -22.75 19.6875 -27.414062 23.65625 -31.0625 C 27.625 -34.71875 30.972656 -38.546875 33.703125 -42.546875 C 36.441406 -46.554688 37.8125 -50.457031 37.8125 -54.25 C 37.8125 -57.132812 37.144531 -59.382812 35.8125 -61 C 34.476562 -62.613281 32.476562 -63.421875 29.8125 -63.421875 C 27.144531 -63.421875 25.054688 -62.414062 23.546875 -60.40625 C 22.035156 -58.40625 21.28125 -55.582031 21.28125 -51.9375 L 3.890625 -51.9375 C 4.035156 -57.90625 5.316406 -62.890625 7.734375 -66.890625 C 10.160156 -70.890625 13.359375 -73.835938 17.328125 -75.734375 C 21.296875 -77.640625 25.703125 -78.59375 30.546875 -78.59375 C 38.898438 -78.59375 45.203125 -76.445312 49.453125 -72.15625 C 53.703125 -67.875 55.828125 -62.289062 55.828125 -55.40625 C 55.828125 -47.894531 53.265625 -40.925781 48.140625 -34.5 C 43.015625 -28.070312 36.484375 -21.804688 28.546875 -15.703125 L 56.984375 -15.703125 L 56.984375 -1.046875 L 4.109375 -1.046875 Z M 4.109375 -14.4375 "/></g></g></g><g fill="#ffffff" fill-opacity="1"><g transform="translate(1388.471662, 513.877788)"><g><path d="M 4.734375 -39.5 C 4.734375 -51.582031 7.066406 -61.097656 11.734375 -68.046875 C 16.410156 -75.003906 23.945312 -78.484375 34.34375 -78.484375 C 44.738281 -78.484375 52.269531 -75.003906 56.9375 -68.046875 C 61.601562 -61.097656 63.9375 -51.582031 63.9375 -39.5 C 63.9375 -27.28125 61.601562 -17.691406 56.9375 -10.734375 C 52.269531 -3.785156 44.738281 -0.3125 34.34375 -0.3125 C 23.945312 -0.3125 16.410156 -3.785156 11.734375 -10.734375 C 7.066406 -17.691406 4.734375 -27.28125 4.734375 -39.5 Z M 46.25 -39.5 C 46.25 -46.59375 45.472656 -52.050781 43.921875 -55.875 C 42.378906 -59.707031 39.1875 -61.625 34.34375 -61.625 C 29.5 -61.625 26.300781 -59.707031 24.75 -55.875 C 23.207031 -52.050781 22.4375 -46.59375 22.4375 -39.5 C 22.4375 -34.726562 22.71875 -30.78125 23.28125 -27.65625 C 23.84375 -24.53125 24.984375 -22 26.703125 -20.0625 C 28.421875 -18.132812 30.96875 -17.171875 34.34375 -17.171875 C 37.71875 -17.171875 40.265625 -18.132812 41.984375 -20.0625 C 43.703125 -22 44.84375 -24.53125 45.40625 -27.65625 C 45.96875 -30.78125 46.25 -34.726562 46.25 -39.5 Z M 46.25 -39.5 "/></g></g></g><g fill="#ffffff" fill-opacity="1"><g transform="translate(1392.737286, 608.377783)"><g><path d="M 4.109375 -14.4375 C 6.492188 -16.332031 7.582031 -17.207031 7.375 -17.0625 C 14.257812 -22.75 19.6875 -27.414062 23.65625 -31.0625 C 27.625 -34.71875 30.972656 -38.546875 33.703125 -42.546875 C 36.441406 -46.554688 37.8125 -50.457031 37.8125 -54.25 C 37.8125 -57.132812 37.144531 -59.382812 35.8125 -61 C 34.476562 -62.613281 32.476562 -63.421875 29.8125 -63.421875 C 27.144531 -63.421875 25.054688 -62.414062 23.546875 -60.40625 C 22.035156 -58.40625 21.28125 -55.582031 21.28125 -51.9375 L 3.890625 -51.9375 C 4.035156 -57.90625 5.316406 -62.890625 7.734375 -66.890625 C 10.160156 -70.890625 13.359375 -73.835938 17.328125 -75.734375 C 21.296875 -77.640625 25.703125 -78.59375 30.546875 -78.59375 C 38.898438 -78.59375 45.203125 -76.445312 49.453125 -72.15625 C 53.703125 -67.875 55.828125 -62.289062 55.828125 -55.40625 C 55.828125 -47.894531 53.265625 -40.925781 48.140625 -34.5 C 43.015625 -28.070312 36.484375 -21.804688 28.546875 -15.703125 L 56.984375 -15.703125 L 56.984375 -1.046875 L 4.109375 -1.046875 Z M 4.109375 -14.4375 "/></g></g></g><g fill="#ffffff" fill-opacity="1"><g transform="translate(1387.159162, 702.877779)"><g><path d="M 5.15625 -13.6875 L 5.15625 -28.234375 L 38.453125 -75.84375 L 58.578125 -75.84375 L 58.578125 -29.28125 L 67.203125 -29.28125 L 67.203125 -13.6875 L 58.578125 -13.6875 L 58.578125 0 L 40.5625 0 L 40.5625 -13.6875 Z M 41.828125 -56.046875 L 24.125 -29.28125 L 41.828125 -29.28125 Z M 41.828125 -56.046875 "/></g></g></g><g fill="#ffffff" fill-opacity="1"><g transform="translate(41.520409, 221.828478)"><g><path d="M 34.859375 0.421875 C 29.128906 0.421875 23.972656 -0.851562 19.390625 -3.40625 C 14.804688 -5.96875 11.191406 -9.5 8.546875 -14 C 5.910156 -18.507812 4.59375 -23.570312 4.59375 -29.1875 C 4.59375 -34.800781 5.910156 -39.859375 8.546875 -44.359375 C 11.191406 -48.867188 14.804688 -52.398438 19.390625 -54.953125 C 23.972656 -57.515625 29.128906 -58.796875 34.859375 -58.796875 C 39.078125 -58.796875 42.96875 -58.113281 46.53125 -56.75 C 50.09375 -55.382812 53.125 -53.367188 55.625 -50.703125 L 52.953125 -47.953125 C 48.285156 -52.566406 42.3125 -54.875 35.03125 -54.875 C 30.132812 -54.875 25.679688 -53.757812 21.671875 -51.53125 C 17.671875 -49.3125 14.53125 -46.238281 12.25 -42.3125 C 9.976562 -38.394531 8.84375 -34.019531 8.84375 -29.1875 C 8.84375 -24.351562 9.976562 -19.972656 12.25 -16.046875 C 14.53125 -12.128906 17.671875 -9.054688 21.671875 -6.828125 C 25.679688 -4.609375 30.132812 -3.5 35.03125 -3.5 C 42.25 -3.5 48.222656 -5.832031 52.953125 -10.5 L 55.625 -7.75 C 53.125 -5.082031 50.078125 -3.050781 46.484375 -1.65625 C 42.898438 -0.269531 39.023438 0.421875 34.859375 0.421875 Z M 34.859375 0.421875 "/></g></g></g><g fill="#ffffff" fill-opacity="1"><g transform="translate(101.223868, 221.828478)"><g><path d="M 25.84375 0.328125 C 21.738281 0.328125 18.03125 -0.613281 14.71875 -2.5 C 11.40625 -4.394531 8.804688 -7.019531 6.921875 -10.375 C 5.035156 -13.738281 4.09375 -17.535156 4.09375 -21.765625 C 4.09375 -25.992188 5.035156 -29.785156 6.921875 -33.140625 C 8.804688 -36.503906 11.40625 -39.128906 14.71875 -41.015625 C 18.03125 -42.910156 21.738281 -43.859375 25.84375 -43.859375 C 29.957031 -43.859375 33.671875 -42.910156 36.984375 -41.015625 C 40.296875 -39.128906 42.894531 -36.503906 44.78125 -33.140625 C 46.664062 -29.785156 47.609375 -25.992188 47.609375 -21.765625 C 47.609375 -17.535156 46.664062 -13.738281 44.78125 -10.375 C 42.894531 -7.019531 40.296875 -4.394531 36.984375 -2.5 C 33.671875 -0.613281 29.957031 0.328125 25.84375 0.328125 Z M 25.84375 -3.421875 C 29.1875 -3.421875 32.175781 -4.195312 34.8125 -5.75 C 37.457031 -7.3125 39.539062 -9.476562 41.0625 -12.25 C 42.59375 -15.03125 43.359375 -18.203125 43.359375 -21.765625 C 43.359375 -25.328125 42.59375 -28.492188 41.0625 -31.265625 C 39.539062 -34.046875 37.457031 -36.210938 34.8125 -37.765625 C 32.175781 -39.328125 29.1875 -40.109375 25.84375 -40.109375 C 22.507812 -40.109375 19.519531 -39.328125 16.875 -37.765625 C 14.238281 -36.210938 12.15625 -34.046875 10.625 -31.265625 C 9.101562 -28.492188 8.34375 -25.328125 8.34375 -21.765625 C 8.34375 -18.203125 9.101562 -15.03125 10.625 -12.25 C 12.15625 -9.476562 14.238281 -7.3125 16.875 -5.75 C 19.519531 -4.195312 22.507812 -3.421875 25.84375 -3.421875 Z M 25.84375 -3.421875 "/></g></g></g><g fill="#ffffff" fill-opacity="1"><g transform="translate(152.922386, 221.828478)"><g><path d="M 30.109375 -43.859375 C 35.554688 -43.859375 39.863281 -42.273438 43.03125 -39.109375 C 46.195312 -35.941406 47.78125 -31.382812 47.78125 -25.4375 L 47.78125 0 L 43.609375 0 L 43.609375 -25.09375 C 43.609375 -29.988281 42.367188 -33.710938 39.890625 -36.265625 C 37.421875 -38.828125 33.960938 -40.109375 29.515625 -40.109375 C 24.398438 -40.109375 20.367188 -38.578125 17.421875 -35.515625 C 14.484375 -32.460938 13.015625 -28.351562 13.015625 -23.1875 L 13.015625 0 L 8.84375 0 L 8.84375 -43.53125 L 12.84375 -43.53125 L 12.84375 -34.109375 C 14.34375 -37.160156 16.578125 -39.546875 19.546875 -41.265625 C 22.523438 -42.992188 26.046875 -43.859375 30.109375 -43.859375 Z M 30.109375 -43.859375 "/></g></g></g><g fill="#ffffff" fill-opacity="1"><g transform="translate(209.040296, 221.828478)"><g><path d="M 21.9375 -58.625 C 16.488281 -58.625 13.765625 -55.707031 13.765625 -49.875 L 13.765625 -43.53125 L 27.6875 -43.53125 L 27.6875 -39.9375 L 13.84375 -39.9375 L 13.84375 0 L 9.671875 0 L 9.671875 -39.9375 L 1.671875 -39.9375 L 1.671875 -43.53125 L 9.671875 -43.53125 L 9.671875 -50.203125 C 9.671875 -53.867188 10.726562 -56.785156 12.84375 -58.953125 C 14.957031 -61.117188 17.929688 -62.203125 21.765625 -62.203125 C 23.429688 -62.203125 25.03125 -61.96875 26.5625 -61.5 C 28.09375 -61.03125 29.359375 -60.320312 30.359375 -59.375 L 28.6875 -56.203125 C 26.90625 -57.816406 24.65625 -58.625 21.9375 -58.625 Z M 21.9375 -58.625 "/></g></g></g><g fill="#ffffff" fill-opacity="1"><g transform="translate(236.390484, 221.828478)"><g><path d="M 45.609375 -20.765625 L 8.171875 -20.765625 C 8.285156 -17.367188 9.144531 -14.347656 10.75 -11.703125 C 12.363281 -9.066406 14.546875 -7.023438 17.296875 -5.578125 C 20.054688 -4.140625 23.160156 -3.421875 26.609375 -3.421875 C 29.441406 -3.421875 32.066406 -3.929688 34.484375 -4.953125 C 36.898438 -5.984375 38.914062 -7.5 40.53125 -9.5 L 42.953125 -6.75 C 41.054688 -4.46875 38.675781 -2.71875 35.8125 -1.5 C 32.945312 -0.28125 29.847656 0.328125 26.515625 0.328125 C 22.179688 0.328125 18.316406 -0.613281 14.921875 -2.5 C 11.535156 -4.394531 8.882812 -7.007812 6.96875 -10.34375 C 5.050781 -13.675781 4.09375 -17.484375 4.09375 -21.765625 C 4.09375 -25.992188 4.992188 -29.785156 6.796875 -33.140625 C 8.597656 -36.503906 11.082031 -39.128906 14.25 -41.015625 C 17.425781 -42.910156 20.988281 -43.859375 24.9375 -43.859375 C 28.882812 -43.859375 32.425781 -42.925781 35.5625 -41.0625 C 38.707031 -39.207031 41.179688 -36.609375 42.984375 -33.265625 C 44.796875 -29.929688 45.703125 -26.15625 45.703125 -21.9375 Z M 24.9375 -40.1875 C 21.875 -40.1875 19.117188 -39.503906 16.671875 -38.140625 C 14.234375 -36.785156 12.273438 -34.867188 10.796875 -32.390625 C 9.328125 -29.921875 8.476562 -27.128906 8.25 -24.015625 L 41.609375 -24.015625 C 41.441406 -27.128906 40.609375 -29.910156 39.109375 -32.359375 C 37.609375 -34.804688 35.632812 -36.722656 33.1875 -38.109375 C 30.738281 -39.492188 27.988281 -40.1875 24.9375 -40.1875 Z M 24.9375 -40.1875 "/></g></g></g><g fill="#ffffff" fill-opacity="1"><g transform="translate(286.171153, 221.828478)"><g><path d="M 12.84375 -34.015625 C 14.175781 -37.191406 16.257812 -39.625 19.09375 -41.3125 C 21.925781 -43.007812 25.375 -43.859375 29.4375 -43.859375 L 29.4375 -39.78125 L 28.4375 -39.859375 C 23.601562 -39.859375 19.820312 -38.34375 17.09375 -35.3125 C 14.375 -32.28125 13.015625 -28.070312 13.015625 -22.6875 L 13.015625 0 L 8.84375 0 L 8.84375 -43.53125 L 12.84375 -43.53125 Z M 12.84375 -34.015625 "/></g></g></g><g fill="#ffffff" fill-opacity="1"><g transform="translate(319.024739, 221.828478)"><g><path d="M 45.609375 -20.765625 L 8.171875 -20.765625 C 8.285156 -17.367188 9.144531 -14.347656 10.75 -11.703125 C 12.363281 -9.066406 14.546875 -7.023438 17.296875 -5.578125 C 20.054688 -4.140625 23.160156 -3.421875 26.609375 -3.421875 C 29.441406 -3.421875 32.066406 -3.929688 34.484375 -4.953125 C 36.898438 -5.984375 38.914062 -7.5 40.53125 -9.5 L 42.953125 -6.75 C 41.054688 -4.46875 38.675781 -2.71875 35.8125 -1.5 C 32.945312 -0.28125 29.847656 0.328125 26.515625 0.328125 C 22.179688 0.328125 18.316406 -0.613281 14.921875 -2.5 C 11.535156 -4.394531 8.882812 -7.007812 6.96875 -10.34375 C 5.050781 -13.675781 4.09375 -17.484375 4.09375 -21.765625 C 4.09375 -25.992188 4.992188 -29.785156 6.796875 -33.140625 C 8.597656 -36.503906 11.082031 -39.128906 14.25 -41.015625 C 17.425781 -42.910156 20.988281 -43.859375 24.9375 -43.859375 C 28.882812 -43.859375 32.425781 -42.925781 35.5625 -41.0625 C 38.707031 -39.207031 41.179688 -36.609375 42.984375 -33.265625 C 44.796875 -29.929688 45.703125 -26.15625 45.703125 -21.9375 Z M 24.9375 -40.1875 C 21.875 -40.1875 19.117188 -39.503906 16.671875 -38.140625 C 14.234375 -36.785156 12.273438 -34.867188 10.796875 -32.390625 C 9.328125 -29.921875 8.476562 -27.128906 8.25 -24.015625 L 41.609375 -24.015625 C 41.441406 -27.128906 40.609375 -29.910156 39.109375 -32.359375 C 37.609375 -34.804688 35.632812 -36.722656 33.1875 -38.109375 C 30.738281 -39.492188 27.988281 -40.1875 24.9375 -40.1875 Z M 24.9375 -40.1875 "/></g></g></g><g fill="#ffffff" fill-opacity="1"><g transform="translate(368.805408, 221.828478)"><g><path d="M 30.109375 -43.859375 C 35.554688 -43.859375 39.863281 -42.273438 43.03125 -39.109375 C 46.195312 -35.941406 47.78125 -31.382812 47.78125 -25.4375 L 47.78125 0 L 43.609375 0 L 43.609375 -25.09375 C 43.609375 -29.988281 42.367188 -33.710938 39.890625 -36.265625 C 37.421875 -38.828125 33.960938 -40.109375 29.515625 -40.109375 C 24.398438 -40.109375 20.367188 -38.578125 17.421875 -35.515625 C 14.484375 -32.460938 13.015625 -28.351562 13.015625 -23.1875 L 13.015625 0 L 8.84375 0 L 8.84375 -43.53125 L 12.84375 -43.53125 L 12.84375 -34.109375 C 14.34375 -37.160156 16.578125 -39.546875 19.546875 -41.265625 C 22.523438 -42.992188 26.046875 -43.859375 30.109375 -43.859375 Z M 30.109375 -43.859375 "/></g></g></g><g fill="#ffffff" fill-opacity="1"><g transform="translate(424.923318, 221.828478)"><g><path d="M 26.09375 0.328125 C 21.875 0.328125 18.09375 -0.613281 14.75 -2.5 C 11.414062 -4.394531 8.804688 -7.019531 6.921875 -10.375 C 5.035156 -13.738281 4.09375 -17.535156 4.09375 -21.765625 C 4.09375 -26.046875 5.035156 -29.867188 6.921875 -33.234375 C 8.804688 -36.597656 11.414062 -39.207031 14.75 -41.0625 C 18.09375 -42.925781 21.875 -43.859375 26.09375 -43.859375 C 29.601562 -43.859375 32.785156 -43.175781 35.640625 -41.8125 C 38.503906 -40.457031 40.828125 -38.472656 42.609375 -35.859375 L 39.53125 -33.609375 C 37.96875 -35.773438 36.03125 -37.398438 33.71875 -38.484375 C 31.414062 -39.566406 28.875 -40.109375 26.09375 -40.109375 C 22.707031 -40.109375 19.664062 -39.34375 16.96875 -37.8125 C 14.269531 -36.289062 12.15625 -34.140625 10.625 -31.359375 C 9.101562 -28.578125 8.34375 -25.378906 8.34375 -21.765625 C 8.34375 -18.148438 9.101562 -14.953125 10.625 -12.171875 C 12.15625 -9.390625 14.269531 -7.234375 16.96875 -5.703125 C 19.664062 -4.179688 22.707031 -3.421875 26.09375 -3.421875 C 28.875 -3.421875 31.414062 -3.960938 33.71875 -5.046875 C 36.03125 -6.128906 37.96875 -7.753906 39.53125 -9.921875 L 42.609375 -7.671875 C 40.828125 -5.054688 38.503906 -3.066406 35.640625 -1.703125 C 32.785156 -0.347656 29.601562 0.328125 26.09375 0.328125 Z M 26.09375 0.328125 "/></g></g></g><g fill="#ffffff" fill-opacity="1"><g transform="translate(471.20184, 221.828478)"><g><path d="M 45.609375 -20.765625 L 8.171875 -20.765625 C 8.285156 -17.367188 9.144531 -14.347656 10.75 -11.703125 C 12.363281 -9.066406 14.546875 -7.023438 17.296875 -5.578125 C 20.054688 -4.140625 23.160156 -3.421875 26.609375 -3.421875 C 29.441406 -3.421875 32.066406 -3.929688 34.484375 -4.953125 C 36.898438 -5.984375 38.914062 -7.5 40.53125 -9.5 L 42.953125 -6.75 C 41.054688 -4.46875 38.675781 -2.71875 35.8125 -1.5 C 32.945312 -0.28125 29.847656 0.328125 26.515625 0.328125 C 22.179688 0.328125 18.316406 -0.613281 14.921875 -2.5 C 11.535156 -4.394531 8.882812 -7.007812 6.96875 -10.34375 C 5.050781 -13.675781 4.09375 -17.484375 4.09375 -21.765625 C 4.09375 -25.992188 4.992188 -29.785156 6.796875 -33.140625 C 8.597656 -36.503906 11.082031 -39.128906 14.25 -41.015625 C 17.425781 -42.910156 20.988281 -43.859375 24.9375 -43.859375 C 28.882812 -43.859375 32.425781 -42.925781 35.5625 -41.0625 C 38.707031 -39.207031 41.179688 -36.609375 42.984375 -33.265625 C 44.796875 -29.929688 45.703125 -26.15625 45.703125 -21.9375 Z M 24.9375 -40.1875 C 21.875 -40.1875 19.117188 -39.503906 16.671875 -38.140625 C 14.234375 -36.785156 12.273438 -34.867188 10.796875 -32.390625 C 9.328125 -29.921875 8.476562 -27.128906 8.25 -24.015625 L 41.609375 -24.015625 C 41.441406 -27.128906 40.609375 -29.910156 39.109375 -32.359375 C 37.609375 -34.804688 35.632812 -36.722656 33.1875 -38.109375 C 30.738281 -39.492188 27.988281 -40.1875 24.9375 -40.1875 Z M 24.9375 -40.1875 "/></g></g></g><g fill="#ffffff" fill-opacity="1"><g transform="translate(520.982537, 221.828478)"><g/></g></g><g fill="#ffffff" fill-opacity="1"><g transform="translate(542.412398, 221.828478)"><g><path d="M 25.84375 0.328125 C 21.738281 0.328125 18.03125 -0.613281 14.71875 -2.5 C 11.40625 -4.394531 8.804688 -7.019531 6.921875 -10.375 C 5.035156 -13.738281 4.09375 -17.535156 4.09375 -21.765625 C 4.09375 -25.992188 5.035156 -29.785156 6.921875 -33.140625 C 8.804688 -36.503906 11.40625 -39.128906 14.71875 -41.015625 C 18.03125 -42.910156 21.738281 -43.859375 25.84375 -43.859375 C 29.957031 -43.859375 33.671875 -42.910156 36.984375 -41.015625 C 40.296875 -39.128906 42.894531 -36.503906 44.78125 -33.140625 C 46.664062 -29.785156 47.609375 -25.992188 47.609375 -21.765625 C 47.609375 -17.535156 46.664062 -13.738281 44.78125 -10.375 C 42.894531 -7.019531 40.296875 -4.394531 36.984375 -2.5 C 33.671875 -0.613281 29.957031 0.328125 25.84375 0.328125 Z M 25.84375 -3.421875 C 29.1875 -3.421875 32.175781 -4.195312 34.8125 -5.75 C 37.457031 -7.3125 39.539062 -9.476562 41.0625 -12.25 C 42.59375 -15.03125 43.359375 -18.203125 43.359375 -21.765625 C 43.359375 -25.328125 42.59375 -28.492188 41.0625 -31.265625 C 39.539062 -34.046875 37.457031 -36.210938 34.8125 -37.765625 C 32.175781 -39.328125 29.1875 -40.109375 25.84375 -40.109375 C 22.507812 -40.109375 19.519531 -39.328125 16.875 -37.765625 C 14.238281 -36.210938 12.15625 -34.046875 10.625 -31.265625 C 9.101562 -28.492188 8.34375 -25.328125 8.34375 -21.765625 C 8.34375 -18.203125 9.101562 -15.03125 10.625 -12.25 C 12.15625 -9.476562 14.238281 -7.3125 16.875 -5.75 C 19.519531 -4.195312 22.507812 -3.421875 25.84375 -3.421875 Z M 25.84375 -3.421875 "/></g></g></g><g fill="#ffffff" fill-opacity="1"><g transform="translate(594.110931, 221.828478)"><g><path d="M 21.9375 -58.625 C 16.488281 -58.625 13.765625 -55.707031 13.765625 -49.875 L 13.765625 -43.53125 L 27.6875 -43.53125 L 27.6875 -39.9375 L 13.84375 -39.9375 L 13.84375 0 L 9.671875 0 L 9.671875 -39.9375 L 1.671875 -39.9375 L 1.671875 -43.53125 L 9.671875 -43.53125 L 9.671875 -50.203125 C 9.671875 -53.867188 10.726562 -56.785156 12.84375 -58.953125 C 14.957031 -61.117188 17.929688 -62.203125 21.765625 -62.203125 C 23.429688 -62.203125 25.03125 -61.96875 26.5625 -61.5 C 28.09375 -61.03125 29.359375 -60.320312 30.359375 -59.375 L 28.6875 -56.203125 C 26.90625 -57.816406 24.65625 -58.625 21.9375 -58.625 Z M 21.9375 -58.625 "/></g></g></g><g fill="#ffffff" fill-opacity="1"><g transform="translate(621.461106, 221.828478)"><g/></g></g><g fill="#ffffff" fill-opacity="1"><g transform="translate(642.890967, 221.828478)"><g><path d="M 10.171875 -58.375 L 33.265625 -58.375 C 39.328125 -58.375 44.707031 -57.125 49.40625 -54.625 C 54.101562 -52.125 57.757812 -48.660156 60.375 -44.234375 C 62.988281 -39.816406 64.296875 -34.800781 64.296875 -29.1875 C 64.296875 -23.570312 62.988281 -18.550781 60.375 -14.125 C 57.757812 -9.707031 54.101562 -6.25 49.40625 -3.75 C 44.707031 -1.25 39.328125 0 33.265625 0 L 10.171875 0 Z M 32.9375 -3.84375 C 38.332031 -3.84375 43.085938 -4.910156 47.203125 -7.046875 C 51.316406 -9.179688 54.484375 -12.164062 56.703125 -16 C 58.929688 -19.84375 60.046875 -24.238281 60.046875 -29.1875 C 60.046875 -34.132812 58.929688 -38.523438 56.703125 -42.359375 C 54.484375 -46.191406 51.316406 -49.175781 47.203125 -51.3125 C 43.085938 -53.457031 38.332031 -54.53125 32.9375 -54.53125 L 14.421875 -54.53125 L 14.421875 -3.84375 Z M 32.9375 -3.84375 "/></g></g></g><g fill="#ffffff" fill-opacity="1"><g transform="translate(711.766761, 221.828478)"><g><path d="M 8.84375 -43.53125 L 13.015625 -43.53125 L 13.015625 0 L 8.84375 0 Z M 10.921875 -54.125 C 9.972656 -54.125 9.164062 -54.441406 8.5 -55.078125 C 7.832031 -55.710938 7.5 -56.503906 7.5 -57.453125 C 7.5 -58.398438 7.832031 -59.207031 8.5 -59.875 C 9.164062 -60.539062 9.972656 -60.875 10.921875 -60.875 C 11.867188 -60.875 12.675781 -60.550781 13.34375 -59.90625 C 14.007812 -59.269531 14.34375 -58.484375 14.34375 -57.546875 C 14.34375 -56.597656 14.007812 -55.789062 13.34375 -55.125 C 12.675781 -54.457031 11.867188 -54.125 10.921875 -54.125 Z M 10.921875 -54.125 "/></g></g></g><g fill="#ffffff" fill-opacity="1"><g transform="translate(733.530176, 221.828478)"><g><path d="M 12.84375 -34.015625 C 14.175781 -37.191406 16.257812 -39.625 19.09375 -41.3125 C 21.925781 -43.007812 25.375 -43.859375 29.4375 -43.859375 L 29.4375 -39.78125 L 28.4375 -39.859375 C 23.601562 -39.859375 19.820312 -38.34375 17.09375 -35.3125 C 14.375 -32.28125 13.015625 -28.070312 13.015625 -22.6875 L 13.015625 0 L 8.84375 0 L 8.84375 -43.53125 L 12.84375 -43.53125 Z M 12.84375 -34.015625 "/></g></g></g><g fill="#ffffff" fill-opacity="1"><g transform="translate(766.383735, 221.828478)"><g><path d="M 45.609375 -20.765625 L 8.171875 -20.765625 C 8.285156 -17.367188 9.144531 -14.347656 10.75 -11.703125 C 12.363281 -9.066406 14.546875 -7.023438 17.296875 -5.578125 C 20.054688 -4.140625 23.160156 -3.421875 26.609375 -3.421875 C 29.441406 -3.421875 32.066406 -3.929688 34.484375 -4.953125 C 36.898438 -5.984375 38.914062 -7.5 40.53125 -9.5 L 42.953125 -6.75 C 41.054688 -4.46875 38.675781 -2.71875 35.8125 -1.5 C 32.945312 -0.28125 29.847656 0.328125 26.515625 0.328125 C 22.179688 0.328125 18.316406 -0.613281 14.921875 -2.5 C 11.535156 -4.394531 8.882812 -7.007812 6.96875 -10.34375 C 5.050781 -13.675781 4.09375 -17.484375 4.09375 -21.765625 C 4.09375 -25.992188 4.992188 -29.785156 6.796875 -33.140625 C 8.597656 -36.503906 11.082031 -39.128906 14.25 -41.015625 C 17.425781 -42.910156 20.988281 -43.859375 24.9375 -43.859375 C 28.882812 -43.859375 32.425781 -42.925781 35.5625 -41.0625 C 38.707031 -39.207031 41.179688 -36.609375 42.984375 -33.265625 C 44.796875 -29.929688 45.703125 -26.15625 45.703125 -21.9375 Z M 24.9375 -40.1875 C 21.875 -40.1875 19.117188 -39.503906 16.671875 -38.140625 C 14.234375 -36.785156 12.273438 -34.867188 10.796875 -32.390625 C 9.328125 -29.921875 8.476562 -27.128906 8.25 -24.015625 L 41.609375 -24.015625 C 41.441406 -27.128906 40.609375 -29.910156 39.109375 -32.359375 C 37.609375 -34.804688 35.632812 -36.722656 33.1875 -38.109375 C 30.738281 -39.492188 27.988281 -40.1875 24.9375 -40.1875 Z M 24.9375 -40.1875 "/></g></g></g><g fill="#ffffff" fill-opacity="1"><g transform="translate(816.164432, 221.828478)"><g><path d="M 26.09375 0.328125 C 21.875 0.328125 18.09375 -0.613281 14.75 -2.5 C 11.414062 -4.394531 8.804688 -7.019531 6.921875 -10.375 C 5.035156 -13.738281 4.09375 -17.535156 4.09375 -21.765625 C 4.09375 -26.046875 5.035156 -29.867188 6.921875 -33.234375 C 8.804688 -36.597656 11.414062 -39.207031 14.75 -41.0625 C 18.09375 -42.925781 21.875 -43.859375 26.09375 -43.859375 C 29.601562 -43.859375 32.785156 -43.175781 35.640625 -41.8125 C 38.503906 -40.457031 40.828125 -38.472656 42.609375 -35.859375 L 39.53125 -33.609375 C 37.96875 -35.773438 36.03125 -37.398438 33.71875 -38.484375 C 31.414062 -39.566406 28.875 -40.109375 26.09375 -40.109375 C 22.707031 -40.109375 19.664062 -39.34375 16.96875 -37.8125 C 14.269531 -36.289062 12.15625 -34.140625 10.625 -31.359375 C 9.101562 -28.578125 8.34375 -25.378906 8.34375 -21.765625 C 8.34375 -18.148438 9.101562 -14.953125 10.625 -12.171875 C 12.15625 -9.390625 14.269531 -7.234375 16.96875 -5.703125 C 19.664062 -4.179688 22.707031 -3.421875 26.09375 -3.421875 C 28.875 -3.421875 31.414062 -3.960938 33.71875 -5.046875 C 36.03125 -6.128906 37.96875 -7.753906 39.53125 -9.921875 L 42.609375 -7.671875 C 40.828125 -5.054688 38.503906 -3.066406 35.640625 -1.703125 C 32.785156 -0.347656 29.601562 0.328125 26.09375 0.328125 Z M 26.09375 0.328125 "/></g></g></g><g fill="#ffffff" fill-opacity="1"><g transform="translate(862.442954, 221.828478)"><g><path d="M 30.4375 -2.75 C 29.382812 -1.75 28.0625 -0.984375 26.46875 -0.453125 C 24.882812 0.0664062 23.234375 0.328125 21.515625 0.328125 C 17.734375 0.328125 14.8125 -0.710938 12.75 -2.796875 C 10.695312 -4.878906 9.671875 -7.785156 9.671875 -11.515625 L 9.671875 -39.9375 L 1.671875 -39.9375 L 1.671875 -43.53125 L 9.671875 -43.53125 L 9.671875 -53.03125 L 13.84375 -53.03125 L 13.84375 -43.53125 L 27.6875 -43.53125 L 27.6875 -39.9375 L 13.84375 -39.9375 L 13.84375 -11.921875 C 13.84375 -9.085938 14.519531 -6.929688 15.875 -5.453125 C 17.238281 -3.984375 19.257812 -3.25 21.9375 -3.25 C 24.65625 -3.25 26.90625 -4.054688 28.6875 -5.671875 Z M 30.4375 -2.75 "/></g></g></g><g fill="#ffffff" fill-opacity="1"><g transform="translate(895.630066, 221.828478)"><g><path d="M 25.84375 0.328125 C 21.738281 0.328125 18.03125 -0.613281 14.71875 -2.5 C 11.40625 -4.394531 8.804688 -7.019531 6.921875 -10.375 C 5.035156 -13.738281 4.09375 -17.535156 4.09375 -21.765625 C 4.09375 -25.992188 5.035156 -29.785156 6.921875 -33.140625 C 8.804688 -36.503906 11.40625 -39.128906 14.71875 -41.015625 C 18.03125 -42.910156 21.738281 -43.859375 25.84375 -43.859375 C 29.957031 -43.859375 33.671875 -42.910156 36.984375 -41.015625 C 40.296875 -39.128906 42.894531 -36.503906 44.78125 -33.140625 C 46.664062 -29.785156 47.609375 -25.992188 47.609375 -21.765625 C 47.609375 -17.535156 46.664062 -13.738281 44.78125 -10.375 C 42.894531 -7.019531 40.296875 -4.394531 36.984375 -2.5 C 33.671875 -0.613281 29.957031 0.328125 25.84375 0.328125 Z M 25.84375 -3.421875 C 29.1875 -3.421875 32.175781 -4.195312 34.8125 -5.75 C 37.457031 -7.3125 39.539062 -9.476562 41.0625 -12.25 C 42.59375 -15.03125 43.359375 -18.203125 43.359375 -21.765625 C 43.359375 -25.328125 42.59375 -28.492188 41.0625 -31.265625 C 39.539062 -34.046875 37.457031 -36.210938 34.8125 -37.765625 C 32.175781 -39.328125 29.1875 -40.109375 25.84375 -40.109375 C 22.507812 -40.109375 19.519531 -39.328125 16.875 -37.765625 C 14.238281 -36.210938 12.15625 -34.046875 10.625 -31.265625 C 9.101562 -28.492188 8.34375 -25.328125 8.34375 -21.765625 C 8.34375 -18.203125 9.101562 -15.03125 10.625 -12.25 C 12.15625 -9.476562 14.238281 -7.3125 16.875 -5.75 C 19.519531 -4.195312 22.507812 -3.421875 25.84375 -3.421875 Z M 25.84375 -3.421875 "/></g></g></g><g fill="#ffffff" fill-opacity="1"><g transform="translate(947.3286, 221.828478)"><g><path d="M 12.84375 -34.015625 C 14.175781 -37.191406 16.257812 -39.625 19.09375 -41.3125 C 21.925781 -43.007812 25.375 -43.859375 29.4375 -43.859375 L 29.4375 -39.78125 L 28.4375 -39.859375 C 23.601562 -39.859375 19.820312 -38.34375 17.09375 -35.3125 C 14.375 -32.28125 13.015625 -28.070312 13.015625 -22.6875 L 13.015625 0 L 8.84375 0 L 8.84375 -43.53125 L 12.84375 -43.53125 Z M 12.84375 -34.015625 "/></g></g></g><g fill="#ffffff" fill-opacity="1"><g transform="translate(980.182158, 221.828478)"><g><path d="M 19.84375 0.328125 C 16.34375 0.328125 13.007812 -0.195312 9.84375 -1.25 C 6.675781 -2.300781 4.203125 -3.632812 2.421875 -5.25 L 4.34375 -8.59375 C 6.113281 -7.09375 8.398438 -5.835938 11.203125 -4.828125 C 14.015625 -3.828125 16.953125 -3.328125 20.015625 -3.328125 C 24.410156 -3.328125 27.648438 -4.050781 29.734375 -5.5 C 31.816406 -6.945312 32.859375 -8.953125 32.859375 -11.515625 C 32.859375 -13.347656 32.285156 -14.789062 31.140625 -15.84375 C 30.003906 -16.894531 28.601562 -17.671875 26.9375 -18.171875 C 25.269531 -18.679688 22.960938 -19.210938 20.015625 -19.765625 C 16.566406 -20.378906 13.785156 -21.046875 11.671875 -21.765625 C 9.554688 -22.484375 7.75 -23.648438 6.25 -25.265625 C 4.75 -26.878906 4 -29.101562 4 -31.9375 C 4 -35.382812 5.429688 -38.234375 8.296875 -40.484375 C 11.160156 -42.734375 15.234375 -43.859375 20.515625 -43.859375 C 23.296875 -43.859375 26.046875 -43.46875 28.765625 -42.6875 C 31.492188 -41.914062 33.71875 -40.890625 35.4375 -39.609375 L 33.515625 -36.28125 C 31.742188 -37.550781 29.71875 -38.519531 27.4375 -39.1875 C 25.15625 -39.851562 22.820312 -40.1875 20.4375 -40.1875 C 16.375 -40.1875 13.3125 -39.4375 11.25 -37.9375 C 9.195312 -36.4375 8.171875 -34.460938 8.171875 -32.015625 C 8.171875 -30.078125 8.753906 -28.5625 9.921875 -27.46875 C 11.085938 -26.382812 12.519531 -25.578125 14.21875 -25.046875 C 15.914062 -24.523438 18.289062 -23.957031 21.34375 -23.34375 C 24.738281 -22.738281 27.476562 -22.085938 29.5625 -21.390625 C 31.644531 -20.691406 33.410156 -19.5625 34.859375 -18 C 36.304688 -16.445312 37.03125 -14.3125 37.03125 -11.59375 C 37.03125 -7.976562 35.523438 -5.085938 32.515625 -2.921875 C 29.515625 -0.753906 25.289062 0.328125 19.84375 0.328125 Z M 19.84375 0.328125 "/></g></g></g><g fill="#ffffff" fill-opacity="1"><g transform="translate(1020.040065, 221.828478)"><g/></g></g><g fill="#ffffff" fill-opacity="1"><g transform="translate(1041.469926, 221.828478)"><g><path d="M 51.875 -28.9375 L 55.953125 -28.9375 L 55.953125 -7.09375 C 53.398438 -4.644531 50.300781 -2.78125 46.65625 -1.5 C 43.007812 -0.21875 39.160156 0.421875 35.109375 0.421875 C 29.328125 0.421875 24.113281 -0.851562 19.46875 -3.40625 C 14.832031 -5.96875 11.191406 -9.5 8.546875 -14 C 5.910156 -18.507812 4.59375 -23.570312 4.59375 -29.1875 C 4.59375 -34.800781 5.910156 -39.859375 8.546875 -44.359375 C 11.191406 -48.867188 14.832031 -52.398438 19.46875 -54.953125 C 24.113281 -57.515625 29.351562 -58.796875 35.1875 -58.796875 C 39.46875 -58.796875 43.398438 -58.113281 46.984375 -56.75 C 50.578125 -55.382812 53.648438 -53.394531 56.203125 -50.78125 L 53.53125 -47.953125 C 51.09375 -50.398438 48.359375 -52.164062 45.328125 -53.25 C 42.296875 -54.332031 38.945312 -54.875 35.28125 -54.875 C 30.269531 -54.875 25.75 -53.757812 21.71875 -51.53125 C 17.6875 -49.3125 14.53125 -46.238281 12.25 -42.3125 C 9.976562 -38.394531 8.84375 -34.019531 8.84375 -29.1875 C 8.84375 -24.40625 9.992188 -20.050781 12.296875 -16.125 C 14.609375 -12.207031 17.765625 -9.125 21.765625 -6.875 C 25.765625 -4.625 30.269531 -3.5 35.28125 -3.5 C 41.945312 -3.5 47.476562 -5.28125 51.875 -8.84375 Z M 51.875 -28.9375 "/></g></g></g><g fill="#ffffff" fill-opacity="1"><g transform="translate(1105.926258, 221.828478)"><g><path d="M 45.609375 -20.765625 L 8.171875 -20.765625 C 8.285156 -17.367188 9.144531 -14.347656 10.75 -11.703125 C 12.363281 -9.066406 14.546875 -7.023438 17.296875 -5.578125 C 20.054688 -4.140625 23.160156 -3.421875 26.609375 -3.421875 C 29.441406 -3.421875 32.066406 -3.929688 34.484375 -4.953125 C 36.898438 -5.984375 38.914062 -7.5 40.53125 -9.5 L 42.953125 -6.75 C 41.054688 -4.46875 38.675781 -2.71875 35.8125 -1.5 C 32.945312 -0.28125 29.847656 0.328125 26.515625 0.328125 C 22.179688 0.328125 18.316406 -0.613281 14.921875 -2.5 C 11.535156 -4.394531 8.882812 -7.007812 6.96875 -10.34375 C 5.050781 -13.675781 4.09375 -17.484375 4.09375 -21.765625 C 4.09375 -25.992188 4.992188 -29.785156 6.796875 -33.140625 C 8.597656 -36.503906 11.082031 -39.128906 14.25 -41.015625 C 17.425781 -42.910156 20.988281 -43.859375 24.9375 -43.859375 C 28.882812 -43.859375 32.425781 -42.925781 35.5625 -41.0625 C 38.707031 -39.207031 41.179688 -36.609375 42.984375 -33.265625 C 44.796875 -29.929688 45.703125 -26.15625 45.703125 -21.9375 Z M 24.9375 -40.1875 C 21.875 -40.1875 19.117188 -39.503906 16.671875 -38.140625 C 14.234375 -36.785156 12.273438 -34.867188 10.796875 -32.390625 C 9.328125 -29.921875 8.476562 -27.128906 8.25 -24.015625 L 41.609375 -24.015625 C 41.441406 -27.128906 40.609375 -29.910156 39.109375 -32.359375 C 37.609375 -34.804688 35.632812 -36.722656 33.1875 -38.109375 C 30.738281 -39.492188 27.988281 -40.1875 24.9375 -40.1875 Z M 24.9375 -40.1875 "/></g></g></g><g fill="#ffffff" fill-opacity="1"><g transform="translate(1155.706898, 221.828478)"><g><path d="M 30.109375 -43.859375 C 35.554688 -43.859375 39.863281 -42.273438 43.03125 -39.109375 C 46.195312 -35.941406 47.78125 -31.382812 47.78125 -25.4375 L 47.78125 0 L 43.609375 0 L 43.609375 -25.09375 C 43.609375 -29.988281 42.367188 -33.710938 39.890625 -36.265625 C 37.421875 -38.828125 33.960938 -40.109375 29.515625 -40.109375 C 24.398438 -40.109375 20.367188 -38.578125 17.421875 -35.515625 C 14.484375 -32.460938 13.015625 -28.351562 13.015625 -23.1875 L 13.015625 0 L 8.84375 0 L 8.84375 -43.53125 L 12.84375 -43.53125 L 12.84375 -34.109375 C 14.34375 -37.160156 16.578125 -39.546875 19.546875 -41.265625 C 22.523438 -42.992188 26.046875 -43.859375 30.109375 -43.859375 Z M 30.109375 -43.859375 "/></g></g></g><g fill="#ffffff" fill-opacity="1"><g transform="translate(1211.824779, 221.828478)"><g><path d="M 45.609375 -20.765625 L 8.171875 -20.765625 C 8.285156 -17.367188 9.144531 -14.347656 10.75 -11.703125 C 12.363281 -9.066406 14.546875 -7.023438 17.296875 -5.578125 C 20.054688 -4.140625 23.160156 -3.421875 26.609375 -3.421875 C 29.441406 -3.421875 32.066406 -3.929688 34.484375 -4.953125 C 36.898438 -5.984375 38.914062 -7.5 40.53125 -9.5 L 42.953125 -6.75 C 41.054688 -4.46875 38.675781 -2.71875 35.8125 -1.5 C 32.945312 -0.28125 29.847656 0.328125 26.515625 0.328125 C 22.179688 0.328125 18.316406 -0.613281 14.921875 -2.5 C 11.535156 -4.394531 8.882812 -7.007812 6.96875 -10.34375 C 5.050781 -13.675781 4.09375 -17.484375 4.09375 -21.765625 C 4.09375 -25.992188 4.992188 -29.785156 6.796875 -33.140625 C 8.597656 -36.503906 11.082031 -39.128906 14.25 -41.015625 C 17.425781 -42.910156 20.988281 -43.859375 24.9375 -43.859375 C 28.882812 -43.859375 32.425781 -42.925781 35.5625 -41.0625 C 38.707031 -39.207031 41.179688 -36.609375 42.984375 -33.265625 C 44.796875 -29.929688 45.703125 -26.15625 45.703125 -21.9375 Z M 24.9375 -40.1875 C 21.875 -40.1875 19.117188 -39.503906 16.671875 -38.140625 C 14.234375 -36.785156 12.273438 -34.867188 10.796875 -32.390625 C 9.328125 -29.921875 8.476562 -27.128906 8.25 -24.015625 L 41.609375 -24.015625 C 41.441406 -27.128906 40.609375 -29.910156 39.109375 -32.359375 C 37.609375 -34.804688 35.632812 -36.722656 33.1875 -38.109375 C 30.738281 -39.492188 27.988281 -40.1875 24.9375 -40.1875 Z M 24.9375 -40.1875 "/></g></g></g><g fill="#ffffff" fill-opacity="1"><g transform="translate(1261.60542, 221.828478)"><g><path d="M 12.84375 -34.015625 C 14.175781 -37.191406 16.257812 -39.625 19.09375 -41.3125 C 21.925781 -43.007812 25.375 -43.859375 29.4375 -43.859375 L 29.4375 -39.78125 L 28.4375 -39.859375 C 23.601562 -39.859375 19.820312 -38.34375 17.09375 -35.3125 C 14.375 -32.28125 13.015625 -28.070312 13.015625 -22.6875 L 13.015625 0 L 8.84375 0 L 8.84375 -43.53125 L 12.84375 -43.53125 Z M 12.84375 -34.015625 "/></g></g></g><g fill="#ffffff" fill-opacity="1"><g transform="translate(1294.458978, 221.828478)"><g><path d="M 23.515625 -43.859375 C 28.910156 -43.859375 33.050781 -42.484375 35.9375 -39.734375 C 38.832031 -36.984375 40.28125 -32.941406 40.28125 -27.609375 L 40.28125 0 L 36.28125 0 L 36.28125 -7.75 C 34.882812 -5.195312 32.851562 -3.210938 30.1875 -1.796875 C 27.519531 -0.378906 24.320312 0.328125 20.59375 0.328125 C 15.757812 0.328125 11.9375 -0.804688 9.125 -3.078125 C 6.320312 -5.359375 4.921875 -8.363281 4.921875 -12.09375 C 4.921875 -15.707031 6.210938 -18.640625 8.796875 -20.890625 C 11.378906 -23.140625 15.507812 -24.265625 21.1875 -24.265625 L 36.109375 -24.265625 L 36.109375 -27.765625 C 36.109375 -31.828125 35.007812 -34.910156 32.8125 -37.015625 C 30.613281 -39.128906 27.40625 -40.1875 23.1875 -40.1875 C 20.289062 -40.1875 17.519531 -39.6875 14.875 -38.6875 C 12.238281 -37.6875 10.003906 -36.351562 8.171875 -34.6875 L 6.09375 -37.6875 C 8.257812 -39.632812 10.867188 -41.148438 13.921875 -42.234375 C 16.984375 -43.316406 20.179688 -43.859375 23.515625 -43.859375 Z M 21.1875 -3.078125 C 24.800781 -3.078125 27.867188 -3.910156 30.390625 -5.578125 C 32.921875 -7.253906 34.828125 -9.675781 36.109375 -12.84375 L 36.109375 -21.015625 L 21.265625 -21.015625 C 16.984375 -21.015625 13.882812 -20.234375 11.96875 -18.671875 C 10.050781 -17.117188 9.09375 -14.984375 9.09375 -12.265625 C 9.09375 -9.421875 10.144531 -7.175781 12.25 -5.53125 C 14.363281 -3.894531 17.34375 -3.078125 21.1875 -3.078125 Z M 21.1875 -3.078125 "/></g></g></g><g fill="#ffffff" fill-opacity="1"><g transform="translate(1343.072265, 221.828478)"><g><path d="M 8.84375 -61.875 L 13.015625 -61.875 L 13.015625 0 L 8.84375 0 Z M 8.84375 -61.875 "/></g></g></g><g fill="#ffffff" fill-opacity="1"><g transform="translate(41.520409, 329.828473)"><g><path d="M 25.84375 0.328125 C 21.738281 0.328125 18.03125 -0.613281 14.71875 -2.5 C 11.40625 -4.394531 8.804688 -7.019531 6.921875 -10.375 C 5.035156 -13.738281 4.09375 -17.535156 4.09375 -21.765625 C 4.09375 -25.992188 5.035156 -29.785156 6.921875 -33.140625 C 8.804688 -36.503906 11.40625 -39.128906 14.71875 -41.015625 C 18.03125 -42.910156 21.738281 -43.859375 25.84375 -43.859375 C 29.957031 -43.859375 33.671875 -42.910156 36.984375 -41.015625 C 40.296875 -39.128906 42.894531 -36.503906 44.78125 -33.140625 C 46.664062 -29.785156 47.609375 -25.992188 47.609375 -21.765625 C 47.609375 -17.535156 46.664062 -13.738281 44.78125 -10.375 C 42.894531 -7.019531 40.296875 -4.394531 36.984375 -2.5 C 33.671875 -0.613281 29.957031 0.328125 25.84375 0.328125 Z M 25.84375 -3.421875 C 29.1875 -3.421875 32.175781 -4.195312 34.8125 -5.75 C 37.457031 -7.3125 39.539062 -9.476562 41.0625 -12.25 C 42.59375 -15.03125 43.359375 -18.203125 43.359375 -21.765625 C 43.359375 -25.328125 42.59375 -28.492188 41.0625 -31.265625 C 39.539062 -34.046875 37.457031 -36.210938 34.8125 -37.765625 C 32.175781 -39.328125 29.1875 -40.109375 25.84375 -40.109375 C 22.507812 -40.109375 19.519531 -39.328125 16.875 -37.765625 C 14.238281 -36.210938 12.15625 -34.046875 10.625 -31.265625 C 9.101562 -28.492188 8.34375 -25.328125 8.34375 -21.765625 C 8.34375 -18.203125 9.101562 -15.03125 10.625 -12.25 C 12.15625 -9.476562 14.238281 -7.3125 16.875 -5.75 C 19.519531 -4.195312 22.507812 -3.421875 25.84375 -3.421875 Z M 25.84375 -3.421875 "/></g></g></g><g fill="#ffffff" fill-opacity="1"><g transform="translate(93.218927, 329.828473)"><g><path d="M 21.9375 -58.625 C 16.488281 -58.625 13.765625 -55.707031 13.765625 -49.875 L 13.765625 -43.53125 L 27.6875 -43.53125 L 27.6875 -39.9375 L 13.84375 -39.9375 L 13.84375 0 L 9.671875 0 L 9.671875 -39.9375 L 1.671875 -39.9375 L 1.671875 -43.53125 L 9.671875 -43.53125 L 9.671875 -50.203125 C 9.671875 -53.867188 10.726562 -56.785156 12.84375 -58.953125 C 14.957031 -61.117188 17.929688 -62.203125 21.765625 -62.203125 C 23.429688 -62.203125 25.03125 -61.96875 26.5625 -61.5 C 28.09375 -61.03125 29.359375 -60.320312 30.359375 -59.375 L 28.6875 -56.203125 C 26.90625 -57.816406 24.65625 -58.625 21.9375 -58.625 Z M 21.9375 -58.625 "/></g></g></g><g fill="#ffffff" fill-opacity="1"><g transform="translate(120.569115, 329.828473)"><g/></g></g><g fill="#ffffff" fill-opacity="1"><g transform="translate(141.998991, 329.828473)"><g><path d="M 34.859375 0.421875 C 29.128906 0.421875 23.972656 -0.851562 19.390625 -3.40625 C 14.804688 -5.96875 11.191406 -9.5 8.546875 -14 C 5.910156 -18.507812 4.59375 -23.570312 4.59375 -29.1875 C 4.59375 -34.800781 5.910156 -39.859375 8.546875 -44.359375 C 11.191406 -48.867188 14.804688 -52.398438 19.390625 -54.953125 C 23.972656 -57.515625 29.128906 -58.796875 34.859375 -58.796875 C 39.078125 -58.796875 42.96875 -58.113281 46.53125 -56.75 C 50.09375 -55.382812 53.125 -53.367188 55.625 -50.703125 L 52.953125 -47.953125 C 48.285156 -52.566406 42.3125 -54.875 35.03125 -54.875 C 30.132812 -54.875 25.679688 -53.757812 21.671875 -51.53125 C 17.671875 -49.3125 14.53125 -46.238281 12.25 -42.3125 C 9.976562 -38.394531 8.84375 -34.019531 8.84375 -29.1875 C 8.84375 -24.351562 9.976562 -19.972656 12.25 -16.046875 C 14.53125 -12.128906 17.671875 -9.054688 21.671875 -6.828125 C 25.679688 -4.609375 30.132812 -3.5 35.03125 -3.5 C 42.25 -3.5 48.222656 -5.832031 52.953125 -10.5 L 55.625 -7.75 C 53.125 -5.082031 50.078125 -3.050781 46.484375 -1.65625 C 42.898438 -0.269531 39.023438 0.421875 34.859375 0.421875 Z M 34.859375 0.421875 "/></g></g></g><g fill="#ffffff" fill-opacity="1"><g transform="translate(201.70245, 329.828473)"><g><path d="M 8.84375 -43.53125 L 13.015625 -43.53125 L 13.015625 0 L 8.84375 0 Z M 10.921875 -54.125 C 9.972656 -54.125 9.164062 -54.441406 8.5 -55.078125 C 7.832031 -55.710938 7.5 -56.503906 7.5 -57.453125 C 7.5 -58.398438 7.832031 -59.207031 8.5 -59.875 C 9.164062 -60.539062 9.972656 -60.875 10.921875 -60.875 C 11.867188 -60.875 12.675781 -60.550781 13.34375 -59.90625 C 14.007812 -59.269531 14.34375 -58.484375 14.34375 -57.546875 C 14.34375 -56.597656 14.007812 -55.789062 13.34375 -55.125 C 12.675781 -54.457031 11.867188 -54.125 10.921875 -54.125 Z M 10.921875 -54.125 "/></g></g></g><g fill="#ffffff" fill-opacity="1"><g transform="translate(223.465865, 329.828473)"><g><path d="M 43.78125 -43.53125 L 24.09375 0 L 19.84375 0 L 0.25 -43.53125 L 4.671875 -43.53125 L 22.015625 -4.59375 L 39.53125 -43.53125 Z M 43.78125 -43.53125 "/></g></g></g><g fill="#ffffff" fill-opacity="1"><g transform="translate(267.492998, 329.828473)"><g><path d="M 8.84375 -43.53125 L 13.015625 -43.53125 L 13.015625 0 L 8.84375 0 Z M 10.921875 -54.125 C 9.972656 -54.125 9.164062 -54.441406 8.5 -55.078125 C 7.832031 -55.710938 7.5 -56.503906 7.5 -57.453125 C 7.5 -58.398438 7.832031 -59.207031 8.5 -59.875 C 9.164062 -60.539062 9.972656 -60.875 10.921875 -60.875 C 11.867188 -60.875 12.675781 -60.550781 13.34375 -59.90625 C 14.007812 -59.269531 14.34375 -58.484375 14.34375 -57.546875 C 14.34375 -56.597656 14.007812 -55.789062 13.34375 -55.125 C 12.675781 -54.457031 11.867188 -54.125 10.921875 -54.125 Z M 10.921875 -54.125 "/></g></g></g><g fill="#ffffff" fill-opacity="1"><g transform="translate(289.256427, 329.828473)"><g><path d="M 8.84375 -61.875 L 13.015625 -61.875 L 13.015625 0 L 8.84375 0 Z M 8.84375 -61.875 "/></g></g></g><g fill="#ffffff" fill-opacity="1"><g transform="translate(311.019843, 329.828473)"><g/></g></g><g fill="#ffffff" fill-opacity="1"><g transform="translate(332.449704, 329.828473)"><g><path d="M 46.28125 -16.421875 L 12.421875 -16.421875 L 5 0 L 0.421875 0 L 27.265625 -58.375 L 31.515625 -58.375 L 58.375 0 L 53.78125 0 Z M 44.703125 -20.015625 L 29.359375 -53.703125 L 14.09375 -20.015625 Z M 44.703125 -20.015625 "/></g></g></g><g fill="#ffffff" fill-opacity="1"><g transform="translate(391.235931, 329.828473)"><g><path d="M 43.78125 -43.53125 L 24.09375 0 L 19.84375 0 L 0.25 -43.53125 L 4.671875 -43.53125 L 22.015625 -4.59375 L 39.53125 -43.53125 Z M 43.78125 -43.53125 "/></g></g></g><g fill="#ffffff" fill-opacity="1"><g transform="translate(435.263064, 329.828473)"><g><path d="M 8.84375 -43.53125 L 13.015625 -43.53125 L 13.015625 0 L 8.84375 0 Z M 10.921875 -54.125 C 9.972656 -54.125 9.164062 -54.441406 8.5 -55.078125 C 7.832031 -55.710938 7.5 -56.503906 7.5 -57.453125 C 7.5 -58.398438 7.832031 -59.207031 8.5 -59.875 C 9.164062 -60.539062 9.972656 -60.875 10.921875 -60.875 C 11.867188 -60.875 12.675781 -60.550781 13.34375 -59.90625 C 14.007812 -59.269531 14.34375 -58.484375 14.34375 -57.546875 C 14.34375 -56.597656 14.007812 -55.789062 13.34375 -55.125 C 12.675781 -54.457031 11.867188 -54.125 10.921875 -54.125 Z M 10.921875 -54.125 "/></g></g></g><g fill="#ffffff" fill-opacity="1"><g transform="translate(457.026479, 329.828473)"><g><path d="M 23.515625 -43.859375 C 28.910156 -43.859375 33.050781 -42.484375 35.9375 -39.734375 C 38.832031 -36.984375 40.28125 -32.941406 40.28125 -27.609375 L 40.28125 0 L 36.28125 0 L 36.28125 -7.75 C 34.882812 -5.195312 32.851562 -3.210938 30.1875 -1.796875 C 27.519531 -0.378906 24.320312 0.328125 20.59375 0.328125 C 15.757812 0.328125 11.9375 -0.804688 9.125 -3.078125 C 6.320312 -5.359375 4.921875 -8.363281 4.921875 -12.09375 C 4.921875 -15.707031 6.210938 -18.640625 8.796875 -20.890625 C 11.378906 -23.140625 15.507812 -24.265625 21.1875 -24.265625 L 36.109375 -24.265625 L 36.109375 -27.765625 C 36.109375 -31.828125 35.007812 -34.910156 32.8125 -37.015625 C 30.613281 -39.128906 27.40625 -40.1875 23.1875 -40.1875 C 20.289062 -40.1875 17.519531 -39.6875 14.875 -38.6875 C 12.238281 -37.6875 10.003906 -36.351562 8.171875 -34.6875 L 6.09375 -37.6875 C 8.257812 -39.632812 10.867188 -41.148438 13.921875 -42.234375 C 16.984375 -43.316406 20.179688 -43.859375 23.515625 -43.859375 Z M 21.1875 -3.078125 C 24.800781 -3.078125 27.867188 -3.910156 30.390625 -5.578125 C 32.921875 -7.253906 34.828125 -9.675781 36.109375 -12.84375 L 36.109375 -21.015625 L 21.265625 -21.015625 C 16.984375 -21.015625 13.882812 -20.234375 11.96875 -18.671875 C 10.050781 -17.117188 9.09375 -14.984375 9.09375 -12.265625 C 9.09375 -9.421875 10.144531 -7.175781 12.25 -5.53125 C 14.363281 -3.894531 17.34375 -3.078125 21.1875 -3.078125 Z M 21.1875 -3.078125 "/></g></g></g><g fill="#ffffff" fill-opacity="1"><g transform="translate(505.639766, 329.828473)"><g><path d="M 30.4375 -2.75 C 29.382812 -1.75 28.0625 -0.984375 26.46875 -0.453125 C 24.882812 0.0664062 23.234375 0.328125 21.515625 0.328125 C 17.734375 0.328125 14.8125 -0.710938 12.75 -2.796875 C 10.695312 -4.878906 9.671875 -7.785156 9.671875 -11.515625 L 9.671875 -39.9375 L 1.671875 -39.9375 L 1.671875 -43.53125 L 9.671875 -43.53125 L 9.671875 -53.03125 L 13.84375 -53.03125 L 13.84375 -43.53125 L 27.6875 -43.53125 L 27.6875 -39.9375 L 13.84375 -39.9375 L 13.84375 -11.921875 C 13.84375 -9.085938 14.519531 -6.929688 15.875 -5.453125 C 17.238281 -3.984375 19.257812 -3.25 21.9375 -3.25 C 24.65625 -3.25 26.90625 -4.054688 28.6875 -5.671875 Z M 30.4375 -2.75 "/></g></g></g><g fill="#ffffff" fill-opacity="1"><g transform="translate(538.826907, 329.828473)"><g><path d="M 8.84375 -43.53125 L 13.015625 -43.53125 L 13.015625 0 L 8.84375 0 Z M 10.921875 -54.125 C 9.972656 -54.125 9.164062 -54.441406 8.5 -55.078125 C 7.832031 -55.710938 7.5 -56.503906 7.5 -57.453125 C 7.5 -58.398438 7.832031 -59.207031 8.5 -59.875 C 9.164062 -60.539062 9.972656 -60.875 10.921875 -60.875 C 11.867188 -60.875 12.675781 -60.550781 13.34375 -59.90625 C 14.007812 -59.269531 14.34375 -58.484375 14.34375 -57.546875 C 14.34375 -56.597656 14.007812 -55.789062 13.34375 -55.125 C 12.675781 -54.457031 11.867188 -54.125 10.921875 -54.125 Z M 10.921875 -54.125 "/></g></g></g><g fill="#ffffff" fill-opacity="1"><g transform="translate(560.590323, 329.828473)"><g><path d="M 25.84375 0.328125 C 21.738281 0.328125 18.03125 -0.613281 14.71875 -2.5 C 11.40625 -4.394531 8.804688 -7.019531 6.921875 -10.375 C 5.035156 -13.738281 4.09375 -17.535156 4.09375 -21.765625 C 4.09375 -25.992188 5.035156 -29.785156 6.921875 -33.140625 C 8.804688 -36.503906 11.40625 -39.128906 14.71875 -41.015625 C 18.03125 -42.910156 21.738281 -43.859375 25.84375 -43.859375 C 29.957031 -43.859375 33.671875 -42.910156 36.984375 -41.015625 C 40.296875 -39.128906 42.894531 -36.503906 44.78125 -33.140625 C 46.664062 -29.785156 47.609375 -25.992188 47.609375 -21.765625 C 47.609375 -17.535156 46.664062 -13.738281 44.78125 -10.375 C 42.894531 -7.019531 40.296875 -4.394531 36.984375 -2.5 C 33.671875 -0.613281 29.957031 0.328125 25.84375 0.328125 Z M 25.84375 -3.421875 C 29.1875 -3.421875 32.175781 -4.195312 34.8125 -5.75 C 37.457031 -7.3125 39.539062 -9.476562 41.0625 -12.25 C 42.59375 -15.03125 43.359375 -18.203125 43.359375 -21.765625 C 43.359375 -25.328125 42.59375 -28.492188 41.0625 -31.265625 C 39.539062 -34.046875 37.457031 -36.210938 34.8125 -37.765625 C 32.175781 -39.328125 29.1875 -40.109375 25.84375 -40.109375 C 22.507812 -40.109375 19.519531 -39.328125 16.875 -37.765625 C 14.238281 -36.210938 12.15625 -34.046875 10.625 -31.265625 C 9.101562 -28.492188 8.34375 -25.328125 8.34375 -21.765625 C 8.34375 -18.203125 9.101562 -15.03125 10.625 -12.25 C 12.15625 -9.476562 14.238281 -7.3125 16.875 -5.75 C 19.519531 -4.195312 22.507812 -3.421875 25.84375 -3.421875 Z M 25.84375 -3.421875 "/></g></g></g><g fill="#ffffff" fill-opacity="1"><g transform="translate(612.288856, 329.828473)"><g><path d="M 30.109375 -43.859375 C 35.554688 -43.859375 39.863281 -42.273438 43.03125 -39.109375 C 46.195312 -35.941406 47.78125 -31.382812 47.78125 -25.4375 L 47.78125 0 L 43.609375 0 L 43.609375 -25.09375 C 43.609375 -29.988281 42.367188 -33.710938 39.890625 -36.265625 C 37.421875 -38.828125 33.960938 -40.109375 29.515625 -40.109375 C 24.398438 -40.109375 20.367188 -38.578125 17.421875 -35.515625 C 14.484375 -32.460938 13.015625 -28.351562 13.015625 -23.1875 L 13.015625 0 L 8.84375 0 L 8.84375 -43.53125 L 12.84375 -43.53125 L 12.84375 -34.109375 C 14.34375 -37.160156 16.578125 -39.546875 19.546875 -41.265625 C 22.523438 -42.992188 26.046875 -43.859375 30.109375 -43.859375 Z M 30.109375 -43.859375 "/></g></g></g><g fill="#ffffff" fill-opacity="1"><g transform="translate(41.520409, 527.853468)"><g><path d="M 131.921875 -105.1875 C 131.921875 -96.195312 129.859375 -87.984375 125.734375 -80.546875 C 121.609375 -73.109375 115.273438 -67.101562 106.734375 -62.53125 C 98.191406 -57.96875 87.582031 -55.6875 74.90625 -55.6875 L 51.484375 -55.6875 L 51.484375 0 L 13.703125 0 L 13.703125 -155.125 L 74.90625 -155.125 C 87.28125 -155.125 97.738281 -152.988281 106.28125 -148.71875 C 114.832031 -144.445312 121.242188 -138.554688 125.515625 -131.046875 C 129.785156 -123.535156 131.921875 -114.914062 131.921875 -105.1875 Z M 72.046875 -85.734375 C 79.265625 -85.734375 84.640625 -87.425781 88.171875 -90.8125 C 91.703125 -94.207031 93.46875 -99 93.46875 -105.1875 C 93.46875 -111.375 91.703125 -116.160156 88.171875 -119.546875 C 84.640625 -122.941406 79.265625 -124.640625 72.046875 -124.640625 L 51.484375 -124.640625 L 51.484375 -85.734375 Z M 72.046875 -85.734375 "/></g></g></g><g fill="#ffffff" fill-opacity="1"><g transform="translate(179.408293, 527.853468)"><g><path d="M 148.0625 -155.125 L 148.0625 0 L 110.265625 0 L 110.265625 -63.859375 L 51.484375 -63.859375 L 51.484375 0 L 13.703125 0 L 13.703125 -155.125 L 51.484375 -155.125 L 51.484375 -94.359375 L 110.265625 -94.359375 L 110.265625 -155.125 Z M 148.0625 -155.125 "/></g></g></g><g fill="#ffffff" fill-opacity="1"><g transform="translate(340.940403, 527.853468)"><g><path d="M 51.484375 -155.125 L 51.484375 0 L 13.703125 0 L 13.703125 -155.125 Z M 51.484375 -155.125 "/></g></g></g><g fill="#ffffff" fill-opacity="1"><g transform="translate(406.127788, 527.853468)"><g><path d="M 51.484375 -29.171875 L 100.984375 -29.171875 L 100.984375 0 L 13.703125 0 L 13.703125 -155.125 L 51.484375 -155.125 Z M 51.484375 -29.171875 "/></g></g></g><g fill="#ffffff" fill-opacity="1"><g transform="translate(511.532469, 527.853468)"><g><path d="M 51.484375 -155.125 L 51.484375 0 L 13.703125 0 L 13.703125 -155.125 Z M 51.484375 -155.125 "/></g></g></g><g fill="#ffffff" fill-opacity="1"><g transform="translate(576.719854, 527.853468)"><g><path d="M 131.921875 -105.1875 C 131.921875 -96.195312 129.859375 -87.984375 125.734375 -80.546875 C 121.609375 -73.109375 115.273438 -67.101562 106.734375 -62.53125 C 98.191406 -57.96875 87.582031 -55.6875 74.90625 -55.6875 L 51.484375 -55.6875 L 51.484375 0 L 13.703125 0 L 13.703125 -155.125 L 74.90625 -155.125 C 87.28125 -155.125 97.738281 -152.988281 106.28125 -148.71875 C 114.832031 -144.445312 121.242188 -138.554688 125.515625 -131.046875 C 129.785156 -123.535156 131.921875 -114.914062 131.921875 -105.1875 Z M 72.046875 -85.734375 C 79.265625 -85.734375 84.640625 -87.425781 88.171875 -90.8125 C 91.703125 -94.207031 93.46875 -99 93.46875 -105.1875 C 93.46875 -111.375 91.703125 -116.160156 88.171875 -119.546875 C 84.640625 -122.941406 79.265625 -124.640625 72.046875 -124.640625 L 51.484375 -124.640625 L 51.484375 -85.734375 Z M 72.046875 -85.734375 "/></g></g></g><g fill="#ffffff" fill-opacity="1"><g transform="translate(714.607738, 527.853468)"><g><path d="M 131.921875 -105.1875 C 131.921875 -96.195312 129.859375 -87.984375 125.734375 -80.546875 C 121.609375 -73.109375 115.273438 -67.101562 106.734375 -62.53125 C 98.191406 -57.96875 87.582031 -55.6875 74.90625 -55.6875 L 51.484375 -55.6875 L 51.484375 0 L 13.703125 0 L 13.703125 -155.125 L 74.90625 -155.125 C 87.28125 -155.125 97.738281 -152.988281 106.28125 -148.71875 C 114.832031 -144.445312 121.242188 -138.554688 125.515625 -131.046875 C 129.785156 -123.535156 131.921875 -114.914062 131.921875 -105.1875 Z M 72.046875 -85.734375 C 79.265625 -85.734375 84.640625 -87.425781 88.171875 -90.8125 C 91.703125 -94.207031 93.46875 -99 93.46875 -105.1875 C 93.46875 -111.375 91.703125 -116.160156 88.171875 -119.546875 C 84.640625 -122.941406 79.265625 -124.640625 72.046875 -124.640625 L 51.484375 -124.640625 L 51.484375 -85.734375 Z M 72.046875 -85.734375 "/></g></g></g><g fill="#ffffff" fill-opacity="1"><g transform="translate(852.495623, 527.853468)"><g><path d="M 51.484375 -155.125 L 51.484375 0 L 13.703125 0 L 13.703125 -155.125 Z M 51.484375 -155.125 "/></g></g></g><g fill="#ffffff" fill-opacity="1"><g transform="translate(917.682979, 527.853468)"><g><path d="M 152.484375 0 L 114.6875 0 L 51.484375 -95.6875 L 51.484375 0 L 13.703125 0 L 13.703125 -155.125 L 51.484375 -155.125 L 114.6875 -59 L 114.6875 -155.125 L 152.484375 -155.125 Z M 152.484375 0 "/></g></g></g><g fill="#ffffff" fill-opacity="1"><g transform="translate(1083.855497, 527.853468)"><g><path d="M 51.484375 -124.859375 L 51.484375 -93.46875 L 102.09375 -93.46875 L 102.09375 -64.3125 L 51.484375 -64.3125 L 51.484375 -30.28125 L 108.71875 -30.28125 L 108.71875 0 L 13.703125 0 L 13.703125 -155.125 L 108.71875 -155.125 L 108.71875 -124.859375 Z M 51.484375 -124.859375 "/></g></g></g><g fill="#ffffff" fill-opacity="1"><g transform="translate(1203.402465, 527.853468)"><g><path d="M 69.828125 1.546875 C 58.484375 1.546875 48.316406 -0.289062 39.328125 -3.96875 C 30.347656 -7.65625 23.164062 -13.109375 17.78125 -20.328125 C 12.40625 -27.546875 9.570312 -36.238281 9.28125 -46.40625 L 49.5 -46.40625 C 50.09375 -40.65625 52.082031 -36.269531 55.46875 -33.25 C 58.851562 -30.238281 63.269531 -28.734375 68.71875 -28.734375 C 74.320312 -28.734375 78.742188 -30.019531 81.984375 -32.59375 C 85.222656 -35.175781 86.84375 -38.75 86.84375 -43.3125 C 86.84375 -47.144531 85.550781 -50.3125 82.96875 -52.8125 C 80.394531 -55.320312 77.226562 -57.382812 73.46875 -59 C 69.71875 -60.625 64.378906 -62.46875 57.453125 -64.53125 C 47.429688 -67.625 39.253906 -70.71875 32.921875 -73.8125 C 26.585938 -76.90625 21.132812 -81.46875 16.5625 -87.5 C 12 -93.539062 9.71875 -101.425781 9.71875 -111.15625 C 9.71875 -125.59375 14.945312 -136.898438 25.40625 -145.078125 C 35.875 -153.253906 49.503906 -157.34375 66.296875 -157.34375 C 83.378906 -157.34375 97.148438 -153.253906 107.609375 -145.078125 C 118.078125 -136.898438 123.679688 -125.519531 124.421875 -110.9375 L 83.53125 -110.9375 C 83.238281 -115.945312 81.394531 -119.882812 78 -122.75 C 74.613281 -125.625 70.269531 -127.0625 64.96875 -127.0625 C 60.40625 -127.0625 56.722656 -125.847656 53.921875 -123.421875 C 51.117188 -120.992188 49.71875 -117.492188 49.71875 -112.921875 C 49.71875 -107.910156 52.070312 -104.003906 56.78125 -101.203125 C 61.5 -98.410156 68.867188 -95.394531 78.890625 -92.15625 C 88.910156 -88.757812 97.050781 -85.515625 103.3125 -82.421875 C 109.570312 -79.328125 114.984375 -74.832031 119.546875 -68.9375 C 124.117188 -63.050781 126.40625 -55.46875 126.40625 -46.1875 C 126.40625 -37.34375 124.15625 -29.3125 119.65625 -22.09375 C 115.164062 -14.875 108.644531 -9.128906 100.09375 -4.859375 C 91.550781 -0.585938 81.460938 1.546875 69.828125 1.546875 Z M 69.828125 1.546875 "/></g></g></g><g fill="#ffffff" fill-opacity="1"><g transform="translate(41.520409, 678.142068)"><g><path d="M 31.9375 0.375 C 26.695312 0.375 21.96875 -0.800781 17.75 -3.15625 C 13.539062 -5.519531 10.226562 -8.757812 7.8125 -12.875 C 5.394531 -17 4.1875 -21.597656 4.1875 -26.671875 C 4.1875 -31.753906 5.394531 -36.351562 7.8125 -40.46875 C 10.226562 -44.582031 13.539062 -47.820312 17.75 -50.1875 C 21.96875 -52.550781 26.695312 -53.734375 31.9375 -53.734375 C 37.164062 -53.734375 41.890625 -52.5625 46.109375 -50.21875 C 50.328125 -47.882812 53.640625 -44.660156 56.046875 -40.546875 C 58.460938 -36.429688 59.671875 -31.804688 59.671875 -26.671875 C 59.671875 -21.546875 58.460938 -16.921875 56.046875 -12.796875 C 53.640625 -8.679688 50.328125 -5.457031 46.109375 -3.125 C 41.890625 -0.789062 37.164062 0.375 31.9375 0.375 Z M 31.9375 -3.203125 C 36.40625 -3.203125 40.441406 -4.21875 44.046875 -6.25 C 47.660156 -8.28125 50.507812 -11.085938 52.59375 -14.671875 C 54.675781 -18.253906 55.71875 -22.253906 55.71875 -26.671875 C 55.71875 -31.097656 54.675781 -35.097656 52.59375 -38.671875 C 50.507812 -42.253906 47.660156 -45.0625 44.046875 -47.09375 C 40.441406 -49.132812 36.40625 -50.15625 31.9375 -50.15625 C 27.46875 -50.15625 23.414062 -49.132812 19.78125 -47.09375 C 16.144531 -45.0625 13.285156 -42.253906 11.203125 -38.671875 C 9.117188 -35.097656 8.078125 -31.097656 8.078125 -26.671875 C 8.078125 -22.253906 9.117188 -18.253906 11.203125 -14.671875 C 13.285156 -11.085938 16.144531 -8.28125 19.78125 -6.25 C 23.414062 -4.21875 27.46875 -3.203125 31.9375 -3.203125 Z M 31.9375 -3.203125 "/></g></g></g><g fill="#ffffff" fill-opacity="1"><g transform="translate(105.390615, 678.142068)"><g><path d="M 23.859375 0.3125 C 19.992188 0.3125 16.535156 -0.550781 13.484375 -2.28125 C 10.441406 -4.007812 8.054688 -6.410156 6.328125 -9.484375 C 4.597656 -12.554688 3.734375 -16.023438 3.734375 -19.890625 C 3.734375 -23.804688 4.597656 -27.300781 6.328125 -30.375 C 8.054688 -33.445312 10.441406 -35.832031 13.484375 -37.53125 C 16.535156 -39.238281 19.992188 -40.09375 23.859375 -40.09375 C 27.054688 -40.09375 29.960938 -39.46875 32.578125 -38.21875 C 35.203125 -36.976562 37.328125 -35.164062 38.953125 -32.78125 L 36.125 -30.71875 C 34.707031 -32.695312 32.941406 -34.179688 30.828125 -35.171875 C 28.722656 -36.160156 26.398438 -36.65625 23.859375 -36.65625 C 20.753906 -36.65625 17.96875 -35.957031 15.5 -34.5625 C 13.039062 -33.164062 11.113281 -31.195312 9.71875 -28.65625 C 8.320312 -26.113281 7.625 -23.191406 7.625 -19.890625 C 7.625 -16.585938 8.320312 -13.664062 9.71875 -11.125 C 11.113281 -8.582031 13.039062 -6.613281 15.5 -5.21875 C 17.96875 -3.820312 20.753906 -3.125 23.859375 -3.125 C 26.398438 -3.125 28.722656 -3.617188 30.828125 -4.609375 C 32.941406 -5.597656 34.707031 -7.082031 36.125 -9.0625 L 38.953125 -7.015625 C 37.328125 -4.628906 35.203125 -2.8125 32.578125 -1.5625 C 29.960938 -0.3125 27.054688 0.3125 23.859375 0.3125 Z M 23.859375 0.3125 "/></g></g></g><g fill="#ffffff" fill-opacity="1"><g transform="translate(147.691298, 678.142068)"><g><path d="M 27.8125 -2.515625 C 26.851562 -1.597656 25.648438 -0.894531 24.203125 -0.40625 C 22.753906 0.0703125 21.242188 0.3125 19.671875 0.3125 C 16.210938 0.3125 13.539062 -0.640625 11.65625 -2.546875 C 9.78125 -4.453125 8.84375 -7.109375 8.84375 -10.515625 L 8.84375 -36.515625 L 1.53125 -36.515625 L 1.53125 -39.78125 L 8.84375 -39.78125 L 8.84375 -48.46875 L 12.65625 -48.46875 L 12.65625 -39.78125 L 25.296875 -39.78125 L 25.296875 -36.515625 L 12.65625 -36.515625 L 12.65625 -10.90625 C 12.65625 -8.3125 13.273438 -6.335938 14.515625 -4.984375 C 15.765625 -3.640625 17.609375 -2.96875 20.046875 -2.96875 C 22.535156 -2.96875 24.59375 -3.707031 26.21875 -5.1875 Z M 27.8125 -2.515625 "/></g></g></g><g fill="#ffffff" fill-opacity="1"><g transform="translate(178.025834, 678.142068)"><g><path d="M 23.625 0.3125 C 19.863281 0.3125 16.472656 -0.550781 13.453125 -2.28125 C 10.429688 -4.007812 8.054688 -6.410156 6.328125 -9.484375 C 4.597656 -12.554688 3.734375 -16.023438 3.734375 -19.890625 C 3.734375 -23.753906 4.597656 -27.222656 6.328125 -30.296875 C 8.054688 -33.367188 10.429688 -35.769531 13.453125 -37.5 C 16.472656 -39.226562 19.863281 -40.09375 23.625 -40.09375 C 27.382812 -40.09375 30.773438 -39.226562 33.796875 -37.5 C 36.828125 -35.769531 39.203125 -33.367188 40.921875 -30.296875 C 42.648438 -27.222656 43.515625 -23.753906 43.515625 -19.890625 C 43.515625 -16.023438 42.648438 -12.554688 40.921875 -9.484375 C 39.203125 -6.410156 36.828125 -4.007812 33.796875 -2.28125 C 30.773438 -0.550781 27.382812 0.3125 23.625 0.3125 Z M 23.625 -3.125 C 26.675781 -3.125 29.40625 -3.832031 31.8125 -5.25 C 34.226562 -6.675781 36.132812 -8.660156 37.53125 -11.203125 C 38.9375 -13.742188 39.640625 -16.640625 39.640625 -19.890625 C 39.640625 -23.140625 38.9375 -26.035156 37.53125 -28.578125 C 36.132812 -31.117188 34.226562 -33.097656 31.8125 -34.515625 C 29.40625 -35.941406 26.675781 -36.65625 23.625 -36.65625 C 20.582031 -36.65625 17.851562 -35.941406 15.4375 -34.515625 C 13.019531 -33.097656 11.113281 -31.117188 9.71875 -28.578125 C 8.320312 -26.035156 7.625 -23.140625 7.625 -19.890625 C 7.625 -16.640625 8.320312 -13.742188 9.71875 -11.203125 C 11.113281 -8.660156 13.019531 -6.675781 15.4375 -5.25 C 17.851562 -3.832031 20.582031 -3.125 23.625 -3.125 Z M 23.625 -3.125 "/></g></g></g><g fill="#ffffff" fill-opacity="1"><g transform="translate(225.280641, 678.142068)"><g><path d="M 28.046875 -40.09375 C 31.753906 -40.09375 35.109375 -39.238281 38.109375 -37.53125 C 41.109375 -35.832031 43.457031 -33.445312 45.15625 -30.375 C 46.863281 -27.300781 47.71875 -23.804688 47.71875 -19.890625 C 47.71875 -15.984375 46.863281 -12.503906 45.15625 -9.453125 C 43.457031 -6.398438 41.109375 -4.007812 38.109375 -2.28125 C 35.109375 -0.550781 31.753906 0.3125 28.046875 0.3125 C 24.492188 0.3125 21.28125 -0.535156 18.40625 -2.234375 C 15.53125 -3.941406 13.304688 -6.320312 11.734375 -9.375 L 11.734375 0 L 8.078125 0 L 8.078125 -56.546875 L 11.890625 -56.546875 L 11.890625 -30.71875 C 13.460938 -33.664062 15.671875 -35.960938 18.515625 -37.609375 C 21.367188 -39.265625 24.546875 -40.09375 28.046875 -40.09375 Z M 27.8125 -3.125 C 30.863281 -3.125 33.609375 -3.832031 36.046875 -5.25 C 38.484375 -6.675781 40.398438 -8.660156 41.796875 -11.203125 C 43.203125 -13.742188 43.90625 -16.640625 43.90625 -19.890625 C 43.90625 -23.140625 43.203125 -26.035156 41.796875 -28.578125 C 40.398438 -31.117188 38.484375 -33.097656 36.046875 -34.515625 C 33.609375 -35.941406 30.863281 -36.65625 27.8125 -36.65625 C 24.769531 -36.65625 22.039062 -35.941406 19.625 -34.515625 C 17.207031 -33.097656 15.300781 -31.117188 13.90625 -28.578125 C 12.507812 -26.035156 11.8125 -23.140625 11.8125 -19.890625 C 11.8125 -16.640625 12.507812 -13.742188 13.90625 -11.203125 C 15.300781 -8.660156 17.207031 -6.675781 19.625 -5.25 C 22.039062 -3.832031 24.769531 -3.125 27.8125 -3.125 Z M 27.8125 -3.125 "/></g></g></g><g fill="#ffffff" fill-opacity="1"><g transform="translate(276.727414, 678.142068)"><g><path d="M 41.6875 -18.984375 L 7.46875 -18.984375 C 7.570312 -15.878906 8.359375 -13.117188 9.828125 -10.703125 C 11.304688 -8.296875 13.300781 -6.429688 15.8125 -5.109375 C 18.332031 -3.785156 21.164062 -3.125 24.3125 -3.125 C 26.90625 -3.125 29.304688 -3.59375 31.515625 -4.53125 C 33.722656 -5.46875 35.566406 -6.851562 37.046875 -8.6875 L 39.25 -6.171875 C 37.519531 -4.085938 35.347656 -2.484375 32.734375 -1.359375 C 30.117188 -0.242188 27.285156 0.3125 24.234375 0.3125 C 20.273438 0.3125 16.742188 -0.550781 13.640625 -2.28125 C 10.546875 -4.007812 8.117188 -6.398438 6.359375 -9.453125 C 4.609375 -12.503906 3.734375 -15.984375 3.734375 -19.890625 C 3.734375 -23.753906 4.554688 -27.222656 6.203125 -30.296875 C 7.859375 -33.367188 10.132812 -35.769531 13.03125 -37.5 C 15.925781 -39.226562 19.179688 -40.09375 22.796875 -40.09375 C 26.398438 -40.09375 29.632812 -39.238281 32.5 -37.53125 C 35.375 -35.832031 37.632812 -33.457031 39.28125 -30.40625 C 40.9375 -27.363281 41.765625 -23.910156 41.765625 -20.046875 Z M 22.796875 -36.734375 C 19.992188 -36.734375 17.472656 -36.109375 15.234375 -34.859375 C 13.003906 -33.617188 11.210938 -31.867188 9.859375 -29.609375 C 8.515625 -27.347656 7.742188 -24.796875 7.546875 -21.953125 L 38.03125 -21.953125 C 37.875 -24.796875 37.109375 -27.332031 35.734375 -29.5625 C 34.367188 -31.800781 32.566406 -33.554688 30.328125 -34.828125 C 28.097656 -36.097656 25.585938 -36.734375 22.796875 -36.734375 Z M 22.796875 -36.734375 "/></g></g></g><g fill="#ffffff" fill-opacity="1"><g transform="translate(322.229218, 678.142068)"><g><path d="M 11.734375 -31.09375 C 12.953125 -33.988281 14.859375 -36.210938 17.453125 -37.765625 C 20.046875 -39.316406 23.195312 -40.09375 26.90625 -40.09375 L 26.90625 -36.359375 L 25.984375 -36.4375 C 21.566406 -36.4375 18.113281 -35.050781 15.625 -32.28125 C 13.132812 -29.507812 11.890625 -25.660156 11.890625 -20.734375 L 11.890625 0 L 8.078125 0 L 8.078125 -39.78125 L 11.734375 -39.78125 Z M 11.734375 -31.09375 "/></g></g></g><g fill="#ffffff" fill-opacity="1"><g transform="translate(352.258871, 678.142068)"><g/></g></g><g fill="#ffffff" fill-opacity="1"><g transform="translate(371.846742, 678.142068)"><g><path d="M 17.609375 -53.359375 L 17.609375 0 L 13.71875 0 L 13.71875 -49.84375 L 0.6875 -49.84375 L 0.6875 -53.359375 Z M 17.609375 -53.359375 "/></g></g></g><g fill="#ffffff" fill-opacity="1"><g transform="translate(398.751508, 678.142068)"><g><path d="M 48.703125 -14.78125 L 37.5 -14.78125 L 37.5 0 L 33.6875 0 L 33.6875 -14.78125 L 3.28125 -14.78125 L 3.28125 -17.609375 L 32.234375 -53.359375 L 36.578125 -53.359375 L 8.15625 -18.21875 L 33.765625 -18.21875 L 33.765625 -31.25 L 37.5 -31.25 L 37.5 -18.21875 L 48.703125 -18.21875 Z M 48.703125 -14.78125 "/></g></g></g><g fill="#ffffff" fill-opacity="1"><g transform="translate(448.597708, 678.142068)"><g/></g></g><g fill="#ffffff" fill-opacity="1"><g transform="translate(468.185579, 678.142068)"><g><path d="M 4.71875 -22.171875 L 24.3125 -22.171875 L 24.3125 -18.75 L 4.71875 -18.75 Z M 4.71875 -22.171875 "/></g></g></g><g fill="#ffffff" fill-opacity="1"><g transform="translate(497.224425, 678.142068)"><g/></g></g><g fill="#ffffff" fill-opacity="1"><g transform="translate(516.812297, 678.142068)"><g><path d="M 17.609375 -53.359375 L 17.609375 0 L 13.71875 0 L 13.71875 -49.84375 L 0.6875 -49.84375 L 0.6875 -53.359375 Z M 17.609375 -53.359375 "/></g></g></g><g fill="#ffffff" fill-opacity="1"><g transform="translate(543.717062, 678.142068)"><g><path d="M 32.78125 -27.890625 C 36.4375 -26.929688 39.265625 -25.304688 41.265625 -23.015625 C 43.273438 -20.734375 44.28125 -17.941406 44.28125 -14.640625 C 44.28125 -9.960938 42.472656 -6.289062 38.859375 -3.625 C 35.253906 -0.957031 30.304688 0.375 24.015625 0.375 C 17.765625 0.375 12.847656 -0.957031 9.265625 -3.625 C 5.679688 -6.289062 3.890625 -9.960938 3.890625 -14.640625 C 3.890625 -17.992188 4.863281 -20.800781 6.8125 -23.0625 C 8.769531 -25.320312 11.582031 -26.929688 15.25 -27.890625 C 12.195312 -28.910156 9.859375 -30.4375 8.234375 -32.46875 C 6.609375 -34.5 5.796875 -36.988281 5.796875 -39.9375 C 5.796875 -44.207031 7.445312 -47.570312 10.75 -50.03125 C 14.050781 -52.5 18.472656 -53.734375 24.015625 -53.734375 C 29.546875 -53.734375 33.988281 -52.488281 37.34375 -50 C 40.695312 -47.507812 42.375 -44.15625 42.375 -39.9375 C 42.375 -37.039062 41.546875 -34.5625 39.890625 -32.5 C 38.242188 -30.445312 35.875 -28.910156 32.78125 -27.890625 Z M 9.6875 -39.859375 C 9.6875 -36.660156 10.941406 -34.117188 13.453125 -32.234375 C 15.960938 -30.359375 19.484375 -29.421875 24.015625 -29.421875 C 28.535156 -29.421875 32.078125 -30.347656 34.640625 -32.203125 C 37.203125 -34.054688 38.484375 -36.582031 38.484375 -39.78125 C 38.484375 -43.039062 37.175781 -45.617188 34.5625 -47.515625 C 31.945312 -49.421875 28.429688 -50.375 24.015625 -50.375 C 19.585938 -50.375 16.09375 -49.429688 13.53125 -47.546875 C 10.96875 -45.671875 9.6875 -43.109375 9.6875 -39.859375 Z M 24.015625 -2.96875 C 29.140625 -2.96875 33.148438 -4.007812 36.046875 -6.09375 C 38.941406 -8.175781 40.390625 -11.023438 40.390625 -14.640625 C 40.390625 -18.191406 38.941406 -21.007812 36.046875 -23.09375 C 33.148438 -25.175781 29.140625 -26.21875 24.015625 -26.21875 C 18.929688 -26.21875 14.953125 -25.175781 12.078125 -23.09375 C 9.210938 -21.007812 7.78125 -18.191406 7.78125 -14.640625 C 7.78125 -11.023438 9.203125 -8.175781 12.046875 -6.09375 C 14.890625 -4.007812 18.878906 -2.96875 24.015625 -2.96875 Z M 24.015625 -2.96875 "/></g></g></g><g fill="#ffffff" fill-opacity="1"><g transform="translate(591.88648, 678.142068)"><g/></g></g><g fill="#ffffff" fill-opacity="1"><g transform="translate(611.474352, 678.142068)"><g><path d="M 9.296875 -56.546875 L 12.875 -56.546875 L 12.875 14.78125 L 9.296875 14.78125 Z M 9.296875 -56.546875 "/></g></g></g><g fill="#ffffff" fill-opacity="1"><g transform="translate(633.653604, 678.142068)"><g/></g></g><g fill="#ffffff" fill-opacity="1"><g transform="translate(653.241475, 678.142068)"><g><path d="M 31.859375 0.375 C 26.628906 0.375 21.914062 -0.789062 17.71875 -3.125 C 13.53125 -5.457031 10.226562 -8.679688 7.8125 -12.796875 C 5.394531 -16.921875 4.1875 -21.546875 4.1875 -26.671875 C 4.1875 -31.804688 5.394531 -36.429688 7.8125 -40.546875 C 10.226562 -44.660156 13.53125 -47.882812 17.71875 -50.21875 C 21.914062 -52.5625 26.628906 -53.734375 31.859375 -53.734375 C 35.722656 -53.734375 39.28125 -53.109375 42.53125 -51.859375 C 45.78125 -50.617188 48.550781 -48.78125 50.84375 -46.34375 L 48.40625 -43.828125 C 44.132812 -48.046875 38.671875 -50.15625 32.015625 -50.15625 C 27.535156 -50.15625 23.46875 -49.132812 19.8125 -47.09375 C 16.15625 -45.0625 13.285156 -42.253906 11.203125 -38.671875 C 9.117188 -35.097656 8.078125 -31.097656 8.078125 -26.671875 C 8.078125 -22.253906 9.117188 -18.253906 11.203125 -14.671875 C 13.285156 -11.085938 16.15625 -8.28125 19.8125 -6.25 C 23.46875 -4.21875 27.535156 -3.203125 32.015625 -3.203125 C 38.617188 -3.203125 44.082031 -5.335938 48.40625 -9.609375 L 50.84375 -7.09375 C 48.550781 -4.65625 45.765625 -2.800781 42.484375 -1.53125 C 39.210938 -0.257812 35.671875 0.375 31.859375 0.375 Z M 31.859375 0.375 "/></g></g></g><g fill="#ffffff" fill-opacity="1"><g transform="translate(707.813188, 678.142068)"><g><path d="M 41.6875 -18.984375 L 7.46875 -18.984375 C 7.570312 -15.878906 8.359375 -13.117188 9.828125 -10.703125 C 11.304688 -8.296875 13.300781 -6.429688 15.8125 -5.109375 C 18.332031 -3.785156 21.164062 -3.125 24.3125 -3.125 C 26.90625 -3.125 29.304688 -3.59375 31.515625 -4.53125 C 33.722656 -5.46875 35.566406 -6.851562 37.046875 -8.6875 L 39.25 -6.171875 C 37.519531 -4.085938 35.347656 -2.484375 32.734375 -1.359375 C 30.117188 -0.242188 27.285156 0.3125 24.234375 0.3125 C 20.273438 0.3125 16.742188 -0.550781 13.640625 -2.28125 C 10.546875 -4.007812 8.117188 -6.398438 6.359375 -9.453125 C 4.609375 -12.503906 3.734375 -15.984375 3.734375 -19.890625 C 3.734375 -23.753906 4.554688 -27.222656 6.203125 -30.296875 C 7.859375 -33.367188 10.132812 -35.769531 13.03125 -37.5 C 15.925781 -39.226562 19.179688 -40.09375 22.796875 -40.09375 C 26.398438 -40.09375 29.632812 -39.238281 32.5 -37.53125 C 35.375 -35.832031 37.632812 -33.457031 39.28125 -30.40625 C 40.9375 -27.363281 41.765625 -23.910156 41.765625 -20.046875 Z M 22.796875 -36.734375 C 19.992188 -36.734375 17.472656 -36.109375 15.234375 -34.859375 C 13.003906 -33.617188 11.210938 -31.867188 9.859375 -29.609375 C 8.515625 -27.347656 7.742188 -24.796875 7.546875 -21.953125 L 38.03125 -21.953125 C 37.875 -24.796875 37.109375 -27.332031 35.734375 -29.5625 C 34.367188 -31.800781 32.566406 -33.554688 30.328125 -34.828125 C 28.097656 -36.097656 25.585938 -36.734375 22.796875 -36.734375 Z M 22.796875 -36.734375 "/></g></g></g><g fill="#ffffff" fill-opacity="1"><g transform="translate(753.314967, 678.142068)"><g><path d="M 28.046875 -40.09375 C 31.753906 -40.09375 35.109375 -39.238281 38.109375 -37.53125 C 41.109375 -35.832031 43.457031 -33.445312 45.15625 -30.375 C 46.863281 -27.300781 47.71875 -23.804688 47.71875 -19.890625 C 47.71875 -15.984375 46.863281 -12.503906 45.15625 -9.453125 C 43.457031 -6.398438 41.109375 -4.007812 38.109375 -2.28125 C 35.109375 -0.550781 31.753906 0.3125 28.046875 0.3125 C 24.492188 0.3125 21.28125 -0.535156 18.40625 -2.234375 C 15.53125 -3.941406 13.304688 -6.320312 11.734375 -9.375 L 11.734375 0 L 8.078125 0 L 8.078125 -56.546875 L 11.890625 -56.546875 L 11.890625 -30.71875 C 13.460938 -33.664062 15.671875 -35.960938 18.515625 -37.609375 C 21.367188 -39.265625 24.546875 -40.09375 28.046875 -40.09375 Z M 27.8125 -3.125 C 30.863281 -3.125 33.609375 -3.832031 36.046875 -5.25 C 38.484375 -6.675781 40.398438 -8.660156 41.796875 -11.203125 C 43.203125 -13.742188 43.90625 -16.640625 43.90625 -19.890625 C 43.90625 -23.140625 43.203125 -26.035156 41.796875 -28.578125 C 40.398438 -31.117188 38.484375 -33.097656 36.046875 -34.515625 C 33.609375 -35.941406 30.863281 -36.65625 27.8125 -36.65625 C 24.769531 -36.65625 22.039062 -35.941406 19.625 -34.515625 C 17.207031 -33.097656 15.300781 -31.117188 13.90625 -28.578125 C 12.507812 -26.035156 11.8125 -23.140625 11.8125 -19.890625 C 11.8125 -16.640625 12.507812 -13.742188 13.90625 -11.203125 C 15.300781 -8.660156 17.207031 -6.675781 19.625 -5.25 C 22.039062 -3.832031 24.769531 -3.125 27.8125 -3.125 Z M 27.8125 -3.125 "/></g></g></g><g fill="#ffffff" fill-opacity="1"><g transform="translate(804.76174, 678.142068)"><g><path d="M 42.90625 -39.78125 L 42.90625 0 L 39.25 0 L 39.25 -8.53125 C 37.925781 -5.738281 35.96875 -3.566406 33.375 -2.015625 C 30.789062 -0.460938 27.742188 0.3125 24.234375 0.3125 C 19.054688 0.3125 14.992188 -1.132812 12.046875 -4.03125 C 9.097656 -6.9375 7.625 -11.109375 7.625 -16.546875 L 7.625 -39.78125 L 11.4375 -39.78125 L 11.4375 -16.84375 C 11.4375 -12.375 12.578125 -8.96875 14.859375 -6.625 C 17.148438 -4.289062 20.378906 -3.125 24.546875 -3.125 C 29.015625 -3.125 32.554688 -4.519531 35.171875 -7.3125 C 37.785156 -10.113281 39.09375 -13.875 39.09375 -18.59375 L 39.09375 -39.78125 Z M 42.90625 -39.78125 "/></g></g></g><g fill="#ffffff" fill-opacity="1"><g transform="translate(855.751215, 678.142068)"><g><path d="M 7.625 -6.171875 C 8.539062 -6.171875 9.300781 -5.851562 9.90625 -5.21875 C 10.519531 -4.582031 10.828125 -3.832031 10.828125 -2.96875 C 10.828125 -2.457031 10.757812 -1.921875 10.625 -1.359375 C 10.5 -0.804688 10.335938 -0.175781 10.140625 0.53125 L 7.171875 10.90625 L 4.421875 10.90625 L 6.9375 0.15625 C 6.175781 -0.0507812 5.566406 -0.421875 5.109375 -0.953125 C 4.648438 -1.484375 4.421875 -2.15625 4.421875 -2.96875 C 4.421875 -3.882812 4.722656 -4.644531 5.328125 -5.25 C 5.941406 -5.863281 6.707031 -6.171875 7.625 -6.171875 Z M 7.625 -6.171875 "/></g></g></g><g fill="#ffffff" fill-opacity="1"><g transform="translate(870.994717, 678.142068)"><g/></g></g><g fill="#ffffff" fill-opacity="1"><g transform="translate(890.582588, 678.142068)"><g><path d="M 28.421875 -53.359375 C 35.128906 -53.359375 40.390625 -51.769531 44.203125 -48.59375 C 48.015625 -45.414062 49.921875 -41.003906 49.921875 -35.359375 C 49.921875 -29.773438 48.015625 -25.394531 44.203125 -22.21875 C 40.390625 -19.039062 35.128906 -17.453125 28.421875 -17.453125 L 13.1875 -17.453125 L 13.1875 0 L 9.296875 0 L 9.296875 -53.359375 Z M 28.421875 -20.953125 C 34.117188 -20.953125 38.460938 -22.195312 41.453125 -24.6875 C 44.453125 -27.175781 45.953125 -30.734375 45.953125 -35.359375 C 45.953125 -39.984375 44.453125 -43.550781 41.453125 -46.0625 C 38.460938 -48.582031 34.117188 -49.84375 28.421875 -49.84375 L 13.1875 -49.84375 L 13.1875 -20.953125 Z M 28.421875 -20.953125 "/></g></g></g><g fill="#ffffff" fill-opacity="1"><g transform="translate(945.078041, 678.142068)"><g><path d="M 27.515625 -40.09375 C 32.492188 -40.09375 36.429688 -38.644531 39.328125 -35.75 C 42.222656 -32.851562 43.671875 -28.6875 43.671875 -23.25 L 43.671875 0 L 39.859375 0 L 39.859375 -22.9375 C 39.859375 -27.414062 38.726562 -30.820312 36.46875 -33.15625 C 34.207031 -35.488281 31.046875 -36.65625 26.984375 -36.65625 C 22.304688 -36.65625 18.617188 -35.257812 15.921875 -32.46875 C 13.234375 -29.675781 11.890625 -25.914062 11.890625 -21.1875 L 11.890625 0 L 8.078125 0 L 8.078125 -56.546875 L 11.890625 -56.546875 L 11.890625 -31.484375 C 13.265625 -34.222656 15.296875 -36.34375 17.984375 -37.84375 C 20.679688 -39.34375 23.859375 -40.09375 27.515625 -40.09375 Z M 27.515625 -40.09375 "/></g></g></g><g fill="#ffffff" fill-opacity="1"><g transform="translate(996.372347, 678.142068)"><g><path d="M 8.078125 -39.78125 L 11.890625 -39.78125 L 11.890625 0 L 8.078125 0 Z M 9.984375 -49.46875 C 9.117188 -49.46875 8.378906 -49.757812 7.765625 -50.34375 C 7.160156 -50.925781 6.859375 -51.648438 6.859375 -52.515625 C 6.859375 -53.378906 7.160156 -54.113281 7.765625 -54.71875 C 8.378906 -55.332031 9.117188 -55.640625 9.984375 -55.640625 C 10.847656 -55.640625 11.582031 -55.347656 12.1875 -54.765625 C 12.800781 -54.179688 13.109375 -53.457031 13.109375 -52.59375 C 13.109375 -51.726562 12.800781 -50.988281 12.1875 -50.375 C 11.582031 -49.769531 10.847656 -49.46875 9.984375 -49.46875 Z M 9.984375 -49.46875 "/></g></g></g><g fill="#ffffff" fill-opacity="1"><g transform="translate(1016.265155, 678.142068)"><g><path d="M 8.078125 -56.546875 L 11.890625 -56.546875 L 11.890625 0 L 8.078125 0 Z M 8.078125 -56.546875 "/></g></g></g><g fill="#ffffff" fill-opacity="1"><g transform="translate(1036.157858, 678.142068)"><g><path d="M 8.078125 -39.78125 L 11.890625 -39.78125 L 11.890625 0 L 8.078125 0 Z M 9.984375 -49.46875 C 9.117188 -49.46875 8.378906 -49.757812 7.765625 -50.34375 C 7.160156 -50.925781 6.859375 -51.648438 6.859375 -52.515625 C 6.859375 -53.378906 7.160156 -54.113281 7.765625 -54.71875 C 8.378906 -55.332031 9.117188 -55.640625 9.984375 -55.640625 C 10.847656 -55.640625 11.582031 -55.347656 12.1875 -54.765625 C 12.800781 -54.179688 13.109375 -53.457031 13.109375 -52.59375 C 13.109375 -51.726562 12.800781 -50.988281 12.1875 -50.375 C 11.582031 -49.769531 10.847656 -49.46875 9.984375 -49.46875 Z M 9.984375 -49.46875 "/></g></g></g><g fill="#ffffff" fill-opacity="1"><g transform="translate(1056.050562, 678.142068)"><g><path d="M 28.046875 -40.09375 C 31.753906 -40.09375 35.109375 -39.226562 38.109375 -37.5 C 41.109375 -35.769531 43.457031 -33.378906 45.15625 -30.328125 C 46.863281 -27.285156 47.71875 -23.804688 47.71875 -19.890625 C 47.71875 -15.984375 46.863281 -12.488281 45.15625 -9.40625 C 43.457031 -6.332031 41.109375 -3.941406 38.109375 -2.234375 C 35.109375 -0.535156 31.753906 0.3125 28.046875 0.3125 C 24.546875 0.3125 21.367188 -0.515625 18.515625 -2.171875 C 15.671875 -3.828125 13.460938 -6.125 11.890625 -9.0625 L 11.890625 14.78125 L 8.078125 14.78125 L 8.078125 -39.78125 L 11.734375 -39.78125 L 11.734375 -30.40625 C 13.304688 -33.457031 15.53125 -35.832031 18.40625 -37.53125 C 21.28125 -39.238281 24.492188 -40.09375 28.046875 -40.09375 Z M 27.8125 -3.125 C 30.863281 -3.125 33.609375 -3.832031 36.046875 -5.25 C 38.484375 -6.675781 40.398438 -8.660156 41.796875 -11.203125 C 43.203125 -13.742188 43.90625 -16.640625 43.90625 -19.890625 C 43.90625 -23.140625 43.203125 -26.035156 41.796875 -28.578125 C 40.398438 -31.117188 38.484375 -33.097656 36.046875 -34.515625 C 33.609375 -35.941406 30.863281 -36.65625 27.8125 -36.65625 C 24.769531 -36.65625 22.039062 -35.941406 19.625 -34.515625 C 17.207031 -33.097656 15.300781 -31.117188 13.90625 -28.578125 C 12.507812 -26.035156 11.8125 -23.140625 11.8125 -19.890625 C 11.8125 -16.640625 12.507812 -13.742188 13.90625 -11.203125 C 15.300781 -8.660156 17.207031 -6.675781 19.625 -5.25 C 22.039062 -3.832031 24.769531 -3.125 27.8125 -3.125 Z M 27.8125 -3.125 "/></g></g></g><g fill="#ffffff" fill-opacity="1"><g transform="translate(1107.497387, 678.142068)"><g><path d="M 28.046875 -40.09375 C 31.753906 -40.09375 35.109375 -39.226562 38.109375 -37.5 C 41.109375 -35.769531 43.457031 -33.378906 45.15625 -30.328125 C 46.863281 -27.285156 47.71875 -23.804688 47.71875 -19.890625 C 47.71875 -15.984375 46.863281 -12.488281 45.15625 -9.40625 C 43.457031 -6.332031 41.109375 -3.941406 38.109375 -2.234375 C 35.109375 -0.535156 31.753906 0.3125 28.046875 0.3125 C 24.546875 0.3125 21.367188 -0.515625 18.515625 -2.171875 C 15.671875 -3.828125 13.460938 -6.125 11.890625 -9.0625 L 11.890625 14.78125 L 8.078125 14.78125 L 8.078125 -39.78125 L 11.734375 -39.78125 L 11.734375 -30.40625 C 13.304688 -33.457031 15.53125 -35.832031 18.40625 -37.53125 C 21.28125 -39.238281 24.492188 -40.09375 28.046875 -40.09375 Z M 27.8125 -3.125 C 30.863281 -3.125 33.609375 -3.832031 36.046875 -5.25 C 38.484375 -6.675781 40.398438 -8.660156 41.796875 -11.203125 C 43.203125 -13.742188 43.90625 -16.640625 43.90625 -19.890625 C 43.90625 -23.140625 43.203125 -26.035156 41.796875 -28.578125 C 40.398438 -31.117188 38.484375 -33.097656 36.046875 -34.515625 C 33.609375 -35.941406 30.863281 -36.65625 27.8125 -36.65625 C 24.769531 -36.65625 22.039062 -35.941406 19.625 -34.515625 C 17.207031 -33.097656 15.300781 -31.117188 13.90625 -28.578125 C 12.507812 -26.035156 11.8125 -23.140625 11.8125 -19.890625 C 11.8125 -16.640625 12.507812 -13.742188 13.90625 -11.203125 C 15.300781 -8.660156 17.207031 -6.675781 19.625 -5.25 C 22.039062 -3.832031 24.769531 -3.125 27.8125 -3.125 Z M 27.8125 -3.125 "/></g></g></g><g fill="#ffffff" fill-opacity="1"><g transform="translate(1158.944212, 678.142068)"><g><path d="M 8.078125 -39.78125 L 11.890625 -39.78125 L 11.890625 0 L 8.078125 0 Z M 9.984375 -49.46875 C 9.117188 -49.46875 8.378906 -49.757812 7.765625 -50.34375 C 7.160156 -50.925781 6.859375 -51.648438 6.859375 -52.515625 C 6.859375 -53.378906 7.160156 -54.113281 7.765625 -54.71875 C 8.378906 -55.332031 9.117188 -55.640625 9.984375 -55.640625 C 10.847656 -55.640625 11.582031 -55.347656 12.1875 -54.765625 C 12.800781 -54.179688 13.109375 -53.457031 13.109375 -52.59375 C 13.109375 -51.726562 12.800781 -50.988281 12.1875 -50.375 C 11.582031 -49.769531 10.847656 -49.46875 9.984375 -49.46875 Z M 9.984375 -49.46875 "/></g></g></g><g fill="#ffffff" fill-opacity="1"><g transform="translate(1178.836916, 678.142068)"><g><path d="M 27.515625 -40.09375 C 32.492188 -40.09375 36.429688 -38.644531 39.328125 -35.75 C 42.222656 -32.851562 43.671875 -28.6875 43.671875 -23.25 L 43.671875 0 L 39.859375 0 L 39.859375 -22.9375 C 39.859375 -27.414062 38.726562 -30.820312 36.46875 -33.15625 C 34.207031 -35.488281 31.046875 -36.65625 26.984375 -36.65625 C 22.304688 -36.65625 18.617188 -35.257812 15.921875 -32.46875 C 13.234375 -29.675781 11.890625 -25.914062 11.890625 -21.1875 L 11.890625 0 L 8.078125 0 L 8.078125 -39.78125 L 11.734375 -39.78125 L 11.734375 -31.171875 C 13.109375 -33.960938 15.15625 -36.144531 17.875 -37.71875 C 20.59375 -39.300781 23.804688 -40.09375 27.515625 -40.09375 Z M 27.515625 -40.09375 "/></g></g></g><g fill="#ffffff" fill-opacity="1"><g transform="translate(1230.131222, 678.142068)"><g><path d="M 41.6875 -18.984375 L 7.46875 -18.984375 C 7.570312 -15.878906 8.359375 -13.117188 9.828125 -10.703125 C 11.304688 -8.296875 13.300781 -6.429688 15.8125 -5.109375 C 18.332031 -3.785156 21.164062 -3.125 24.3125 -3.125 C 26.90625 -3.125 29.304688 -3.59375 31.515625 -4.53125 C 33.722656 -5.46875 35.566406 -6.851562 37.046875 -8.6875 L 39.25 -6.171875 C 37.519531 -4.085938 35.347656 -2.484375 32.734375 -1.359375 C 30.117188 -0.242188 27.285156 0.3125 24.234375 0.3125 C 20.273438 0.3125 16.742188 -0.550781 13.640625 -2.28125 C 10.546875 -4.007812 8.117188 -6.398438 6.359375 -9.453125 C 4.609375 -12.503906 3.734375 -15.984375 3.734375 -19.890625 C 3.734375 -23.753906 4.554688 -27.222656 6.203125 -30.296875 C 7.859375 -33.367188 10.132812 -35.769531 13.03125 -37.5 C 15.925781 -39.226562 19.179688 -40.09375 22.796875 -40.09375 C 26.398438 -40.09375 29.632812 -39.238281 32.5 -37.53125 C 35.375 -35.832031 37.632812 -33.457031 39.28125 -30.40625 C 40.9375 -27.363281 41.765625 -23.910156 41.765625 -20.046875 Z M 22.796875 -36.734375 C 19.992188 -36.734375 17.472656 -36.109375 15.234375 -34.859375 C 13.003906 -33.617188 11.210938 -31.867188 9.859375 -29.609375 C 8.515625 -27.347656 7.742188 -24.796875 7.546875 -21.953125 L 38.03125 -21.953125 C 37.875 -24.796875 37.109375 -27.332031 35.734375 -29.5625 C 34.367188 -31.800781 32.566406 -33.554688 30.328125 -34.828125 C 28.097656 -36.097656 25.585938 -36.734375 22.796875 -36.734375 Z M 22.796875 -36.734375 "/></g></g></g><g fill="#ffffff" fill-opacity="1"><g transform="translate(1275.633, 678.142068)"><g><path d="M 18.140625 0.3125 C 14.941406 0.3125 11.894531 -0.171875 9 -1.140625 C 6.101562 -2.109375 3.835938 -3.328125 2.203125 -4.796875 L 3.96875 -7.84375 C 5.59375 -6.476562 7.6875 -5.335938 10.25 -4.421875 C 12.8125 -3.503906 15.492188 -3.046875 18.296875 -3.046875 C 22.304688 -3.046875 25.265625 -3.707031 27.171875 -5.03125 C 29.078125 -6.351562 30.03125 -8.179688 30.03125 -10.515625 C 30.03125 -12.191406 29.507812 -13.515625 28.46875 -14.484375 C 27.425781 -15.453125 26.140625 -16.160156 24.609375 -16.609375 C 23.085938 -17.066406 20.984375 -17.550781 18.296875 -18.0625 C 15.140625 -18.625 12.597656 -19.234375 10.671875 -19.890625 C 8.742188 -20.554688 7.09375 -21.625 5.71875 -23.09375 C 4.34375 -24.5625 3.65625 -26.59375 3.65625 -29.1875 C 3.65625 -32.34375 4.960938 -34.945312 7.578125 -37 C 10.203125 -39.0625 13.925781 -40.09375 18.75 -40.09375 C 21.289062 -40.09375 23.804688 -39.734375 26.296875 -39.015625 C 28.785156 -38.304688 30.816406 -37.367188 32.390625 -36.203125 L 30.640625 -33.15625 C 29.015625 -34.320312 27.160156 -35.207031 25.078125 -35.8125 C 22.992188 -36.425781 20.859375 -36.734375 18.671875 -36.734375 C 14.960938 -36.734375 12.164062 -36.046875 10.28125 -34.671875 C 8.40625 -33.304688 7.46875 -31.503906 7.46875 -29.265625 C 7.46875 -27.484375 8 -26.097656 9.0625 -25.109375 C 10.132812 -24.117188 11.441406 -23.378906 12.984375 -22.890625 C 14.535156 -22.410156 16.710938 -21.894531 19.515625 -21.34375 C 22.609375 -20.78125 25.109375 -20.179688 27.015625 -19.546875 C 28.921875 -18.910156 30.535156 -17.878906 31.859375 -16.453125 C 33.179688 -15.035156 33.84375 -13.082031 33.84375 -10.59375 C 33.84375 -7.289062 32.46875 -4.644531 29.71875 -2.65625 C 26.976562 -0.675781 23.117188 0.3125 18.140625 0.3125 Z M 18.140625 0.3125 "/></g></g></g></svg>