<svg xmlns="http://www.w3.org/2000/svg" xmlns:xlink="http://www.w3.org/1999/xlink" width="2000" zoomAndPan="magnify" viewBox="0 0 1500 749.999995" height="1000" preserveAspectRatio="xMidYMid meet" version="1.0"><defs><g/></defs><g fill="#ffffff" fill-opacity="1"><g transform="translate(23.861927, 119.052633)"><g><path d="M 37.289062 -58.753906 L 31.890625 -58.753906 L 32.382812 -70.46875 L 68.6875 -70.46875 L 68.6875 -90.15625 L 11.652344 -90.15625 L 9.199219 -40.601562 L 33.300781 -40.601562 C 47.101562 -40.601562 50.84375 -36.308594 50.84375 -29.621094 C 50.84375 -23.121094 47.589844 -18.949219 39.925781 -18.949219 C 33.667969 -18.949219 28.761719 -22.203125 28.761719 -29.007812 C 28.761719 -29.988281 28.886719 -31.15625 29.132812 -32.382812 L 7.175781 -31.644531 C 6.929688 -30.175781 6.808594 -28.640625 6.808594 -27.230469 C 6.808594 -9.933594 21.710938 1.410156 40.417969 1.410156 C 60.042969 1.410156 73.226562 -10.546875 73.226562 -30.542969 C 73.226562 -49.617188 61.390625 -58.753906 37.289062 -58.753906 Z M 37.289062 -58.753906 "/></g></g></g><g fill="#ffffff" fill-opacity="1"><g transform="translate(101.743898, 119.052633)"><g><path d="M 39.3125 -91.441406 C 20.851562 -91.441406 4.414062 -78.132812 4.414062 -59.796875 C 4.414062 -41.949219 18.214844 -30.175781 34.039062 -30.175781 C 34.773438 -30.175781 35.449219 -30.175781 36.183594 -30.234375 L 13.554688 0 L 38.578125 0 L 65.316406 -37.164062 C 71.449219 -45.691406 73.472656 -52.621094 73.472656 -59.429688 C 73.472656 -77.089844 58.632812 -91.441406 39.3125 -91.441406 Z M 26.25 -59.183594 C 26.496094 -66.175781 31.890625 -71.570312 39.925781 -71.570312 C 48.511719 -71.570312 52.988281 -65.683594 52.621094 -58.507812 C 52.253906 -51.394531 47.46875 -45.996094 39.558594 -45.996094 C 30.910156 -45.996094 26.003906 -52.128906 26.25 -59.183594 Z M 26.25 -59.183594 "/></g></g></g><g fill="#ffffff" fill-opacity="1"><g transform="translate(179.638473, 126.400032)"><g><path d="M 23.984375 0 L 31.683594 0 L 31.683594 -8.355469 L 27.410156 -8.355469 C 23.796875 -8.355469 21.402344 -10.515625 21.402344 -14.925781 L 21.402344 -38.769531 L 31.683594 -38.769531 L 31.683594 -47.21875 L 21.402344 -47.21875 L 21.402344 -62.660156 L 11.546875 -62.660156 L 11.546875 -55.339844 C 11.546875 -49.191406 9.246094 -47.21875 4.269531 -47.21875 L 1.03125 -47.21875 L 1.03125 -38.769531 L 10.46875 -38.769531 L 10.46875 -13.800781 C 10.46875 -4.976562 15.535156 0 23.984375 0 Z M 23.984375 0 "/></g></g></g><g fill="#ffffff" fill-opacity="1"><g transform="translate(214.791937, 126.400032)"><g><path d="M 33.277344 -48.109375 C 26.800781 -48.109375 21.636719 -45.578125 18.445312 -41.304688 L 18.445312 -72.097656 L 7.652344 -72.097656 L 7.652344 0 L 18.445312 0 L 18.445312 -27.128906 C 18.492188 -36.140625 23.890625 -39.285156 29.476562 -39.285156 C 34.59375 -39.285156 38.863281 -36.566406 38.863281 -28.914062 L 38.863281 0 L 49.753906 0 L 49.753906 -30.792969 C 49.753906 -42.289062 43.277344 -48.109375 33.277344 -48.109375 Z M 33.277344 -48.109375 "/></g></g></g><path stroke-linecap="butt" transform="matrix(0.75, -0.000000000000000186, 0.000000000000000186, 0.75, 315.584344, 81.910278)" fill="none" stroke-linejoin="miter" d="M 0.00212424 9.499838 L 1510.68449 9.499838 " stroke="#ffffff" stroke-width="19" stroke-opacity="1" stroke-miterlimit="4"/><path stroke-linecap="butt" transform="matrix(0, -0.75, 0.75, 0, 1434.685135, 325.651058)" fill="none" stroke-linejoin="miter" d="M -0.00171469 9.497945 L 325.289968 9.497945 " stroke="#ffffff" stroke-width="19" stroke-opacity="1" stroke-miterlimit="4"/><g fill="#ffffff" fill-opacity="1"><g transform="translate(96.96895, 265.413649)"><g><path d="M 33.890625 1.203125 C 26.148438 1.203125 19.945312 -1.15625 15.28125 -5.875 C 10.613281 -10.59375 8.28125 -16.914062 8.28125 -24.84375 L 8.28125 -80.71875 C 8.28125 -88.550781 10.613281 -94.828125 15.28125 -99.546875 C 19.945312 -104.265625 26.148438 -106.625 33.890625 -106.625 C 41.710938 -106.625 47.957031 -104.285156 52.625 -99.609375 C 57.300781 -94.941406 59.640625 -88.644531 59.640625 -80.71875 L 59.640625 -78.15625 C 59.640625 -77.15625 59.132812 -76.65625 58.125 -76.65625 L 50.296875 -76.203125 C 49.296875 -76.203125 48.796875 -76.703125 48.796875 -77.703125 L 48.796875 -81.46875 C 48.796875 -86.1875 47.4375 -90 44.71875 -92.90625 C 42.007812 -95.820312 38.398438 -97.28125 33.890625 -97.28125 C 29.460938 -97.28125 25.867188 -95.820312 23.109375 -92.90625 C 20.347656 -90 18.96875 -86.1875 18.96875 -81.46875 L 18.96875 -23.9375 C 18.96875 -19.21875 20.347656 -15.398438 23.109375 -12.484375 C 25.867188 -9.578125 29.460938 -8.125 33.890625 -8.125 C 38.398438 -8.125 42.007812 -9.578125 44.71875 -12.484375 C 47.4375 -15.398438 48.796875 -19.21875 48.796875 -23.9375 L 48.796875 -27.703125 C 48.796875 -28.710938 49.296875 -29.21875 50.296875 -29.21875 L 58.125 -28.765625 C 59.132812 -28.765625 59.640625 -28.257812 59.640625 -27.25 L 59.640625 -24.84375 C 59.640625 -16.914062 57.28125 -10.59375 52.5625 -5.875 C 47.84375 -1.15625 41.617188 1.203125 33.890625 1.203125 Z M 33.890625 1.203125 "/></g></g></g><g fill="#ffffff" fill-opacity="1"><g transform="translate(164.129741, 265.413649)"><g><path d="M 31.171875 1.203125 C 23.941406 1.203125 18.191406 -0.898438 13.921875 -5.109375 C 9.660156 -9.328125 7.53125 -14.90625 7.53125 -21.84375 L 7.53125 -54.21875 C 7.53125 -61.039062 9.6875 -66.609375 14 -70.921875 C 18.320312 -75.242188 24.046875 -77.40625 31.171875 -77.40625 C 38.398438 -77.40625 44.171875 -75.242188 48.484375 -70.921875 C 52.804688 -66.609375 54.96875 -61.039062 54.96875 -54.21875 L 54.96875 -21.84375 C 54.96875 -14.90625 52.804688 -9.328125 48.484375 -5.109375 C 44.171875 -0.898438 38.398438 1.203125 31.171875 1.203125 Z M 31.171875 -8.28125 C 34.984375 -8.28125 38.117188 -9.582031 40.578125 -12.1875 C 43.046875 -14.800781 44.28125 -18.269531 44.28125 -22.59375 L 44.28125 -53.609375 C 44.28125 -57.929688 43.046875 -61.421875 40.578125 -64.078125 C 38.117188 -66.734375 34.984375 -68.0625 31.171875 -68.0625 C 27.359375 -68.0625 24.242188 -66.734375 21.828125 -64.078125 C 19.421875 -61.421875 18.21875 -57.929688 18.21875 -53.609375 L 18.21875 -22.59375 C 18.21875 -18.269531 19.421875 -14.800781 21.828125 -12.1875 C 24.242188 -9.582031 27.359375 -8.28125 31.171875 -8.28125 Z M 31.171875 -8.28125 "/></g></g></g><g fill="#ffffff" fill-opacity="1"><g transform="translate(226.622411, 265.413649)"><g><path d="M 36.296875 -77.25 C 42.421875 -77.25 47.160156 -75.140625 50.515625 -70.921875 C 53.878906 -66.710938 55.5625 -60.84375 55.5625 -53.3125 L 55.5625 -1.5 C 55.5625 -0.5 55.0625 0 54.0625 0 L 46.390625 0 C 45.378906 0 44.875 -0.5 44.875 -1.5 L 44.875 -52.40625 C 44.875 -57.320312 43.796875 -61.132812 41.640625 -63.84375 C 39.484375 -66.5625 36.492188 -67.921875 32.671875 -67.921875 C 28.660156 -67.921875 25.523438 -66.460938 23.265625 -63.546875 C 21.003906 -60.640625 19.875 -56.675781 19.875 -51.65625 L 19.875 -1.5 C 19.875 -0.5 19.375 0 18.375 0 L 10.6875 0 C 9.6875 0 9.1875 -0.5 9.1875 -1.5 L 9.1875 -74.6875 C 9.1875 -75.695312 9.6875 -76.203125 10.6875 -76.203125 L 18.375 -76.203125 C 19.375 -76.203125 19.875 -75.695312 19.875 -74.6875 L 19.875 -69.875 C 19.875 -69.675781 19.972656 -69.523438 20.171875 -69.421875 C 20.378906 -69.316406 20.53125 -69.414062 20.625 -69.71875 C 22.4375 -72.226562 24.722656 -74.109375 27.484375 -75.359375 C 30.242188 -76.617188 33.179688 -77.25 36.296875 -77.25 Z M 36.296875 -77.25 "/></g></g></g><g fill="#ffffff" fill-opacity="1"><g transform="translate(290.470334, 265.413649)"><g><path d="M 33.4375 -97.28125 C 29.613281 -97.28125 26.898438 -96 25.296875 -93.4375 C 23.691406 -90.882812 22.890625 -86.894531 22.890625 -81.46875 L 22.890625 -76.796875 C 22.890625 -76.398438 23.09375 -76.203125 23.5 -76.203125 L 35.09375 -76.203125 C 36.09375 -76.203125 36.59375 -75.695312 36.59375 -74.6875 L 36.59375 -69.71875 C 36.59375 -68.71875 36.09375 -68.21875 35.09375 -68.21875 L 23.5 -68.21875 C 23.09375 -68.21875 22.890625 -68.015625 22.890625 -67.609375 L 22.890625 -1.5 C 22.890625 -0.5 22.390625 0 21.390625 0 L 13.859375 0 C 12.847656 0 12.34375 -0.5 12.34375 -1.5 L 12.34375 -67.609375 C 12.34375 -68.015625 12.144531 -68.21875 11.75 -68.21875 L 5.71875 -68.21875 C 4.71875 -68.21875 4.21875 -68.71875 4.21875 -69.71875 L 4.21875 -74.6875 C 4.21875 -75.695312 4.71875 -76.203125 5.71875 -76.203125 L 11.75 -76.203125 C 12.144531 -76.203125 12.34375 -76.398438 12.34375 -76.796875 L 12.34375 -81.625 C 12.34375 -90.351562 13.945312 -96.675781 17.15625 -100.59375 C 20.375 -104.507812 25.75 -106.46875 33.28125 -106.46875 L 35.390625 -106.46875 C 36.390625 -106.46875 36.890625 -105.96875 36.890625 -104.96875 L 36.75 -98.796875 C 36.75 -97.785156 36.242188 -97.28125 35.234375 -97.28125 Z M 33.4375 -97.28125 "/></g></g></g><g fill="#ffffff" fill-opacity="1"><g transform="translate(332.182309, 265.413649)"><g><path d="M 54.671875 -35.546875 C 54.671875 -34.535156 54.164062 -34.03125 53.15625 -34.03125 L 18.828125 -34.03125 C 18.421875 -34.03125 18.21875 -33.832031 18.21875 -33.4375 L 18.21875 -22.4375 C 18.21875 -18.21875 19.394531 -14.773438 21.75 -12.109375 C 24.113281 -9.453125 27.203125 -8.125 31.015625 -8.125 C 34.234375 -8.125 36.972656 -9.101562 39.234375 -11.0625 C 41.492188 -13.019531 42.972656 -15.554688 43.671875 -18.671875 C 43.972656 -19.578125 44.523438 -20.03125 45.328125 -20.03125 L 52.859375 -19.734375 C 53.253906 -19.734375 53.601562 -19.582031 53.90625 -19.28125 C 54.207031 -18.976562 54.3125 -18.578125 54.21875 -18.078125 C 53.414062 -12.148438 50.976562 -7.453125 46.90625 -3.984375 C 42.84375 -0.523438 37.546875 1.203125 31.015625 1.203125 C 23.890625 1.203125 18.191406 -0.898438 13.921875 -5.109375 C 9.660156 -9.328125 7.53125 -14.90625 7.53125 -21.84375 L 7.53125 -54.359375 C 7.53125 -61.191406 9.660156 -66.738281 13.921875 -71 C 18.191406 -75.269531 23.890625 -77.40625 31.015625 -77.40625 C 38.242188 -77.40625 43.992188 -75.269531 48.265625 -71 C 52.535156 -66.738281 54.671875 -61.191406 54.671875 -54.359375 Z M 31.015625 -68.0625 C 27.203125 -68.0625 24.113281 -66.734375 21.75 -64.078125 C 19.394531 -61.421875 18.21875 -57.929688 18.21875 -53.609375 L 18.21875 -43.515625 C 18.21875 -43.117188 18.421875 -42.921875 18.828125 -42.921875 L 43.515625 -42.921875 C 43.921875 -42.921875 44.125 -43.117188 44.125 -43.515625 L 44.125 -53.609375 C 44.125 -57.929688 42.914062 -61.421875 40.5 -64.078125 C 38.09375 -66.734375 34.929688 -68.0625 31.015625 -68.0625 Z M 31.015625 -68.0625 "/></g></g></g><g fill="#ffffff" fill-opacity="1"><g transform="translate(393.470311, 265.413649)"><g><path d="M 34.9375 -76.953125 C 37.445312 -76.953125 39.601562 -76.398438 41.40625 -75.296875 C 42.113281 -74.890625 42.367188 -74.238281 42.171875 -73.34375 L 40.359375 -65.515625 C 40.253906 -64.609375 39.648438 -64.304688 38.546875 -64.609375 C 37.347656 -65.210938 35.84375 -65.515625 34.03125 -65.515625 C 33.226562 -65.515625 32.628906 -65.460938 32.234375 -65.359375 C 28.617188 -65.160156 25.65625 -63.273438 23.34375 -59.703125 C 21.03125 -56.140625 19.875 -51.800781 19.875 -46.6875 L 19.875 -1.5 C 19.875 -0.5 19.375 0 18.375 0 L 10.6875 0 C 9.6875 0 9.1875 -0.5 9.1875 -1.5 L 9.1875 -74.6875 C 9.1875 -75.695312 9.6875 -76.203125 10.6875 -76.203125 L 18.375 -76.203125 C 19.375 -76.203125 19.875 -75.695312 19.875 -74.6875 L 19.875 -65.65625 C 19.875 -65.351562 19.945312 -65.203125 20.09375 -65.203125 C 20.25 -65.203125 20.425781 -65.304688 20.625 -65.515625 C 23.539062 -73.140625 28.3125 -76.953125 34.9375 -76.953125 Z M 34.9375 -76.953125 "/></g></g></g><g fill="#ffffff" fill-opacity="1"><g transform="translate(437.44106, 265.413649)"><g><path d="M 54.671875 -35.546875 C 54.671875 -34.535156 54.164062 -34.03125 53.15625 -34.03125 L 18.828125 -34.03125 C 18.421875 -34.03125 18.21875 -33.832031 18.21875 -33.4375 L 18.21875 -22.4375 C 18.21875 -18.21875 19.394531 -14.773438 21.75 -12.109375 C 24.113281 -9.453125 27.203125 -8.125 31.015625 -8.125 C 34.234375 -8.125 36.972656 -9.101562 39.234375 -11.0625 C 41.492188 -13.019531 42.972656 -15.554688 43.671875 -18.671875 C 43.972656 -19.578125 44.523438 -20.03125 45.328125 -20.03125 L 52.859375 -19.734375 C 53.253906 -19.734375 53.601562 -19.582031 53.90625 -19.28125 C 54.207031 -18.976562 54.3125 -18.578125 54.21875 -18.078125 C 53.414062 -12.148438 50.976562 -7.453125 46.90625 -3.984375 C 42.84375 -0.523438 37.546875 1.203125 31.015625 1.203125 C 23.890625 1.203125 18.191406 -0.898438 13.921875 -5.109375 C 9.660156 -9.328125 7.53125 -14.90625 7.53125 -21.84375 L 7.53125 -54.359375 C 7.53125 -61.191406 9.660156 -66.738281 13.921875 -71 C 18.191406 -75.269531 23.890625 -77.40625 31.015625 -77.40625 C 38.242188 -77.40625 43.992188 -75.269531 48.265625 -71 C 52.535156 -66.738281 54.671875 -61.191406 54.671875 -54.359375 Z M 31.015625 -68.0625 C 27.203125 -68.0625 24.113281 -66.734375 21.75 -64.078125 C 19.394531 -61.421875 18.21875 -57.929688 18.21875 -53.609375 L 18.21875 -43.515625 C 18.21875 -43.117188 18.421875 -42.921875 18.828125 -42.921875 L 43.515625 -42.921875 C 43.921875 -42.921875 44.125 -43.117188 44.125 -43.515625 L 44.125 -53.609375 C 44.125 -57.929688 42.914062 -61.421875 40.5 -64.078125 C 38.09375 -66.734375 34.929688 -68.0625 31.015625 -68.0625 Z M 31.015625 -68.0625 "/></g></g></g><g fill="#ffffff" fill-opacity="1"><g transform="translate(498.729039, 265.413649)"><g><path d="M 36.296875 -77.25 C 42.421875 -77.25 47.160156 -75.140625 50.515625 -70.921875 C 53.878906 -66.710938 55.5625 -60.84375 55.5625 -53.3125 L 55.5625 -1.5 C 55.5625 -0.5 55.0625 0 54.0625 0 L 46.390625 0 C 45.378906 0 44.875 -0.5 44.875 -1.5 L 44.875 -52.40625 C 44.875 -57.320312 43.796875 -61.132812 41.640625 -63.84375 C 39.484375 -66.5625 36.492188 -67.921875 32.671875 -67.921875 C 28.660156 -67.921875 25.523438 -66.460938 23.265625 -63.546875 C 21.003906 -60.640625 19.875 -56.675781 19.875 -51.65625 L 19.875 -1.5 C 19.875 -0.5 19.375 0 18.375 0 L 10.6875 0 C 9.6875 0 9.1875 -0.5 9.1875 -1.5 L 9.1875 -74.6875 C 9.1875 -75.695312 9.6875 -76.203125 10.6875 -76.203125 L 18.375 -76.203125 C 19.375 -76.203125 19.875 -75.695312 19.875 -74.6875 L 19.875 -69.875 C 19.875 -69.675781 19.972656 -69.523438 20.171875 -69.421875 C 20.378906 -69.316406 20.53125 -69.414062 20.625 -69.71875 C 22.4375 -72.226562 24.722656 -74.109375 27.484375 -75.359375 C 30.242188 -76.617188 33.179688 -77.25 36.296875 -77.25 Z M 36.296875 -77.25 "/></g></g></g><g fill="#ffffff" fill-opacity="1"><g transform="translate(562.57695, 265.413649)"><g><path d="M 31.015625 1.203125 C 23.890625 1.203125 18.191406 -0.898438 13.921875 -5.109375 C 9.660156 -9.328125 7.53125 -14.90625 7.53125 -21.84375 L 7.53125 -54.359375 C 7.53125 -61.191406 9.6875 -66.738281 14 -71 C 18.320312 -75.269531 23.992188 -77.40625 31.015625 -77.40625 C 35.734375 -77.40625 39.898438 -76.453125 43.515625 -74.546875 C 47.128906 -72.640625 49.914062 -70.101562 51.875 -66.9375 C 53.832031 -63.769531 54.8125 -60.28125 54.8125 -56.46875 L 54.8125 -54.96875 C 54.8125 -53.957031 54.3125 -53.453125 53.3125 -53.453125 L 45.625 -53.15625 C 44.625 -53.15625 44.125 -53.660156 44.125 -54.671875 L 44.125 -55.71875 C 44.125 -59.03125 42.894531 -61.914062 40.4375 -64.375 C 37.976562 -66.832031 34.835938 -68.0625 31.015625 -68.0625 C 27.203125 -68.0625 24.113281 -66.734375 21.75 -64.078125 C 19.394531 -61.421875 18.21875 -57.929688 18.21875 -53.609375 L 18.21875 -22.59375 C 18.21875 -18.269531 19.394531 -14.773438 21.75 -12.109375 C 24.113281 -9.453125 27.203125 -8.125 31.015625 -8.125 C 34.835938 -8.125 37.976562 -9.351562 40.4375 -11.8125 C 42.894531 -14.28125 44.125 -17.171875 44.125 -20.484375 L 44.125 -21.53125 C 44.125 -22.539062 44.625 -23.046875 45.625 -23.046875 L 53.3125 -22.890625 C 54.3125 -22.890625 54.8125 -22.390625 54.8125 -21.390625 L 54.8125 -19.734375 C 54.8125 -13.703125 52.628906 -8.703125 48.265625 -4.734375 C 43.898438 -0.773438 38.148438 1.203125 31.015625 1.203125 Z M 31.015625 1.203125 "/></g></g></g><g fill="#ffffff" fill-opacity="1"><g transform="translate(623.112016, 265.413649)"><g><path d="M 54.671875 -35.546875 C 54.671875 -34.535156 54.164062 -34.03125 53.15625 -34.03125 L 18.828125 -34.03125 C 18.421875 -34.03125 18.21875 -33.832031 18.21875 -33.4375 L 18.21875 -22.4375 C 18.21875 -18.21875 19.394531 -14.773438 21.75 -12.109375 C 24.113281 -9.453125 27.203125 -8.125 31.015625 -8.125 C 34.234375 -8.125 36.972656 -9.101562 39.234375 -11.0625 C 41.492188 -13.019531 42.972656 -15.554688 43.671875 -18.671875 C 43.972656 -19.578125 44.523438 -20.03125 45.328125 -20.03125 L 52.859375 -19.734375 C 53.253906 -19.734375 53.601562 -19.582031 53.90625 -19.28125 C 54.207031 -18.976562 54.3125 -18.578125 54.21875 -18.078125 C 53.414062 -12.148438 50.976562 -7.453125 46.90625 -3.984375 C 42.84375 -0.523438 37.546875 1.203125 31.015625 1.203125 C 23.890625 1.203125 18.191406 -0.898438 13.921875 -5.109375 C 9.660156 -9.328125 7.53125 -14.90625 7.53125 -21.84375 L 7.53125 -54.359375 C 7.53125 -61.191406 9.660156 -66.738281 13.921875 -71 C 18.191406 -75.269531 23.890625 -77.40625 31.015625 -77.40625 C 38.242188 -77.40625 43.992188 -75.269531 48.265625 -71 C 52.535156 -66.738281 54.671875 -61.191406 54.671875 -54.359375 Z M 31.015625 -68.0625 C 27.203125 -68.0625 24.113281 -66.734375 21.75 -64.078125 C 19.394531 -61.421875 18.21875 -57.929688 18.21875 -53.609375 L 18.21875 -43.515625 C 18.21875 -43.117188 18.421875 -42.921875 18.828125 -42.921875 L 43.515625 -42.921875 C 43.921875 -42.921875 44.125 -43.117188 44.125 -43.515625 L 44.125 -53.609375 C 44.125 -57.929688 42.914062 -61.421875 40.5 -64.078125 C 38.09375 -66.734375 34.929688 -68.0625 31.015625 -68.0625 Z M 31.015625 -68.0625 "/></g></g></g><g fill="#ffffff" fill-opacity="1"><g transform="translate(684.399996, 265.413649)"><g/></g></g><g fill="#ffffff" fill-opacity="1"><g transform="translate(714.516932, 265.413649)"><g><path d="M 31.171875 1.203125 C 23.941406 1.203125 18.191406 -0.898438 13.921875 -5.109375 C 9.660156 -9.328125 7.53125 -14.90625 7.53125 -21.84375 L 7.53125 -54.21875 C 7.53125 -61.039062 9.6875 -66.609375 14 -70.921875 C 18.320312 -75.242188 24.046875 -77.40625 31.171875 -77.40625 C 38.398438 -77.40625 44.171875 -75.242188 48.484375 -70.921875 C 52.804688 -66.609375 54.96875 -61.039062 54.96875 -54.21875 L 54.96875 -21.84375 C 54.96875 -14.90625 52.804688 -9.328125 48.484375 -5.109375 C 44.171875 -0.898438 38.398438 1.203125 31.171875 1.203125 Z M 31.171875 -8.28125 C 34.984375 -8.28125 38.117188 -9.582031 40.578125 -12.1875 C 43.046875 -14.800781 44.28125 -18.269531 44.28125 -22.59375 L 44.28125 -53.609375 C 44.28125 -57.929688 43.046875 -61.421875 40.578125 -64.078125 C 38.117188 -66.734375 34.984375 -68.0625 31.171875 -68.0625 C 27.359375 -68.0625 24.242188 -66.734375 21.828125 -64.078125 C 19.421875 -61.421875 18.21875 -57.929688 18.21875 -53.609375 L 18.21875 -22.59375 C 18.21875 -18.269531 19.421875 -14.800781 21.828125 -12.1875 C 24.242188 -9.582031 27.359375 -8.28125 31.171875 -8.28125 Z M 31.171875 -8.28125 "/></g></g></g><g fill="#ffffff" fill-opacity="1"><g transform="translate(777.00959, 265.413649)"><g><path d="M 33.4375 -97.28125 C 29.613281 -97.28125 26.898438 -96 25.296875 -93.4375 C 23.691406 -90.882812 22.890625 -86.894531 22.890625 -81.46875 L 22.890625 -76.796875 C 22.890625 -76.398438 23.09375 -76.203125 23.5 -76.203125 L 35.09375 -76.203125 C 36.09375 -76.203125 36.59375 -75.695312 36.59375 -74.6875 L 36.59375 -69.71875 C 36.59375 -68.71875 36.09375 -68.21875 35.09375 -68.21875 L 23.5 -68.21875 C 23.09375 -68.21875 22.890625 -68.015625 22.890625 -67.609375 L 22.890625 -1.5 C 22.890625 -0.5 22.390625 0 21.390625 0 L 13.859375 0 C 12.847656 0 12.34375 -0.5 12.34375 -1.5 L 12.34375 -67.609375 C 12.34375 -68.015625 12.144531 -68.21875 11.75 -68.21875 L 5.71875 -68.21875 C 4.71875 -68.21875 4.21875 -68.71875 4.21875 -69.71875 L 4.21875 -74.6875 C 4.21875 -75.695312 4.71875 -76.203125 5.71875 -76.203125 L 11.75 -76.203125 C 12.144531 -76.203125 12.34375 -76.398438 12.34375 -76.796875 L 12.34375 -81.625 C 12.34375 -90.351562 13.945312 -96.675781 17.15625 -100.59375 C 20.375 -104.507812 25.75 -106.46875 33.28125 -106.46875 L 35.390625 -106.46875 C 36.390625 -106.46875 36.890625 -105.96875 36.890625 -104.96875 L 36.75 -98.796875 C 36.75 -97.785156 36.242188 -97.28125 35.234375 -97.28125 Z M 33.4375 -97.28125 "/></g></g></g><g fill="#ffffff" fill-opacity="1"><g transform="translate(818.721554, 265.413649)"><g/></g></g><g fill="#ffffff" fill-opacity="1"><g transform="translate(848.83849, 265.413649)"><g><path d="M 12.34375 0 C 11.34375 0 10.84375 -0.5 10.84375 -1.5 L 10.84375 -103.90625 C 10.84375 -104.914062 11.34375 -105.421875 12.34375 -105.421875 L 35.546875 -105.421875 C 43.273438 -105.421875 49.445312 -102.882812 54.0625 -97.8125 C 58.675781 -92.738281 60.984375 -85.9375 60.984375 -77.40625 L 60.984375 -28.015625 C 60.984375 -19.472656 58.675781 -12.664062 54.0625 -7.59375 C 49.445312 -2.53125 43.273438 0 35.546875 0 Z M 21.53125 -9.9375 C 21.53125 -9.539062 21.734375 -9.34375 22.140625 -9.34375 L 35.390625 -9.484375 C 39.804688 -9.484375 43.34375 -11.191406 46 -14.609375 C 48.664062 -18.023438 50.046875 -22.644531 50.140625 -28.46875 L 50.140625 -76.953125 C 50.140625 -82.878906 48.832031 -87.546875 46.21875 -90.953125 C 43.613281 -94.367188 40.003906 -96.078125 35.390625 -96.078125 L 22.140625 -96.078125 C 21.734375 -96.078125 21.53125 -95.875 21.53125 -95.46875 Z M 21.53125 -9.9375 "/></g></g></g><g fill="#ffffff" fill-opacity="1"><g transform="translate(918.860371, 265.413649)"><g><path d="M 15.65625 -90.0625 C 13.144531 -90.0625 11.113281 -90.863281 9.5625 -92.46875 C 8.007812 -94.070312 7.234375 -96.078125 7.234375 -98.484375 C 7.234375 -100.992188 8.007812 -103.023438 9.5625 -104.578125 C 11.113281 -106.140625 13.144531 -106.921875 15.65625 -106.921875 C 18.070312 -106.921875 20.054688 -106.140625 21.609375 -104.578125 C 23.160156 -103.023438 23.9375 -100.992188 23.9375 -98.484375 C 23.9375 -96.078125 23.160156 -94.070312 21.609375 -92.46875 C 20.054688 -90.863281 18.070312 -90.0625 15.65625 -90.0625 Z M 11.890625 0 C 10.890625 0 10.390625 -0.5 10.390625 -1.5 L 10.390625 -74.6875 C 10.390625 -75.695312 10.890625 -76.203125 11.890625 -76.203125 L 19.578125 -76.203125 C 20.578125 -76.203125 21.078125 -75.695312 21.078125 -74.6875 L 21.078125 -1.5 C 21.078125 -0.5 20.578125 0 19.578125 0 Z M 11.890625 0 "/></g></g></g><g fill="#ffffff" fill-opacity="1"><g transform="translate(950.182033, 265.413649)"><g><path d="M 34.9375 -76.953125 C 37.445312 -76.953125 39.601562 -76.398438 41.40625 -75.296875 C 42.113281 -74.890625 42.367188 -74.238281 42.171875 -73.34375 L 40.359375 -65.515625 C 40.253906 -64.609375 39.648438 -64.304688 38.546875 -64.609375 C 37.347656 -65.210938 35.84375 -65.515625 34.03125 -65.515625 C 33.226562 -65.515625 32.628906 -65.460938 32.234375 -65.359375 C 28.617188 -65.160156 25.65625 -63.273438 23.34375 -59.703125 C 21.03125 -56.140625 19.875 -51.800781 19.875 -46.6875 L 19.875 -1.5 C 19.875 -0.5 19.375 0 18.375 0 L 10.6875 0 C 9.6875 0 9.1875 -0.5 9.1875 -1.5 L 9.1875 -74.6875 C 9.1875 -75.695312 9.6875 -76.203125 10.6875 -76.203125 L 18.375 -76.203125 C 19.375 -76.203125 19.875 -75.695312 19.875 -74.6875 L 19.875 -65.65625 C 19.875 -65.351562 19.945312 -65.203125 20.09375 -65.203125 C 20.25 -65.203125 20.425781 -65.304688 20.625 -65.515625 C 23.539062 -73.140625 28.3125 -76.953125 34.9375 -76.953125 Z M 34.9375 -76.953125 "/></g></g></g><g fill="#ffffff" fill-opacity="1"><g transform="translate(994.152782, 265.413649)"><g><path d="M 54.671875 -35.546875 C 54.671875 -34.535156 54.164062 -34.03125 53.15625 -34.03125 L 18.828125 -34.03125 C 18.421875 -34.03125 18.21875 -33.832031 18.21875 -33.4375 L 18.21875 -22.4375 C 18.21875 -18.21875 19.394531 -14.773438 21.75 -12.109375 C 24.113281 -9.453125 27.203125 -8.125 31.015625 -8.125 C 34.234375 -8.125 36.972656 -9.101562 39.234375 -11.0625 C 41.492188 -13.019531 42.972656 -15.554688 43.671875 -18.671875 C 43.972656 -19.578125 44.523438 -20.03125 45.328125 -20.03125 L 52.859375 -19.734375 C 53.253906 -19.734375 53.601562 -19.582031 53.90625 -19.28125 C 54.207031 -18.976562 54.3125 -18.578125 54.21875 -18.078125 C 53.414062 -12.148438 50.976562 -7.453125 46.90625 -3.984375 C 42.84375 -0.523438 37.546875 1.203125 31.015625 1.203125 C 23.890625 1.203125 18.191406 -0.898438 13.921875 -5.109375 C 9.660156 -9.328125 7.53125 -14.90625 7.53125 -21.84375 L 7.53125 -54.359375 C 7.53125 -61.191406 9.660156 -66.738281 13.921875 -71 C 18.191406 -75.269531 23.890625 -77.40625 31.015625 -77.40625 C 38.242188 -77.40625 43.992188 -75.269531 48.265625 -71 C 52.535156 -66.738281 54.671875 -61.191406 54.671875 -54.359375 Z M 31.015625 -68.0625 C 27.203125 -68.0625 24.113281 -66.734375 21.75 -64.078125 C 19.394531 -61.421875 18.21875 -57.929688 18.21875 -53.609375 L 18.21875 -43.515625 C 18.21875 -43.117188 18.421875 -42.921875 18.828125 -42.921875 L 43.515625 -42.921875 C 43.921875 -42.921875 44.125 -43.117188 44.125 -43.515625 L 44.125 -53.609375 C 44.125 -57.929688 42.914062 -61.421875 40.5 -64.078125 C 38.09375 -66.734375 34.929688 -68.0625 31.015625 -68.0625 Z M 31.015625 -68.0625 "/></g></g></g><g fill="#ffffff" fill-opacity="1"><g transform="translate(1055.440809, 265.413649)"><g><path d="M 31.015625 1.203125 C 23.890625 1.203125 18.191406 -0.898438 13.921875 -5.109375 C 9.660156 -9.328125 7.53125 -14.90625 7.53125 -21.84375 L 7.53125 -54.359375 C 7.53125 -61.191406 9.6875 -66.738281 14 -71 C 18.320312 -75.269531 23.992188 -77.40625 31.015625 -77.40625 C 35.734375 -77.40625 39.898438 -76.453125 43.515625 -74.546875 C 47.128906 -72.640625 49.914062 -70.101562 51.875 -66.9375 C 53.832031 -63.769531 54.8125 -60.28125 54.8125 -56.46875 L 54.8125 -54.96875 C 54.8125 -53.957031 54.3125 -53.453125 53.3125 -53.453125 L 45.625 -53.15625 C 44.625 -53.15625 44.125 -53.660156 44.125 -54.671875 L 44.125 -55.71875 C 44.125 -59.03125 42.894531 -61.914062 40.4375 -64.375 C 37.976562 -66.832031 34.835938 -68.0625 31.015625 -68.0625 C 27.203125 -68.0625 24.113281 -66.734375 21.75 -64.078125 C 19.394531 -61.421875 18.21875 -57.929688 18.21875 -53.609375 L 18.21875 -22.59375 C 18.21875 -18.269531 19.394531 -14.773438 21.75 -12.109375 C 24.113281 -9.453125 27.203125 -8.125 31.015625 -8.125 C 34.835938 -8.125 37.976562 -9.351562 40.4375 -11.8125 C 42.894531 -14.28125 44.125 -17.171875 44.125 -20.484375 L 44.125 -21.53125 C 44.125 -22.539062 44.625 -23.046875 45.625 -23.046875 L 53.3125 -22.890625 C 54.3125 -22.890625 54.8125 -22.390625 54.8125 -21.390625 L 54.8125 -19.734375 C 54.8125 -13.703125 52.628906 -8.703125 48.265625 -4.734375 C 43.898438 -0.773438 38.148438 1.203125 31.015625 1.203125 Z M 31.015625 1.203125 "/></g></g></g><g fill="#ffffff" fill-opacity="1"><g transform="translate(1115.975828, 265.413649)"><g><path d="M 35.984375 -69.71875 C 35.984375 -68.71875 35.484375 -68.21875 34.484375 -68.21875 L 23.046875 -68.21875 C 22.640625 -68.21875 22.4375 -68.015625 22.4375 -67.609375 L 22.4375 -21.53125 C 22.4375 -16.914062 23.238281 -13.726562 24.84375 -11.96875 C 26.445312 -10.21875 28.910156 -9.390625 32.234375 -9.484375 L 33.734375 -9.484375 C 34.734375 -9.484375 35.234375 -8.984375 35.234375 -7.984375 L 35.234375 -1.5 C 35.234375 -0.5 34.734375 0 33.734375 0 L 29.96875 0 C 24.039062 0 19.546875 -1.28125 16.484375 -3.84375 C 13.421875 -6.40625 11.890625 -11.25 11.890625 -18.375 L 11.890625 -67.609375 C 11.890625 -68.015625 11.691406 -68.21875 11.296875 -68.21875 L 5.421875 -68.21875 C 4.421875 -68.21875 3.921875 -68.71875 3.921875 -69.71875 L 3.921875 -74.6875 C 3.921875 -75.695312 4.421875 -76.203125 5.421875 -76.203125 L 11.296875 -76.203125 C 11.691406 -76.203125 11.890625 -76.398438 11.890625 -76.796875 L 11.890625 -93.671875 C 11.890625 -94.671875 12.394531 -95.171875 13.40625 -95.171875 L 20.9375 -95.171875 C 21.9375 -95.171875 22.4375 -94.671875 22.4375 -93.671875 L 22.4375 -76.796875 C 22.4375 -76.398438 22.640625 -76.203125 23.046875 -76.203125 L 34.484375 -76.203125 C 35.484375 -76.203125 35.984375 -75.695312 35.984375 -74.6875 Z M 35.984375 -69.71875 "/></g></g></g><g fill="#ffffff" fill-opacity="1"><g transform="translate(1156.181918, 265.413649)"><g><path d="M 31.171875 1.203125 C 23.941406 1.203125 18.191406 -0.898438 13.921875 -5.109375 C 9.660156 -9.328125 7.53125 -14.90625 7.53125 -21.84375 L 7.53125 -54.21875 C 7.53125 -61.039062 9.6875 -66.609375 14 -70.921875 C 18.320312 -75.242188 24.046875 -77.40625 31.171875 -77.40625 C 38.398438 -77.40625 44.171875 -75.242188 48.484375 -70.921875 C 52.804688 -66.609375 54.96875 -61.039062 54.96875 -54.21875 L 54.96875 -21.84375 C 54.96875 -14.90625 52.804688 -9.328125 48.484375 -5.109375 C 44.171875 -0.898438 38.398438 1.203125 31.171875 1.203125 Z M 31.171875 -8.28125 C 34.984375 -8.28125 38.117188 -9.582031 40.578125 -12.1875 C 43.046875 -14.800781 44.28125 -18.269531 44.28125 -22.59375 L 44.28125 -53.609375 C 44.28125 -57.929688 43.046875 -61.421875 40.578125 -64.078125 C 38.117188 -66.734375 34.984375 -68.0625 31.171875 -68.0625 C 27.359375 -68.0625 24.242188 -66.734375 21.828125 -64.078125 C 19.421875 -61.421875 18.21875 -57.929688 18.21875 -53.609375 L 18.21875 -22.59375 C 18.21875 -18.269531 19.421875 -14.800781 21.828125 -12.1875 C 24.242188 -9.582031 27.359375 -8.28125 31.171875 -8.28125 Z M 31.171875 -8.28125 "/></g></g></g><g fill="#ffffff" fill-opacity="1"><g transform="translate(1218.674624, 265.413649)"><g><path d="M 34.9375 -76.953125 C 37.445312 -76.953125 39.601562 -76.398438 41.40625 -75.296875 C 42.113281 -74.890625 42.367188 -74.238281 42.171875 -73.34375 L 40.359375 -65.515625 C 40.253906 -64.609375 39.648438 -64.304688 38.546875 -64.609375 C 37.347656 -65.210938 35.84375 -65.515625 34.03125 -65.515625 C 33.226562 -65.515625 32.628906 -65.460938 32.234375 -65.359375 C 28.617188 -65.160156 25.65625 -63.273438 23.34375 -59.703125 C 21.03125 -56.140625 19.875 -51.800781 19.875 -46.6875 L 19.875 -1.5 C 19.875 -0.5 19.375 0 18.375 0 L 10.6875 0 C 9.6875 0 9.1875 -0.5 9.1875 -1.5 L 9.1875 -74.6875 C 9.1875 -75.695312 9.6875 -76.203125 10.6875 -76.203125 L 18.375 -76.203125 C 19.375 -76.203125 19.875 -75.695312 19.875 -74.6875 L 19.875 -65.65625 C 19.875 -65.351562 19.945312 -65.203125 20.09375 -65.203125 C 20.25 -65.203125 20.425781 -65.304688 20.625 -65.515625 C 23.539062 -73.140625 28.3125 -76.953125 34.9375 -76.953125 Z M 34.9375 -76.953125 "/></g></g></g><g fill="#ffffff" fill-opacity="1"><g transform="translate(1262.645373, 265.413649)"><g><path d="M 29.0625 0.75 C 22.132812 0.75 16.585938 -1.03125 12.421875 -4.59375 C 8.253906 -8.15625 6.171875 -12.898438 6.171875 -18.828125 L 6.171875 -19.875 C 6.171875 -20.882812 6.675781 -21.390625 7.6875 -21.390625 L 14.90625 -21.390625 C 15.914062 -21.390625 16.421875 -20.882812 16.421875 -19.875 L 16.421875 -18.96875 C 16.421875 -15.757812 17.597656 -13.050781 19.953125 -10.84375 C 22.316406 -8.632812 25.40625 -7.53125 29.21875 -7.53125 C 32.832031 -7.53125 35.742188 -8.632812 37.953125 -10.84375 C 40.160156 -13.050781 41.265625 -15.863281 41.265625 -19.28125 C 41.265625 -21.882812 40.5625 -24.066406 39.15625 -25.828125 C 37.75 -27.585938 36.113281 -28.96875 34.25 -29.96875 C 32.394531 -30.96875 29.613281 -32.273438 25.90625 -33.890625 C 21.988281 -35.492188 18.75 -37.070312 16.1875 -38.625 C 13.625 -40.1875 11.414062 -42.394531 9.5625 -45.25 C 7.707031 -48.113281 6.78125 -51.753906 6.78125 -56.171875 C 6.78125 -62.597656 8.757812 -67.664062 12.71875 -71.375 C 16.6875 -75.09375 22.035156 -76.953125 28.765625 -76.953125 C 35.585938 -76.953125 41.003906 -75.046875 45.015625 -71.234375 C 49.035156 -67.421875 51.046875 -62.347656 51.046875 -56.015625 L 51.046875 -55.5625 C 51.046875 -54.5625 50.546875 -54.0625 49.546875 -54.0625 L 42.625 -54.0625 C 41.613281 -54.0625 41.109375 -54.5625 41.109375 -55.5625 L 41.109375 -56.46875 C 41.109375 -59.882812 39.976562 -62.695312 37.71875 -64.90625 C 35.457031 -67.113281 32.519531 -68.21875 28.90625 -68.21875 C 25.300781 -68.21875 22.414062 -67.085938 20.25 -64.828125 C 18.09375 -62.566406 17.015625 -59.78125 17.015625 -56.46875 C 17.015625 -54.0625 17.664062 -52.03125 18.96875 -50.375 C 20.28125 -48.71875 21.890625 -47.359375 23.796875 -46.296875 C 25.703125 -45.242188 28.363281 -43.96875 31.78125 -42.46875 C 35.894531 -40.65625 39.28125 -38.945312 41.9375 -37.34375 C 44.601562 -35.738281 46.9375 -33.476562 48.9375 -30.5625 C 50.945312 -27.65625 51.953125 -24.046875 51.953125 -19.734375 C 51.953125 -13.503906 49.894531 -8.53125 45.78125 -4.8125 C 41.664062 -1.101562 36.09375 0.75 29.0625 0.75 Z M 29.0625 0.75 "/></g></g></g><g fill="#ffffff" fill-opacity="1"><g transform="translate(96.96895, 427.435001)"><g><path d="M 43.109375 1.53125 C 33.273438 1.53125 25.421875 -1.375 19.546875 -7.1875 C 13.671875 -13 10.734375 -20.757812 10.734375 -30.46875 L 10.734375 -103.65625 C 10.734375 -113.363281 13.671875 -121.125 19.546875 -126.9375 C 25.421875 -132.75 33.273438 -135.65625 43.109375 -135.65625 C 52.941406 -135.65625 60.828125 -132.71875 66.765625 -126.84375 C 72.710938 -120.96875 75.6875 -113.175781 75.6875 -103.46875 L 75.6875 -95.234375 C 75.6875 -93.953125 75.046875 -93.3125 73.765625 -93.3125 L 64 -93.3125 C 62.71875 -93.3125 62.078125 -93.953125 62.078125 -95.234375 L 62.078125 -103.859375 C 62.078125 -109.859375 60.351562 -114.675781 56.90625 -118.3125 C 53.457031 -121.957031 48.859375 -123.78125 43.109375 -123.78125 C 37.492188 -123.78125 32.925781 -121.925781 29.40625 -118.21875 C 25.894531 -114.519531 24.140625 -109.734375 24.140625 -103.859375 L 24.140625 -30.28125 C 24.140625 -24.394531 25.894531 -19.597656 29.40625 -15.890625 C 32.925781 -12.191406 37.492188 -10.34375 43.109375 -10.34375 C 48.859375 -10.34375 53.457031 -12.160156 56.90625 -15.796875 C 60.351562 -19.441406 62.078125 -24.269531 62.078125 -30.28125 L 62.078125 -54.796875 C 62.078125 -55.304688 61.820312 -55.5625 61.3125 -55.5625 L 44.84375 -55.5625 C 43.5625 -55.5625 42.921875 -56.203125 42.921875 -57.484375 L 42.921875 -65.53125 C 42.921875 -66.8125 43.5625 -67.453125 44.84375 -67.453125 L 73.765625 -67.453125 C 75.046875 -67.453125 75.6875 -66.8125 75.6875 -65.53125 L 75.6875 -30.46875 C 75.6875 -20.757812 72.710938 -13 66.765625 -7.1875 C 60.828125 -1.375 52.941406 1.53125 43.109375 1.53125 Z M 43.109375 1.53125 "/></g></g></g><g fill="#ffffff" fill-opacity="1"><g transform="translate(183.384838, 427.435001)"><g><path d="M 69.546875 -45.21875 C 69.546875 -43.9375 68.910156 -43.296875 67.640625 -43.296875 L 23.953125 -43.296875 C 23.441406 -43.296875 23.1875 -43.039062 23.1875 -42.53125 L 23.1875 -28.546875 C 23.1875 -23.179688 24.6875 -18.804688 27.6875 -15.421875 C 30.6875 -12.035156 34.613281 -10.34375 39.46875 -10.34375 C 43.5625 -10.34375 47.039062 -11.585938 49.90625 -14.078125 C 52.78125 -16.566406 54.664062 -19.796875 55.5625 -23.765625 C 55.945312 -24.910156 56.648438 -25.484375 57.671875 -25.484375 L 67.25 -25.09375 C 67.757812 -25.09375 68.207031 -24.898438 68.59375 -24.515625 C 68.976562 -24.140625 69.109375 -23.632812 68.984375 -23 C 67.960938 -15.457031 64.863281 -9.484375 59.6875 -5.078125 C 54.507812 -0.671875 47.769531 1.53125 39.46875 1.53125 C 30.40625 1.53125 23.15625 -1.148438 17.71875 -6.515625 C 12.289062 -11.878906 9.578125 -18.96875 9.578125 -27.78125 L 9.578125 -69.171875 C 9.578125 -77.859375 12.289062 -84.914062 17.71875 -90.34375 C 23.15625 -95.769531 30.40625 -98.484375 39.46875 -98.484375 C 48.664062 -98.484375 55.976562 -95.769531 61.40625 -90.34375 C 66.832031 -84.914062 69.546875 -77.859375 69.546875 -69.171875 Z M 39.46875 -86.609375 C 34.613281 -86.609375 30.6875 -84.914062 27.6875 -81.53125 C 24.6875 -78.144531 23.1875 -73.707031 23.1875 -68.21875 L 23.1875 -55.375 C 23.1875 -54.863281 23.441406 -54.609375 23.953125 -54.609375 L 55.375 -54.609375 C 55.882812 -54.609375 56.140625 -54.863281 56.140625 -55.375 L 56.140625 -68.21875 C 56.140625 -73.707031 54.601562 -78.144531 51.53125 -81.53125 C 48.46875 -84.914062 44.445312 -86.609375 39.46875 -86.609375 Z M 39.46875 -86.609375 "/></g></g></g><g fill="#ffffff" fill-opacity="1"><g transform="translate(261.369907, 427.435001)"><g><path d="M 46.171875 -98.296875 C 53.960938 -98.296875 60 -95.613281 64.28125 -90.25 C 68.5625 -84.882812 70.703125 -77.410156 70.703125 -67.828125 L 70.703125 -1.921875 C 70.703125 -0.640625 70.0625 0 68.78125 0 L 59.015625 0 C 57.734375 0 57.09375 -0.640625 57.09375 -1.921875 L 57.09375 -66.6875 C 57.09375 -72.9375 55.71875 -77.785156 52.96875 -81.234375 C 50.226562 -84.691406 46.429688 -86.421875 41.578125 -86.421875 C 36.472656 -86.421875 32.484375 -84.566406 29.609375 -80.859375 C 26.734375 -77.148438 25.296875 -72.101562 25.296875 -65.71875 L 25.296875 -1.921875 C 25.296875 -0.640625 24.65625 0 23.375 0 L 13.609375 0 C 12.328125 0 11.6875 -0.640625 11.6875 -1.921875 L 11.6875 -95.03125 C 11.6875 -96.3125 12.328125 -96.953125 13.609375 -96.953125 L 23.375 -96.953125 C 24.65625 -96.953125 25.296875 -96.3125 25.296875 -95.03125 L 25.296875 -88.90625 C 25.296875 -88.65625 25.421875 -88.460938 25.671875 -88.328125 C 25.929688 -88.203125 26.125 -88.332031 26.25 -88.71875 C 28.550781 -91.90625 31.457031 -94.296875 34.96875 -95.890625 C 38.476562 -97.492188 42.210938 -98.296875 46.171875 -98.296875 Z M 46.171875 -98.296875 "/></g></g></g><g fill="#ffffff" fill-opacity="1"><g transform="translate(342.612341, 427.435001)"><g><path d="M 69.546875 -45.21875 C 69.546875 -43.9375 68.910156 -43.296875 67.640625 -43.296875 L 23.953125 -43.296875 C 23.441406 -43.296875 23.1875 -43.039062 23.1875 -42.53125 L 23.1875 -28.546875 C 23.1875 -23.179688 24.6875 -18.804688 27.6875 -15.421875 C 30.6875 -12.035156 34.613281 -10.34375 39.46875 -10.34375 C 43.5625 -10.34375 47.039062 -11.585938 49.90625 -14.078125 C 52.78125 -16.566406 54.664062 -19.796875 55.5625 -23.765625 C 55.945312 -24.910156 56.648438 -25.484375 57.671875 -25.484375 L 67.25 -25.09375 C 67.757812 -25.09375 68.207031 -24.898438 68.59375 -24.515625 C 68.976562 -24.140625 69.109375 -23.632812 68.984375 -23 C 67.960938 -15.457031 64.863281 -9.484375 59.6875 -5.078125 C 54.507812 -0.671875 47.769531 1.53125 39.46875 1.53125 C 30.40625 1.53125 23.15625 -1.148438 17.71875 -6.515625 C 12.289062 -11.878906 9.578125 -18.96875 9.578125 -27.78125 L 9.578125 -69.171875 C 9.578125 -77.859375 12.289062 -84.914062 17.71875 -90.34375 C 23.15625 -95.769531 30.40625 -98.484375 39.46875 -98.484375 C 48.664062 -98.484375 55.976562 -95.769531 61.40625 -90.34375 C 66.832031 -84.914062 69.546875 -77.859375 69.546875 -69.171875 Z M 39.46875 -86.609375 C 34.613281 -86.609375 30.6875 -84.914062 27.6875 -81.53125 C 24.6875 -78.144531 23.1875 -73.707031 23.1875 -68.21875 L 23.1875 -55.375 C 23.1875 -54.863281 23.441406 -54.609375 23.953125 -54.609375 L 55.375 -54.609375 C 55.882812 -54.609375 56.140625 -54.863281 56.140625 -55.375 L 56.140625 -68.21875 C 56.140625 -73.707031 54.601562 -78.144531 51.53125 -81.53125 C 48.46875 -84.914062 44.445312 -86.609375 39.46875 -86.609375 Z M 39.46875 -86.609375 "/></g></g></g><g fill="#ffffff" fill-opacity="1"><g transform="translate(420.59741, 427.435001)"><g><path d="M 44.453125 -97.90625 C 47.648438 -97.90625 50.394531 -97.207031 52.6875 -95.8125 C 53.582031 -95.289062 53.90625 -94.457031 53.65625 -93.3125 L 51.34375 -83.34375 C 51.21875 -82.195312 50.453125 -81.816406 49.046875 -82.203125 C 47.515625 -82.960938 45.597656 -83.34375 43.296875 -83.34375 C 42.273438 -83.34375 41.507812 -83.28125 41 -83.15625 C 36.40625 -82.90625 32.640625 -80.507812 29.703125 -75.96875 C 26.765625 -71.4375 25.296875 -65.914062 25.296875 -59.40625 L 25.296875 -1.921875 C 25.296875 -0.640625 24.65625 0 23.375 0 L 13.609375 0 C 12.328125 0 11.6875 -0.640625 11.6875 -1.921875 L 11.6875 -95.03125 C 11.6875 -96.3125 12.328125 -96.953125 13.609375 -96.953125 L 23.375 -96.953125 C 24.65625 -96.953125 25.296875 -96.3125 25.296875 -95.03125 L 25.296875 -83.546875 C 25.296875 -83.160156 25.390625 -82.96875 25.578125 -82.96875 C 25.773438 -82.96875 26 -83.09375 26.25 -83.34375 C 29.957031 -93.050781 36.023438 -97.90625 44.453125 -97.90625 Z M 44.453125 -97.90625 "/></g></g></g><g fill="#ffffff" fill-opacity="1"><g transform="translate(476.547386, 427.435001)"><g><path d="M 40.046875 -98.484375 C 48.984375 -98.484375 56.132812 -95.578125 61.5 -89.765625 C 66.863281 -83.953125 69.546875 -76.191406 69.546875 -66.484375 L 69.546875 -1.921875 C 69.546875 -0.640625 68.910156 0 67.640625 0 L 57.859375 0 C 56.585938 0 55.953125 -0.640625 55.953125 -1.921875 L 55.953125 -7.671875 C 55.953125 -7.921875 55.851562 -8.078125 55.65625 -8.140625 C 55.46875 -8.203125 55.242188 -8.109375 54.984375 -7.859375 C 50.265625 -1.597656 43.175781 1.53125 33.71875 1.53125 C 26.695312 1.53125 20.597656 -0.476562 15.421875 -4.5 C 10.253906 -8.519531 7.671875 -15.644531 7.671875 -25.875 C 7.671875 -36.726562 10.796875 -44.675781 17.046875 -49.71875 C 23.304688 -54.769531 31.546875 -57.296875 41.765625 -57.296875 L 55.1875 -57.296875 C 55.695312 -57.296875 55.953125 -57.550781 55.953125 -58.0625 L 55.953125 -65.53125 C 55.953125 -71.914062 54.484375 -77.023438 51.546875 -80.859375 C 48.609375 -84.691406 44.644531 -86.609375 39.65625 -86.609375 C 35.832031 -86.609375 32.546875 -85.328125 29.796875 -82.765625 C 27.046875 -80.210938 25.414062 -76.957031 24.90625 -73 C 24.90625 -71.726562 24.269531 -71.09375 23 -71.09375 L 12.265625 -71.28125 C 11.628906 -71.28125 11.148438 -71.46875 10.828125 -71.84375 C 10.503906 -72.226562 10.40625 -72.675781 10.53125 -73.1875 C 11.175781 -80.726562 14.242188 -86.828125 19.734375 -91.484375 C 25.222656 -96.148438 31.992188 -98.484375 40.046875 -98.484375 Z M 36.59375 -10.34375 C 41.832031 -10.34375 46.367188 -12.035156 50.203125 -15.421875 C 54.035156 -18.804688 55.953125 -23.503906 55.953125 -29.515625 L 55.953125 -45.609375 C 55.953125 -46.117188 55.695312 -46.375 55.1875 -46.375 L 41.578125 -46.375 C 35.441406 -46.375 30.585938 -44.742188 27.015625 -41.484375 C 23.441406 -38.222656 21.65625 -33.398438 21.65625 -27.015625 C 21.65625 -21.398438 23.023438 -17.21875 25.765625 -14.46875 C 28.515625 -11.71875 32.125 -10.34375 36.59375 -10.34375 Z M 36.59375 -10.34375 "/></g></g></g><g fill="#ffffff" fill-opacity="1"><g transform="translate(555.682127, 427.435001)"><g><path d="M 12.453125 0 C 11.171875 0 10.53125 -0.640625 10.53125 -1.921875 L 10.53125 -132.203125 C 10.53125 -133.484375 11.171875 -134.125 12.453125 -134.125 L 22.234375 -134.125 C 23.503906 -134.125 24.140625 -133.484375 24.140625 -132.203125 L 24.140625 -1.921875 C 24.140625 -0.640625 23.503906 0 22.234375 0 Z M 12.453125 0 "/></g></g></g><g fill="#ffffff" fill-opacity="1"><g transform="translate(96.96895, 597.765277)"><g><path d="M 96.554688 -132.390625 C 89.257812 -135.664062 79.902344 -137.535156 62.5 -137.535156 L 15.34375 -137.535156 L 15.34375 0 L 50.992188 0 L 50.992188 -46.59375 L 62.5 -46.59375 C 79.902344 -46.59375 89.070312 -48.839844 96.367188 -52.863281 C 111.339844 -61.28125 117.234375 -77 117.234375 -94.496094 C 117.234375 -111.898438 111.339844 -125.277344 96.554688 -132.390625 Z M 76.441406 -79.152344 C 72.417969 -76.066406 66.710938 -76.066406 57.257812 -76.066406 L 50.992188 -76.066406 L 50.992188 -108.0625 L 57.257812 -108.0625 C 66.335938 -108.0625 72.042969 -108.0625 76.253906 -104.976562 C 79.339844 -102.730469 81.585938 -98.707031 81.585938 -91.972656 C 81.585938 -85.234375 79.527344 -81.398438 76.441406 -79.152344 Z M 76.441406 -79.152344 "/></g></g><g transform="translate(218.879732, 597.765277)"><g><path d="M 15.34375 0 L 50.992188 0 L 50.992188 -53.609375 L 101.703125 -53.609375 L 101.703125 0 L 137.347656 0 L 137.347656 -137.535156 L 101.703125 -137.535156 L 101.703125 -84.300781 L 50.992188 -84.300781 L 50.992188 -137.535156 L 15.34375 -137.535156 Z M 15.34375 0 "/></g></g><g transform="translate(371.572284, 597.765277)"><g><path d="M 15.34375 0 L 50.992188 0 L 50.992188 -137.535156 L 15.34375 -137.535156 Z M 15.34375 0 "/></g></g><g transform="translate(437.907467, 597.765277)"><g><path d="M 50.992188 -31.25 L 50.992188 -137.535156 L 15.34375 -137.535156 L 15.34375 0 L 91.222656 0 L 91.222656 -31.25 Z M 50.992188 -31.25 "/></g></g><g transform="translate(532.030449, 597.765277)"><g><path d="M 15.34375 0 L 50.992188 0 L 50.992188 -137.535156 L 15.34375 -137.535156 Z M 15.34375 0 "/></g></g><g transform="translate(598.365633, 597.765277)"><g><path d="M 96.554688 -132.390625 C 89.257812 -135.664062 79.902344 -137.535156 62.5 -137.535156 L 15.34375 -137.535156 L 15.34375 0 L 50.992188 0 L 50.992188 -46.59375 L 62.5 -46.59375 C 79.902344 -46.59375 89.070312 -48.839844 96.367188 -52.863281 C 111.339844 -61.28125 117.234375 -77 117.234375 -94.496094 C 117.234375 -111.898438 111.339844 -125.277344 96.554688 -132.390625 Z M 76.441406 -79.152344 C 72.417969 -76.066406 66.710938 -76.066406 57.257812 -76.066406 L 50.992188 -76.066406 L 50.992188 -108.0625 L 57.257812 -108.0625 C 66.335938 -108.0625 72.042969 -108.0625 76.253906 -104.976562 C 79.339844 -102.730469 81.585938 -98.707031 81.585938 -91.972656 C 81.585938 -85.234375 79.527344 -81.398438 76.441406 -79.152344 Z M 76.441406 -79.152344 "/></g></g><g transform="translate(720.276414, 597.765277)"><g><path d="M 96.554688 -132.390625 C 89.257812 -135.664062 79.902344 -137.535156 62.5 -137.535156 L 15.34375 -137.535156 L 15.34375 0 L 50.992188 0 L 50.992188 -46.59375 L 62.5 -46.59375 C 79.902344 -46.59375 89.070312 -48.839844 96.367188 -52.863281 C 111.339844 -61.28125 117.234375 -77 117.234375 -94.496094 C 117.234375 -111.898438 111.339844 -125.277344 96.554688 -132.390625 Z M 76.441406 -79.152344 C 72.417969 -76.066406 66.710938 -76.066406 57.257812 -76.066406 L 50.992188 -76.066406 L 50.992188 -108.0625 L 57.257812 -108.0625 C 66.335938 -108.0625 72.042969 -108.0625 76.253906 -104.976562 C 79.339844 -102.730469 81.585938 -98.707031 81.585938 -91.972656 C 81.585938 -85.234375 79.527344 -81.398438 76.441406 -79.152344 Z M 76.441406 -79.152344 "/></g></g><g transform="translate(842.187196, 597.765277)"><g><path d="M 15.34375 0 L 50.992188 0 L 50.992188 -137.535156 L 15.34375 -137.535156 Z M 15.34375 0 "/></g></g><g transform="translate(908.522379, 597.765277)"><g><path d="M 110.214844 -137.535156 L 110.214844 -48.746094 L 57.257812 -137.535156 L 15.34375 -137.535156 L 15.34375 0 L 50.992188 0 L 50.992188 -89.257812 L 103.480469 0 L 145.863281 0 L 145.863281 -137.535156 Z M 110.214844 -137.535156 "/></g></g><g transform="translate(1069.635476, 597.765277)"><g><path d="M 98.894531 -106.566406 L 98.894531 -137.535156 L 15.34375 -137.535156 L 15.34375 0 L 98.894531 0 L 98.894531 -31.25 L 50.992188 -31.25 L 50.992188 -53.421875 L 93.65625 -53.421875 L 93.65625 -84.113281 L 50.992188 -84.113281 L 50.992188 -106.566406 Z M 98.894531 -106.566406 "/></g></g><g transform="translate(1180.038179, 597.765277)"><g><path d="M 63.246094 1.871094 C 95.246094 1.871094 116.296875 -14.410156 116.296875 -40.417969 C 116.296875 -68.394531 92.15625 -77.1875 72.230469 -83.738281 C 58.101562 -88.320312 45.75 -91.035156 45.75 -100.015625 C 45.75 -106.941406 52.675781 -110.964844 62.5 -110.964844 C 73.539062 -110.964844 80.089844 -105.539062 84.300781 -93.65625 L 116.296875 -101.515625 C 110.589844 -129.957031 84.300781 -139.5 60.160156 -139.5 C 30.5 -139.5 9.730469 -123.78125 9.730469 -98.519531 C 9.730469 -72.605469 31.4375 -64.746094 50.804688 -58.289062 C 66.148438 -53.050781 79.339844 -49.402344 79.339844 -38.359375 C 79.339844 -31.0625 73.726562 -26.664062 63.808594 -26.664062 C 52.113281 -26.664062 43.691406 -32.746094 39.855469 -48.277344 L 4.585938 -40.230469 C 8.421875 -12.628906 32.933594 1.871094 63.246094 1.871094 Z M 63.246094 1.871094 "/></g></g></g><g fill="#ffffff" fill-opacity="1"><g transform="translate(101.744487, 695.704128)"><g><path d="M 26.175781 0.605469 C 38.664062 0.605469 48.382812 -8.070312 48.382812 -22.398438 C 48.382812 -36.660156 38.664062 -45.332031 26.175781 -45.332031 C 13.566406 -45.332031 3.90625 -36.660156 3.90625 -22.398438 C 3.90625 -8.070312 13.566406 0.605469 26.175781 0.605469 Z M 26.175781 -4.765625 C 16.902344 -4.765625 9.5625 -11.117188 9.5625 -22.398438 C 9.5625 -33.546875 16.902344 -39.902344 26.175781 -39.902344 C 35.390625 -39.902344 42.695312 -33.546875 42.695312 -22.398438 C 42.695312 -11.117188 35.390625 -4.765625 26.175781 -4.765625 Z M 26.175781 -4.765625 "/></g></g></g><g fill="#ffffff" fill-opacity="1"><g transform="translate(154.030977, 695.704128)"><g><path d="M 18.554688 0.570312 C 25.351562 0.570312 30.910156 -3.242188 32.847656 -9.753906 L 27.703125 -10.609375 C 26.242188 -6.355469 22.746094 -4.035156 18.519531 -4.035156 C 12.769531 -4.035156 8.449219 -8.578125 8.449219 -15.628906 C 8.449219 -22.683594 12.769531 -27.257812 18.519531 -27.257812 C 22.746094 -27.257812 26.242188 -24.9375 27.703125 -20.679688 L 32.847656 -21.507812 C 30.910156 -28.050781 25.445312 -31.832031 18.554688 -31.832031 C 9.625 -31.832031 2.953125 -25.414062 2.953125 -15.628906 C 2.953125 -5.878906 9.625 0.570312 18.554688 0.570312 Z M 18.554688 0.570312 "/></g></g></g><g fill="#ffffff" fill-opacity="1"><g transform="translate(189.386301, 695.704128)"><g><path d="M 15.566406 0 L 19.949219 0 L 19.949219 -4.382812 L 17.089844 -4.382812 C 14.582031 -4.382812 12.769531 -6.003906 12.769531 -9.054688 L 12.769531 -26.84375 L 19.949219 -26.84375 L 19.949219 -31.226562 L 12.769531 -31.226562 L 12.769531 -41.648438 L 7.65625 -41.648438 L 7.65625 -35.992188 C 7.65625 -32.5625 6.480469 -31.226562 3.207031 -31.226562 L 0.859375 -31.226562 L 0.859375 -26.84375 L 7.242188 -26.84375 L 7.242188 -8.480469 C 7.242188 -3.082031 10.453125 0 15.566406 0 Z M 15.566406 0 "/></g></g></g><g fill="#ffffff" fill-opacity="1"><g transform="translate(211.685885, 695.704128)"><g><path d="M 18.742188 0.636719 C 27.734375 0.636719 34.46875 -5.621094 34.46875 -15.628906 C 34.46875 -25.574219 27.765625 -31.863281 18.742188 -31.863281 C 9.753906 -31.863281 3.019531 -25.574219 3.019531 -15.628906 C 3.019531 -5.621094 9.847656 0.636719 18.742188 0.636719 Z M 18.710938 -3.972656 C 12.929688 -3.972656 8.480469 -8.546875 8.480469 -15.628906 C 8.480469 -22.683594 12.929688 -27.257812 18.710938 -27.257812 C 24.558594 -27.257812 29.035156 -22.683594 29.035156 -15.628906 C 29.035156 -8.546875 24.558594 -3.972656 18.710938 -3.972656 Z M 18.710938 -3.972656 "/></g></g></g><g fill="#ffffff" fill-opacity="1"><g transform="translate(249.169517, 695.704128)"><g><path d="M 22.144531 -31.832031 C 17.21875 -31.832031 13.089844 -29.289062 11.085938 -25.289062 L 11.085938 -48.796875 L 5.589844 -48.796875 L 5.589844 0 L 10.898438 0 L 11.023438 -6.066406 C 12.992188 -1.9375 17.1875 0.667969 22.144531 0.667969 C 30.148438 0.667969 36.691406 -5.71875 36.691406 -15.597656 C 36.691406 -25.445312 30.085938 -31.832031 22.144531 -31.832031 Z M 20.933594 -4.097656 C 15.21875 -4.097656 10.738281 -9.023438 10.738281 -15.597656 C 10.738281 -22.175781 15.25 -27.097656 20.933594 -27.097656 C 26.621094 -27.097656 31.195312 -22.554688 31.195312 -15.597656 C 31.195312 -8.640625 26.621094 -4.097656 20.933594 -4.097656 Z M 20.933594 -4.097656 "/></g></g></g><g fill="#ffffff" fill-opacity="1"><g transform="translate(288.90852, 695.704128)"><g><path d="M 32.910156 -16.234375 C 32.910156 -26.683594 26.84375 -31.863281 18.457031 -31.863281 C 9.65625 -31.863281 3.082031 -25.828125 3.082031 -15.628906 C 3.082031 -5.402344 9.53125 0.636719 18.617188 0.636719 C 24.8125 0.636719 29.988281 -2.859375 32.246094 -8.546875 L 27.289062 -9.59375 C 25.636719 -6.097656 22.398438 -3.972656 18.554688 -3.972656 C 13.183594 -3.972656 8.609375 -7.496094 8.449219 -14.742188 L 32.847656 -14.742188 Z M 18.457031 -27.605469 C 23.351562 -27.605469 26.941406 -24.78125 27.382812 -18.964844 L 8.671875 -18.964844 C 9.59375 -24.78125 13.46875 -27.605469 18.457031 -27.605469 Z M 18.457031 -27.605469 "/></g></g></g><g fill="#ffffff" fill-opacity="1"><g transform="translate(324.835637, 695.704128)"><g><path d="M 11.023438 -25.890625 L 10.898438 -31.226562 L 5.589844 -31.226562 L 5.589844 0 L 11.085938 0 L 11.085938 -16.679688 C 11.085938 -23.699219 14.742188 -26.398438 20.839844 -26.398438 L 20.839844 -31.578125 C 16.457031 -31.515625 12.644531 -29.226562 11.023438 -25.890625 Z M 11.023438 -25.890625 "/></g></g></g><g fill="#ffffff" fill-opacity="1"><g transform="translate(346.499906, 695.704128)"><g/></g></g><g fill="#ffffff" fill-opacity="1"><g transform="translate(363.399306, 695.704128)"><g><path d="M 18.648438 -44.730469 L 7.625 -35.292969 L 7.625 -29.417969 L 18.363281 -38.726562 L 18.363281 0 L 23.792969 0 L 23.792969 -44.730469 Z M 18.648438 -44.730469 "/></g></g></g><g fill="#ffffff" fill-opacity="1"><g transform="translate(400.025271, 695.704128)"><g><path d="M 35.261719 -14.042969 L 28.371094 -14.042969 L 28.371094 -44.730469 L 20.078125 -44.730469 L 1.460938 -14.074219 L 1.460938 -8.992188 L 22.875 -8.992188 L 22.875 0 L 28.371094 0 L 28.371094 -8.992188 L 35.261719 -8.992188 Z M 7.148438 -14.042969 L 22.875 -40.695312 L 22.875 -14.042969 Z M 7.148438 -14.042969 "/></g></g></g><g fill="#ffffff" fill-opacity="1"><g transform="translate(436.651217, 695.704128)"><g/></g></g><g fill="#ffffff" fill-opacity="1"><g transform="translate(453.550617, 695.704128)"><g><path d="M 5.433594 -14.644531 L 28.210938 -14.644531 L 28.210938 -19.1875 L 5.433594 -19.1875 Z M 5.433594 -14.644531 "/></g></g></g><g fill="#ffffff" fill-opacity="1"><g transform="translate(487.222354, 695.704128)"><g/></g></g><g fill="#ffffff" fill-opacity="1"><g transform="translate(504.121754, 695.704128)"><g><path d="M 18.648438 -44.730469 L 7.625 -35.292969 L 7.625 -29.417969 L 18.363281 -38.726562 L 18.363281 0 L 23.792969 0 L 23.792969 -44.730469 Z M 18.648438 -44.730469 "/></g></g></g><g fill="#ffffff" fill-opacity="1"><g transform="translate(540.7477, 695.704128)"><g><path d="M 18.363281 0.605469 C 26.84375 0.605469 33.515625 -4.574219 33.515625 -12.835938 C 33.515625 -18.617188 30.117188 -22.777344 25.160156 -24.652344 C 28.71875 -26.429688 31.070312 -29.863281 31.070312 -33.992188 C 31.070312 -40.632812 25.542969 -45.332031 18.363281 -45.332031 C 11.023438 -45.332031 5.527344 -40.632812 5.527344 -33.992188 C 5.527344 -29.863281 7.941406 -26.429688 11.5625 -24.652344 C 6.542969 -22.777344 3.175781 -18.617188 3.175781 -12.835938 C 3.175781 -4.605469 9.847656 0.605469 18.363281 0.605469 Z M 18.363281 -26.464844 C 14.011719 -26.464844 10.707031 -29.640625 10.707031 -33.707031 C 10.707031 -37.710938 14.011719 -40.789062 18.363281 -40.789062 C 22.617188 -40.789062 25.988281 -37.710938 25.988281 -33.707031 C 25.988281 -29.640625 22.617188 -26.464844 18.363281 -26.464844 Z M 18.363281 -4.480469 C 12.929688 -4.480469 8.671875 -7.910156 8.671875 -13.40625 C 8.671875 -18.808594 12.960938 -22.207031 18.363281 -22.207031 C 23.730469 -22.207031 27.988281 -18.808594 27.988281 -13.40625 C 27.988281 -7.910156 23.730469 -4.480469 18.363281 -4.480469 Z M 18.363281 -4.480469 "/></g></g></g><g fill="#ffffff" fill-opacity="1"><g transform="translate(577.373646, 695.704128)"><g/></g></g><g fill="#ffffff" fill-opacity="1"><g transform="translate(594.273046, 695.704128)"><g><path d="M 8.386719 9.753906 L 12.039062 9.753906 L 12.039062 -48.796875 L 8.386719 -48.796875 Z M 8.386719 9.753906 "/></g></g></g><g fill="#ffffff" fill-opacity="1"><g transform="translate(614.698458, 695.704128)"><g/></g></g><g fill="#ffffff" fill-opacity="1"><g transform="translate(631.597858, 695.704128)"><g><path d="M 26.175781 0.605469 C 35.007812 0.605469 42.441406 -3.75 45.9375 -11.277344 L 40.695312 -13.40625 C 37.964844 -7.878906 32.5625 -4.828125 26.175781 -4.828125 C 16.902344 -4.828125 9.5625 -11.183594 9.5625 -22.398438 C 9.5625 -33.546875 16.902344 -39.902344 26.175781 -39.902344 C 32.5625 -39.902344 37.964844 -36.820312 40.695312 -31.292969 L 45.9375 -33.453125 C 42.441406 -40.949219 35.007812 -45.332031 26.175781 -45.332031 C 13.566406 -45.332031 3.90625 -36.660156 3.90625 -22.398438 C 3.90625 -8.070312 13.566406 0.605469 26.175781 0.605469 Z M 26.175781 0.605469 "/></g></g></g><g fill="#ffffff" fill-opacity="1"><g transform="translate(680.263048, 695.704128)"><g><path d="M 32.910156 -16.234375 C 32.910156 -26.683594 26.84375 -31.863281 18.457031 -31.863281 C 9.65625 -31.863281 3.082031 -25.828125 3.082031 -15.628906 C 3.082031 -5.402344 9.53125 0.636719 18.617188 0.636719 C 24.8125 0.636719 29.988281 -2.859375 32.246094 -8.546875 L 27.289062 -9.59375 C 25.636719 -6.097656 22.398438 -3.972656 18.554688 -3.972656 C 13.183594 -3.972656 8.609375 -7.496094 8.449219 -14.742188 L 32.847656 -14.742188 Z M 18.457031 -27.605469 C 23.351562 -27.605469 26.941406 -24.78125 27.382812 -18.964844 L 8.671875 -18.964844 C 9.59375 -24.78125 13.46875 -27.605469 18.457031 -27.605469 Z M 18.457031 -27.605469 "/></g></g></g><g fill="#ffffff" fill-opacity="1"><g transform="translate(716.190165, 695.704128)"><g><path d="M 22.144531 -31.832031 C 17.21875 -31.832031 13.089844 -29.289062 11.085938 -25.289062 L 11.085938 -48.796875 L 5.589844 -48.796875 L 5.589844 0 L 10.898438 0 L 11.023438 -6.066406 C 12.992188 -1.9375 17.1875 0.667969 22.144531 0.667969 C 30.148438 0.667969 36.691406 -5.71875 36.691406 -15.597656 C 36.691406 -25.445312 30.085938 -31.832031 22.144531 -31.832031 Z M 20.933594 -4.097656 C 15.21875 -4.097656 10.738281 -9.023438 10.738281 -15.597656 C 10.738281 -22.175781 15.25 -27.097656 20.933594 -27.097656 C 26.621094 -27.097656 31.195312 -22.554688 31.195312 -15.597656 C 31.195312 -8.640625 26.621094 -4.097656 20.933594 -4.097656 Z M 20.933594 -4.097656 "/></g></g></g><g fill="#ffffff" fill-opacity="1"><g transform="translate(755.92914, 695.704128)"><g><path d="M 25.035156 -31.226562 L 25.035156 -12.546875 C 25 -6.640625 21.601562 -4.003906 17.3125 -4.003906 C 13.628906 -4.003906 10.484375 -6.132812 10.484375 -11.4375 L 10.484375 -31.226562 L 4.988281 -31.226562 L 4.988281 -10.199219 C 4.988281 -3.175781 9.371094 0.605469 15.789062 0.605469 C 19.886719 0.605469 23.191406 -1.113281 25.128906 -4.128906 L 25.257812 0 L 30.53125 0 L 30.53125 -31.226562 Z M 25.035156 -31.226562 "/></g></g></g><g fill="#ffffff" fill-opacity="1"><g transform="translate(792.046834, 695.704128)"><g><path d="M 5.878906 11.46875 L 9.878906 11.46875 L 15.503906 -8.226562 L 9.753906 -8.226562 Z M 5.878906 11.46875 "/></g></g></g><g fill="#ffffff" fill-opacity="1"><g transform="translate(812.662822, 695.704128)"><g/></g></g><g fill="#ffffff" fill-opacity="1"><g transform="translate(829.56226, 695.704128)"><g><path d="M 32.085938 -42.0625 C 29.480469 -43.871094 25.796875 -44.730469 20.777344 -44.730469 L 7.019531 -44.730469 L 7.019531 0 L 12.707031 0 L 12.707031 -17.378906 L 20.777344 -17.378906 C 25.953125 -17.378906 29.734375 -18.457031 32.339844 -20.714844 C 35.390625 -23.0625 36.882812 -26.90625 36.882812 -31.738281 C 36.882812 -36.566406 35.292969 -39.996094 32.085938 -42.0625 Z M 28.78125 -24.78125 C 26.972656 -22.9375 24.046875 -22.332031 20.046875 -22.332031 L 12.707031 -22.332031 L 12.707031 -39.804688 L 20.046875 -39.804688 C 23.953125 -39.804688 26.78125 -39.394531 28.6875 -37.835938 C 30.179688 -36.597656 31.070312 -34.5625 31.070312 -31.515625 C 31.070312 -28.335938 30.242188 -26.207031 28.78125 -24.78125 Z M 28.78125 -24.78125 "/></g></g></g><g fill="#ffffff" fill-opacity="1"><g transform="translate(869.491848, 695.704128)"><g><path d="M 20.523438 -31.832031 C 16.359375 -31.832031 13.058594 -30.085938 11.085938 -27.097656 L 11.085938 -48.796875 L 5.589844 -48.796875 L 5.589844 0 L 11.085938 0 L 11.085938 -18.679688 C 11.117188 -24.652344 14.675781 -27.195312 18.808594 -27.195312 C 22.492188 -27.195312 25.636719 -25.128906 25.636719 -19.601562 L 25.636719 0 L 31.132812 0 L 31.132812 -20.648438 C 31.132812 -28.050781 26.75 -31.832031 20.523438 -31.832031 Z M 20.523438 -31.832031 "/></g></g></g><g fill="#ffffff" fill-opacity="1"><g transform="translate(905.609542, 695.704128)"><g><path d="M 8.386719 -38.566406 C 10.386719 -38.566406 12.070312 -40.25 12.070312 -42.285156 C 12.070312 -44.316406 10.386719 -45.96875 8.386719 -45.96875 C 6.355469 -45.96875 4.671875 -44.316406 4.671875 -42.285156 C 4.671875 -40.25 6.355469 -38.566406 8.386719 -38.566406 Z M 5.589844 0 L 11.117188 0 L 11.117188 -31.226562 L 5.589844 -31.226562 Z M 5.589844 0 "/></g></g></g><g fill="#ffffff" fill-opacity="1"><g transform="translate(922.318366, 695.704128)"><g><path d="M 5.589844 0 L 11.152344 0 L 11.152344 -48.796875 L 5.589844 -48.796875 Z M 5.589844 0 "/></g></g></g><g fill="#ffffff" fill-opacity="1"><g transform="translate(939.058947, 695.704128)"><g><path d="M 8.386719 -38.566406 C 10.386719 -38.566406 12.070312 -40.25 12.070312 -42.285156 C 12.070312 -44.316406 10.386719 -45.96875 8.386719 -45.96875 C 6.355469 -45.96875 4.671875 -44.316406 4.671875 -42.285156 C 4.671875 -40.25 6.355469 -38.566406 8.386719 -38.566406 Z M 5.589844 0 L 11.117188 0 L 11.117188 -31.226562 L 5.589844 -31.226562 Z M 5.589844 0 "/></g></g></g><g fill="#ffffff" fill-opacity="1"><g transform="translate(955.767771, 695.704128)"><g><path d="M 22.078125 -31.832031 C 17.1875 -31.832031 12.992188 -29.226562 11.023438 -25.160156 L 10.898438 -31.226562 L 5.589844 -31.226562 L 5.589844 16.011719 L 11.085938 16.011719 L 11.085938 -5.910156 C 13.089844 -1.90625 17.25 0.667969 22.078125 0.667969 C 30.085938 0.667969 36.660156 -5.589844 36.660156 -15.597656 C 36.660156 -25.574219 30.085938 -31.832031 22.078125 -31.832031 Z M 21 -4.097656 C 15.21875 -4.097656 10.675781 -9.023438 10.675781 -15.597656 C 10.675781 -22.144531 15.21875 -27.066406 21 -27.066406 C 26.527344 -27.066406 31.164062 -22.683594 31.164062 -15.597656 C 31.164062 -8.480469 26.527344 -4.097656 21 -4.097656 Z M 21 -4.097656 "/></g></g></g><g fill="#ffffff" fill-opacity="1"><g transform="translate(995.506745, 695.704128)"><g><path d="M 22.078125 -31.832031 C 17.1875 -31.832031 12.992188 -29.226562 11.023438 -25.160156 L 10.898438 -31.226562 L 5.589844 -31.226562 L 5.589844 16.011719 L 11.085938 16.011719 L 11.085938 -5.910156 C 13.089844 -1.90625 17.25 0.667969 22.078125 0.667969 C 30.085938 0.667969 36.660156 -5.589844 36.660156 -15.597656 C 36.660156 -25.574219 30.085938 -31.832031 22.078125 -31.832031 Z M 21 -4.097656 C 15.21875 -4.097656 10.675781 -9.023438 10.675781 -15.597656 C 10.675781 -22.144531 15.21875 -27.066406 21 -27.066406 C 26.527344 -27.066406 31.164062 -22.683594 31.164062 -15.597656 C 31.164062 -8.480469 26.527344 -4.097656 21 -4.097656 Z M 21 -4.097656 "/></g></g></g><g fill="#ffffff" fill-opacity="1"><g transform="translate(1035.24572, 695.704128)"><g><path d="M 8.386719 -38.566406 C 10.386719 -38.566406 12.070312 -40.25 12.070312 -42.285156 C 12.070312 -44.316406 10.386719 -45.96875 8.386719 -45.96875 C 6.355469 -45.96875 4.671875 -44.316406 4.671875 -42.285156 C 4.671875 -40.25 6.355469 -38.566406 8.386719 -38.566406 Z M 5.589844 0 L 11.117188 0 L 11.117188 -31.226562 L 5.589844 -31.226562 Z M 5.589844 0 "/></g></g></g><g fill="#ffffff" fill-opacity="1"><g transform="translate(1051.954544, 695.704128)"><g><path d="M 20.332031 -31.832031 C 16.296875 -31.832031 13.058594 -30.148438 11.085938 -27.226562 L 11.085938 -31.226562 L 5.589844 -31.226562 L 5.589844 0 L 11.085938 0 L 11.085938 -18.679688 C 11.117188 -24.558594 14.550781 -27.195312 18.839844 -27.195312 C 22.492188 -27.195312 25.636719 -25.128906 25.636719 -19.792969 L 25.636719 0 L 31.132812 0 L 31.132812 -21.03125 C 31.132812 -28.050781 26.75 -31.832031 20.332031 -31.832031 Z M 20.332031 -31.832031 "/></g></g></g><g fill="#ffffff" fill-opacity="1"><g transform="translate(1088.103994, 695.704128)"><g><path d="M 32.910156 -16.234375 C 32.910156 -26.683594 26.84375 -31.863281 18.457031 -31.863281 C 9.65625 -31.863281 3.082031 -25.828125 3.082031 -15.628906 C 3.082031 -5.402344 9.53125 0.636719 18.617188 0.636719 C 24.8125 0.636719 29.988281 -2.859375 32.246094 -8.546875 L 27.289062 -9.59375 C 25.636719 -6.097656 22.398438 -3.972656 18.554688 -3.972656 C 13.183594 -3.972656 8.609375 -7.496094 8.449219 -14.742188 L 32.847656 -14.742188 Z M 18.457031 -27.605469 C 23.351562 -27.605469 26.941406 -24.78125 27.382812 -18.964844 L 8.671875 -18.964844 C 9.59375 -24.78125 13.46875 -27.605469 18.457031 -27.605469 Z M 18.457031 -27.605469 "/></g></g></g><g fill="#ffffff" fill-opacity="1"><g transform="translate(1124.031074, 695.704128)"><g><path d="M 15.472656 0.605469 C 21.539062 0.605469 26.972656 -1.96875 26.972656 -8.578125 C 26.972656 -15.121094 21.601562 -16.773438 16.679688 -18.042969 C 12.675781 -19.0625 8.957031 -19.855469 8.957031 -23.316406 C 8.957031 -26.558594 12.039062 -27.765625 14.898438 -27.765625 C 18.140625 -27.765625 21.0625 -26.207031 21.761719 -22.492188 L 26.558594 -23.636719 C 25.574219 -29.289062 20.554688 -31.769531 14.867188 -31.769531 C 8.863281 -31.769531 3.84375 -29.066406 3.84375 -22.9375 C 3.84375 -17.3125 8.101562 -15.628906 12.453125 -14.328125 C 17.472656 -12.800781 21.570312 -12.167969 21.667969 -8.355469 C 21.761719 -4.734375 18.488281 -3.558594 15.4375 -3.558594 C 11.375 -3.558594 8.449219 -5.65625 7.75 -9.433594 L 2.953125 -8.070312 C 3.9375 -2.414062 8.863281 0.605469 15.472656 0.605469 Z M 15.472656 0.605469 "/></g></g></g><g fill="#ffffff" fill-opacity="1"><g transform="translate(1154.24736, 695.704128)"><g/></g></g><g fill="#ffffff" fill-opacity="1"><g transform="translate(1171.14676, 695.704128)"><g/></g></g><g fill="#ffffff" fill-opacity="1"><g transform="translate(1413.100952, 421.645947)"><g><path d="M 30.082031 -15.984375 L 47.558594 -33.957031 C 53.5625 -40.160156 56.742188 -45.570312 56.742188 -52.867188 C 56.742188 -66.371094 45.871094 -74.117188 30.828125 -74.117188 C 14.84375 -74.117188 4.765625 -65.378906 4.765625 -50.136719 L 4.765625 -46.960938 L 22.785156 -45.125 L 22.785156 -50.535156 C 22.785156 -57.632812 26.113281 -59.867188 31.027344 -59.867188 C 36.585938 -59.867188 38.820312 -57.039062 38.820312 -53.167969 C 38.820312 -50.039062 37.230469 -46.265625 33.855469 -42.890625 L 4.964844 -13.601562 L 4.964844 0 L 57.832031 0 L 57.832031 -15.984375 Z M 30.082031 -15.984375 "/></g></g></g><g fill="#ffffff" fill-opacity="1"><g transform="translate(1413.100952, 518.077746)"><g><path d="M 31.621094 0.992188 C 49.292969 0.992188 59.371094 -11.070312 59.371094 -36.488281 C 59.371094 -62.003906 49.195312 -74.015625 31.621094 -74.015625 C 13.949219 -74.015625 3.773438 -62.003906 3.773438 -36.488281 C 3.773438 -11.070312 13.851562 0.992188 31.621094 0.992188 Z M 31.621094 -15.140625 C 25.714844 -15.140625 21.84375 -21.246094 21.84375 -36.488281 C 21.84375 -51.726562 25.714844 -57.832031 31.621094 -57.832031 C 37.429688 -57.832031 41.253906 -51.726562 41.253906 -36.488281 C 41.253906 -21.246094 37.429688 -15.140625 31.621094 -15.140625 Z M 31.621094 -15.140625 "/></g></g></g><g fill="#ffffff" fill-opacity="1"><g transform="translate(1413.100952, 614.509545)"><g><path d="M 30.082031 -15.984375 L 47.558594 -33.957031 C 53.5625 -40.160156 56.742188 -45.570312 56.742188 -52.867188 C 56.742188 -66.371094 45.871094 -74.117188 30.828125 -74.117188 C 14.84375 -74.117188 4.765625 -65.378906 4.765625 -50.136719 L 4.765625 -46.960938 L 22.785156 -45.125 L 22.785156 -50.535156 C 22.785156 -57.632812 26.113281 -59.867188 31.027344 -59.867188 C 36.585938 -59.867188 38.820312 -57.039062 38.820312 -53.167969 C 38.820312 -50.039062 37.230469 -46.265625 33.855469 -42.890625 L 4.964844 -13.601562 L 4.964844 0 L 57.832031 0 L 57.832031 -15.984375 Z M 30.082031 -15.984375 "/></g></g></g><g fill="#ffffff" fill-opacity="1"><g transform="translate(1413.100952, 710.941344)"><g><path d="M 60.167969 -29.289062 L 52.96875 -29.289062 L 52.96875 -72.972656 L 25.117188 -72.972656 L 2.132812 -29.386719 L 2.132812 -13.304688 L 34.847656 -13.304688 L 34.847656 0 L 52.96875 0 L 52.96875 -13.304688 L 60.167969 -13.304688 Z M 18.019531 -29.289062 L 34.847656 -62.746094 L 34.847656 -29.289062 Z M 18.019531 -29.289062 "/></g></g></g></svg>